M48
;Layer_Color=9474304
;FILE_FORMAT=2:5
INCH,LZ
;TYPE=PLATED
T1F00S00C0.00600
T2F00S00C0.00800
T3F00S00C0.01000
T4F00S00C0.01200
T5F00S00C0.01400
T6F00S00C0.01600
T7F00S00C0.02000
T8F00S00C0.03504
T9F00S00C0.03543
T11F00S00C0.03937
T12F00S00C0.04016
T13F00S00C0.04331
T15F00S00C0.04724
T16F00S00C0.06299
T18F00S00C0.12500
T19F00S00C0.12795
;TYPE=NON_PLATED
%
T01
X0013Y009
X002
X0026
X0032
X0038
X01685Y0051
X02148Y0055
X02228Y00569
X0234Y0048
X02395Y0052
X02435Y0058
X0248Y00675
X02457Y007
X02435Y0095
X0239
X0235
X02325Y01015
X0225Y01
Y01095
X02125Y01075
X021Y01125
X02075Y01035
X02146Y00974
X02153Y00866
X022Y0089
X02228Y0091
X0264Y01056
X0275Y01095
X02745Y011305
X0286067Y0113441
X0290004
X0293941
X0297878
X0293941Y0109504
X0290004
X0286067
Y0105567
X0290004
X0293941
X0297878
X0293941Y010163
X0290004
X0286067
X0290004Y0097693
X02938Y009
X0278193Y0097693
X028213Y0105567
X02565Y005
X03345Y0051
X03477Y0055
X03478Y00595
X03425Y00615
X0345Y0065
X03443Y00728
X0341Y0079
X0341185Y0082815
X0338Y00856
X03334Y0089
X03315Y00915
X03257
X03255Y00955
X0325437Y010163
X0333311Y0105567
X0337248
Y0109504
Y0113441
X0345122
X034505Y01095
X0341185Y0109504
Y0105567
X0337248Y010163
Y0097693
X0339216Y0097284
X0343154Y0097154
X0349059Y0097693
X0352996
X03549Y00943
X03575Y00927
X03657Y00937
X0364807Y0097693
X03648Y01015
X0364807Y0105567
X036087
X0356933Y0109504
X03531Y01133
X0349059Y0109504
X03491Y01055
X0349059Y010163
X0352996Y0105567
X0349Y00935
X03478Y00809
X0360631Y0085532
X03615Y00755
X03685Y00904
X0375Y01
X03764Y01067
X04055Y0105
X04075Y0108
X0419748Y0105748
X042Y0103
Y01005
Y0098
Y00955
X04204Y00858
X04225Y00675
X04035Y0077
X03743Y00657
X03755Y00625
X0372Y00585
X03755Y0055
Y00475
X038Y005
X03755Y004
Y00325
Y0025
Y00175
X0376Y001
X03684Y00438
X0365Y00435
X03295Y00225
X03155
X03176Y00855
X03057Y00854
X03085Y00935
X031305
X0313626Y0097693
Y010163
Y0105567
Y0109504
Y0113441
X0317563Y0109504
X0301815
X0305752Y0105567
X0309689Y010163
Y0097693
X03315Y0073
X044395Y008075
X0441Y0086
Y00885
X04395Y00911
Y00935
X04404Y01007
X0435Y0108
X0446Y0088016
X04335Y0018
Y00145
Y00105
X043
X0427Y00145
Y0018
X04625Y007
X0482Y0069
X0534Y00675
X05405Y0117
X053509Y01269
X05295Y01265
X05255
X0519Y01275
X0516
X05095Y01375
X05075Y01355
X0497Y0134
X05005Y01305
X0498Y01505
X0499Y01585
X051Y0158
Y01495
X0508Y0151
X0517642Y0162358
X05175Y0165
X05195Y0161
X05255
X05355Y01625
X05435Y01535
X054661Y0152
X0551Y0153
X05521Y01587
X05535Y0136
X05445Y01355
X05315Y0185
X0504531Y0181569
X04586Y01718
X0464Y0153
X04584Y0141284
X0459Y0128
X04565Y0126
X0461Y01235
X0478Y01175
X0482Y01415
X04836Y0144
X0461Y0235
X04565
X0441
X0435Y02384
X0437Y02415
X0444Y0243
X0447
X0431Y0235
X0426
X0437Y0222
X04375Y01975
X04358Y01685
X04355Y0164
X0433Y0166
Y0162
X04365Y016
X04385Y0158
X043945Y01655
X04285Y01675
X0414Y01725
X0412098Y0178402
X041Y01765
X04055Y01655
X04035Y01565
X04003Y0153
X03925Y01485
X0389Y0146
X03915Y0143
Y01408
Y01335
X03805Y01366
X03775Y0143
X03735Y01415
X0365406Y0146906
X0356933Y0148874
X0352996
X0349059
X0345122
Y0144937
X0341185
X0337248
X0333311
X0329374
X0325437
Y0148874
X0329374
X0333311
Y0152811
Y0156748
X0329374
Y0152811
X0325437
Y0156748
Y0160685
X0329374
X0333311
X0337248
Y0156748
Y0152811
Y0148874
X0341185
Y0152811
Y0156748
Y0160685
X0345122
X0349059
Y0164622
X0345122
Y0168559
X0349059
X0352996
X0353Y01645
Y0160689
X0352996Y0156748
Y0152811
X0349059
X0349Y01565
X0345
X0345122Y0152811
X03491Y01449
X0352996Y0144937
Y0137063
Y0133126
Y0129189
X0349059
X0345122
X0341185
X0337248
X0333311
X0329374
X0325437
Y0125252
X0329374
X0333311
X0337248
Y0121315
X0333311
X0329374Y0117378
X0337248
X0341185
Y0121315
Y0125252
X0345Y0125
X0349059Y0121315
Y0117378
X0352996
X0364807
Y0121315
X036087
Y0125252
Y0129189
X0356933
Y0133126
Y0137063
X036087
X0364807Y0133126
X03655Y0131
X03684Y01331
X036845Y012505
X03801Y01254
X03804Y0121
X03805Y01165
X03895Y0119
X0392Y01155
X038645Y014895
X038Y01505
X038155Y015495
X039Y01565
X03925Y0166
X0392Y01685
X03875
X0385
X03825
X03925Y01725
Y0192
X039Y019
X03875Y0188
X0385Y0186
X03825Y0184
X038Y0182
X03775Y018
X03754Y01805
X0378Y01865
X037925Y018925
X03795Y0192
X03825Y01975
X0364807Y0184307
X036087Y018037
X0356933
X0352996
Y0184307
X03525Y019
X0345Y01875
X0341185Y0184307
Y018037
X0337248
X03372Y0184259
X0329374Y0184307
Y018037
Y0176433
Y0172496
X0325437
Y0176433
Y0168559
X0329374
Y0164622
X0333311
X0337248
X0341185
Y0168559
X0345122Y0172496
X0349Y01725
X0349059Y0176433
X0345122
X0349059Y018037
X0353Y0176437
X0360937Y01765
X0361Y01725
X0364807Y0172496
X036087Y0168559
X0356933Y0164622
X0357Y0160752
Y0156815
Y0152878
X036087Y0156748
X0365283Y0158716
X0369Y01585
X0349Y0137122
X0349059Y0133126
X0341185
Y0137063
X0337248
Y0133126
X0333311
Y0137063
X0329374
X0325437
Y0133126
X0329374
X03295Y0141
X03335
X03215
Y0145
X0317563Y0144937
X0313626
Y0148874
X0309689
X0305752
Y0144937
X0309689
X03095Y0141
X03135
X03175
X0317563Y0137063
Y0133126
X0313626
Y0137063
X0309689
Y0133126
X0305752
Y0137063
X0301815
Y0133126
Y0129189
X0305752
X0309689
X0313626
Y0125252
X0317563
Y0129189
X03215Y0129
Y0133
Y0137
Y0149
Y0153
X0317563Y0152811
Y0156748
X0313626
Y0152811
X0309689
X0305752
Y0156748
X0309689
Y0160685
X0305752
X03057Y01685
Y01724
Y01763
X03018Y01764
Y01725
X0301815Y0168559
Y0164622
Y0156748
Y0152811
Y0148874
Y0144937
X0317563Y0148874
Y0160685
X0313626
Y0168559
X0317563
Y0172496
Y0176433
X0313626
Y0172496
X0309689
Y0176433
Y0168559
X0305752Y018037
X03017Y01804
X03016Y01844
X030155Y018745
X0302Y0202
X0305Y02055
X03095Y0207
X0308Y021
X03154Y02102
X03155Y02075
Y02045
Y0202
X0323Y0203
Y02055
X03195Y02085
X0326Y0209
X033Y02085
Y0203
X032945Y01989
X03395Y01985
X03425Y02005
X0345Y02
X03365Y02085
X0334Y0213
X03315
X0328
X0332Y02185
X0337
X03415Y0221
X0339Y0225
X033855Y02285
Y0231123
X033111Y023211
X0324Y0233024
Y0230071
X0321Y0230118
Y0233071
X0323976Y0236
X0323929Y0242
X0320976
X0321Y0244976
Y0247929
X0324Y0247976
Y0250929
X0323976Y0245
X0327Y02425
X0315Y0242
Y0245
Y0248
Y0250882
X0312Y0251
Y0245
Y0242
Y0236
X0315
Y0233
Y023
X0312
Y0233
X0302
X03Y0231
X0304Y0229
X03Y0224
X03025Y0221
X0307Y02225
X0313
X0318669Y0222831
X032Y02245
X03225
X03325
X03374Y0239
X0346079Y0238579
X0345Y02405
Y02445
Y02475
X035195Y025995
X03505Y0262
X0353Y0264
X0348Y0266
X03425Y0268
X0339
X03305Y02625
X0329Y0264
X0322Y0266
X03195
X03165Y02695
X03135
X0311732Y0260232
X0304Y0258
X0303827Y0254327
X0304Y02485
X0299
X02994Y02685
X03215Y02575
X031325Y021385
X03155Y0185
X0331Y01885
X03325Y019
X0333311Y0176433
Y0172496
Y0168559
X0337248Y0172496
Y0176433
X0348Y0219
X03535Y0216
X03545Y0214
X03575Y02141
X0372484Y0242516
X04076Y01402
X0426Y013
X0431Y0132
X0439Y01345
X04434Y01347
X0445Y0147
X0443Y0149
X04475Y01525
X045Y01605
X0453Y01715
X04545Y0129
X0317563Y0121315
X0313626
X0309689
X0305752
Y0125252
X0309689
X0301815Y0121315
Y0117378
X0313626
X0317563
X0297878Y0121315
X0293941
Y0117378
X0290004
X0286067
Y0121315
X0290004
X028213
X0278193
Y0117378
X0274Y01215
X027Y01235
X0267
X02635Y01255
X02625Y0133
X0259
Y0137
X02564Y01372
X0263Y0137
X0277594Y0135094
X0286067Y0137063
X0290004
Y0133126
X0286067
Y0129189
X0290004
X0293941Y0133126
Y0137063
X0297878
Y0133126
Y0144937
Y0148874
Y0152811
Y0156748
Y0160685
Y0164622
Y0168559
Y0172496
X02982Y01764
X02939
X029Y01763
X0290004Y0168559
Y0164622
X0286189Y01645
X0286067Y0160685
X0290004
Y0156748
Y0152811
X0286067
Y0156748
X028213
X0282Y0160685
X0278193Y0160685
X0274Y01605
Y01565
X02665
X0264
X026Y01525
X02685Y01515
X0273Y0147
X02775
X0286067Y0148874
X0290004
Y0144937
X0286067
X0293941
Y0148874
Y0152811
Y0156748
Y0160685
Y0164622
X0286Y01685
X028213Y0168559
Y0172496
X0278193
X02745Y01685
Y016605
X02744Y01803
X0278193Y0184307
X02815Y0188
X028213Y018037
X0290004Y0184307
X0293941Y018037
X0288Y01915
Y01945
Y01975
X0294Y02
X0296Y0205
X0298Y02075
Y02125
X02925Y02105
X029Y02145
X029045Y0222831
X02776Y02251
X02715Y0227
X02685Y0231
X02675Y02365
X02655Y02405
X0264Y02465
X0262Y02485
X02605Y02505
X02585Y02525
X02565Y0254
X02545Y0256
X0253Y02585
X02499Y0253
X0228Y02505
X02075Y02425
X02035Y0241
X01935Y0238
X01885Y02595
X0147Y0262
Y0266
X01805Y0206
X02125Y02125
X0229Y02115
X02317Y0191592
X0228Y0184
X0226Y0168
X023Y0165
X0235
X02325Y01625
X023Y016
X02275Y01575
X0225Y0155
X022Y01525
Y01485
Y01375
Y01325
X02275Y01225
X023Y012
X0235Y01179
X024Y01215
X02425Y0137
Y01525
X024Y015
X0248
X02515
X0248Y01535
X02485Y016
X02535Y01595
X0257Y0163
X026Y01675
X02485Y0169
X024995Y01706
X02485Y01725
X02163Y01746
X02091
X02125Y0165
X02075Y01625
X021Y016
X02143Y01554
X0202Y01525
X02025Y0145
X01979Y01434
X0201Y0137
X0205
X01875Y01375
Y01475
X0175Y01375
Y01325
Y0125
X02Y01205
X02625Y01155
X028213Y0125252
X02747Y01901
X0275Y02019
X02815Y02021
X0277016Y0242516
X02945Y0239
X02983Y02382
X0298Y02345
X0297Y0245
X0292Y026
X029045Y026355
X02905Y0266
X0272Y02624
X014Y01325
Y0128
X01425Y02725
T02
X018Y02025
X0133Y0211
T03
X0008756Y0099156
X0074Y00815
X00744Y00711
X007Y0066
X00921Y0077
X0096Y00895
X01065Y0026
X01325Y003
X01675Y00375
X0181Y00535
X02125Y00845
X02365Y0067
X0236Y00625
X0263Y0061
X0282974Y0030374
X0303474Y0039626
X0351Y0021
X0392Y00205
X039Y0009
X0405Y00095
Y00575
X0417Y0063
X04325Y00625
X04405Y00835
X04555Y0065
X0526Y00675
X053Y00845
X05295Y0113
X05475Y01315
X05595Y0137
X0559Y01515
X05205Y01855
X05295Y0205
X04795Y0185
X0465
X04665Y01595
Y0155
X0472Y01375
X04875Y01175
X049Y01642
Y01668
X04515Y01805
X04545Y0188
X04455
X040825Y017225
X0414Y01565
X0408Y01475
X04385Y01305
X0442Y0129
X0444Y01175
X04375
X04545Y0132
X0368Y02475
X02755Y0215
X0243Y0206
X02095Y01675
X01905Y0172
X01555Y0193
Y02055
X0192Y02505
T04
X0167Y0194
X0167Y0202
X0216Y02125
X0231Y0206
X02188Y01665
X0103Y02535
T05
X03814Y00284
X0399Y0057
X04745Y0095
Y0099
X03819Y02123
X0223Y01715
X01825Y0242
X01675Y0263
X00725Y0228
T06
X01425Y004
X03043Y00803
X0327Y00875
X05125Y012
X05425Y01705
X02285Y01959
X02076Y02049
X02005Y0211
X02021Y0192
X0184127Y0188873
X01846Y01825
X01716Y01867
X01817Y02294
X02234Y02289
X0294Y02635
T07
X00785Y00355
Y00435
X00945
X01015
Y00345
X00945
X0094Y00655
X01195Y0062
X0112Y00535
X0119Y008
X0129Y0092
X00625Y0093
X005115Y010345
X0264Y0022
X03775Y00145
X0401Y0027
X0384Y0048
X04275Y00475
X0428Y00405
X04625Y0035
X04666Y00489
X04808Y00616
X04914Y00716
X04922Y00828
X04923Y00956
X0512Y0102
X0545Y01065
X0566Y011
Y01
Y009
Y008
Y007
Y004
Y003
X0529Y0028
X0532229Y00381
X0536Y005
X05135Y0059
X0504Y0049
X04955Y00385
X04865Y0028
X04996Y01179
X05205Y01385
Y01445
X05265
X05325
Y01385
X05265
Y01505
X05325
X05205
X0495Y017
Y018
Y019
Y02
X0505
X0515
X0525
X04792Y02163
X047Y02125
X0481Y023
X0487
X0559Y01655
Y01575
X0566Y01275
Y012
X0549Y0124
X0435Y02075
X0446Y023
X0453
X0276Y02655
X02355Y0267
X02165
X0205Y02625
X0151Y0258
X01575Y02305
Y0214
X02145Y01935
X0096Y023
X00935Y0255
X0086Y02525
X0079031Y0257
X00655Y024
X0071Y02235
X00375Y0231
Y02445
Y027
X0077Y0141
X009655Y013555
X006Y0272
X0055Y02715
T08
X00378Y0076
Y0085764
Y0105449
Y0115213
Y0124976
T09
X0008Y0065
X0156Y00615
Y00715
Y0086
X0166Y01085
X0171Y0018
X0181
X0191
X0201
X0211
X0221
X0231
Y0008
X0221
X0211
X0201
X0191
X0181
X0171
X0161Y0018
X0238Y003
X02644Y00838
X02744
X02844
X02944
Y00738
X02844
X02744
X0411Y0021
X04615Y02555
X0498Y0222
X052Y02125
X0551Y0195
Y0185
X05635
Y0195
X04195Y02175
X0389Y0227
X04115Y02555
X04215
X04315
X04415
X04515
Y02655
X04415
X04315
X04215
X04115
X0418Y01195
X02425Y0235
Y0247
X0263Y02655
X01225Y02525
X00785Y0203
Y0193
Y0183
Y0173
Y0163
X00685Y0158
Y0168
Y0178
Y0188
Y0198
X0007Y0126
T11
X0188705Y0047142
Y0064858
X0214295
Y0047142
T12
X0027437Y0154398
Y0164398
Y0196602
Y0206602
T13
X01205Y0016
Y0026
Y0036
Y0046
Y0166
Y0176
Y0186
Y0196
Y0206
T15
X00703Y00593
X0169Y006
X01675Y00725
X0336Y00125
X04798Y00516
X04745Y0084
X04635Y0079
X04745Y011
X05029Y00889
X04635Y01145
X04665Y01425
Y01725
X04745Y01985
X0486Y0204
X05127Y01861
X05425Y0208
Y0219
Y02305
X03878Y02541
X02205Y02455
X01572Y01646
X0166Y0123
X0099Y0143
X00935Y01925
X0049Y02307
X0039Y0138
X0008
T16
X0055508Y0150008
Y0210992
T18
X0055Y00525
X0555
Y02525
X0055
T19
X00435Y0158
Y0203
M30
