M48
;Layer_Color=9474304
;FILE_FORMAT=2:5
INCH,LZ
;TYPE=PLATED
T10F00S00C0.03543
T14F00S00C0.04331
T17F00S00C0.06299
;TYPE=NON_PLATED
%
T10
X0008Y0075
X0166Y0086
X0156Y01085
Y00515
X0161Y0008
X0238Y004
X02644Y00738
X0401Y0021
X0498Y0212
X051Y02125
X0551Y0175
X05635
X04615Y02655
X04095Y02175
X0389Y0217
X0408Y01195
X02325Y0235
Y0247
X0253Y02655
X01225Y02425
X0007Y0116
T14
X01205Y0216
T17
X0044Y0006996
X0055811Y00255
X0032189
M30
