<?xml version="1.0" encoding="UTF-8" standalone="no"?>
<!-- Created with Inkscape (http://www.inkscape.org/) -->

<svg
   xmlns:dc="http://purl.org/dc/elements/1.1/"
   xmlns:cc="http://creativecommons.org/ns#"
   xmlns:rdf="http://www.w3.org/1999/02/22-rdf-syntax-ns#"
   xmlns:svg="http://www.w3.org/2000/svg"
   xmlns="http://www.w3.org/2000/svg"
   xmlns:sodipodi="http://sodipodi.sourceforge.net/DTD/sodipodi-0.dtd"
   xmlns:inkscape="http://www.inkscape.org/namespaces/inkscape"
   width="744.09448819"
   height="1052.3622047"
   id="svg4059"
   version="1.1"
   inkscape:version="0.48.2 r9819"
   sodipodi:docname="新文件 8">
  <defs
     id="defs4061" />
  <sodipodi:namedview
     id="base"
     pagecolor="#ffffff"
     bordercolor="#666666"
     borderopacity="1.0"
     inkscape:pageopacity="0.0"
     inkscape:pageshadow="2"
     inkscape:zoom="5.6"
     inkscape:cx="332.86735"
     inkscape:cy="796.61924"
     inkscape:document-units="px"
     inkscape:current-layer="layer1"
     showgrid="true"
     inkscape:window-width="1854"
     inkscape:window-height="1176"
     inkscape:window-x="66"
     inkscape:window-y="24"
     inkscape:window-maximized="1">
    <inkscape:grid
       type="xygrid"
       id="grid4067" />
  </sodipodi:namedview>
  <metadata
     id="metadata4064">
    <rdf:RDF>
      <cc:Work
         rdf:about="">
        <dc:format>image/svg+xml</dc:format>
        <dc:type
           rdf:resource="http://purl.org/dc/dcmitype/StillImage" />
        <dc:title></dc:title>
      </cc:Work>
    </rdf:RDF>
  </metadata>
  <g
     inkscape:label="Layer 1"
     inkscape:groupmode="layer"
     id="layer1">
    <path
       sodipodi:type="arc"
       style="fill:#e6e6e6;stroke:#1e1e1e;stroke-width:0.30000000999999998;stroke-linecap:round;stroke-linejoin:round;stroke-miterlimit:4;stroke-opacity:1;stroke-dasharray:none;stroke-dashoffset:0;fill-opacity:0.39215687"
       id="path4071"
       sodipodi:cx="262.5"
       sodipodi:cy="249.86218"
       sodipodi:rx="22.5"
       sodipodi:ry="22.5"
       d="m 285,249.86218 a 22.5,22.5 0 1 1 -45,0 22.5,22.5 0 1 1 45,0 z"
       transform="translate(0,-2.5)" />
    <path
       sodipodi:type="arc"
       style="fill:none;stroke:#000000;stroke-width:1;stroke-linecap:round;stroke-linejoin:round;stroke-miterlimit:4;stroke-opacity:1;stroke-dasharray:none;stroke-dashoffset:0"
       id="path4069"
       sodipodi:cx="262.5"
       sodipodi:cy="244.86218"
       sodipodi:rx="2.5"
       sodipodi:ry="2.5"
       d="m 265,244.86218 a 2.5,2.5 0 1 1 -5,0 2.5,2.5 0 1 1 5,0 z"
       transform="translate(0,2.5)" />
    <path
       sodipodi:type="arc"
       style="fill:none;stroke:#000000;stroke-width:1;stroke-linecap:round;stroke-linejoin:round;stroke-miterlimit:4;stroke-opacity:1;stroke-dasharray:none;stroke-dashoffset:0"
       id="path4069-1"
       sodipodi:cx="262.5"
       sodipodi:cy="244.86218"
       sodipodi:rx="2.5"
       sodipodi:ry="2.5"
       d="m 265,244.86218 a 2.5,2.5 0 1 1 -5,0 2.5,2.5 0 1 1 5,0 z"
       transform="translate(20,22.5)" />
    <path
       sodipodi:type="arc"
       style="fill:none;stroke:#000000;stroke-width:1;stroke-linecap:round;stroke-linejoin:round;stroke-miterlimit:4;stroke-opacity:1;stroke-dasharray:none;stroke-dashoffset:0"
       id="path4069-4"
       sodipodi:cx="262.5"
       sodipodi:cy="244.86218"
       sodipodi:rx="2.5"
       sodipodi:ry="2.5"
       d="m 265,244.86218 a 2.5,2.5 0 1 1 -5,0 2.5,2.5 0 1 1 5,0 z"
       transform="translate(20,2.5)" />
    <path
       sodipodi:type="arc"
       style="fill:none;stroke:#000000;stroke-width:1;stroke-linecap:round;stroke-linejoin:round;stroke-miterlimit:4;stroke-opacity:1;stroke-dasharray:none;stroke-dashoffset:0"
       id="path4069-9"
       sodipodi:cx="262.5"
       sodipodi:cy="244.86218"
       sodipodi:rx="2.5"
       sodipodi:ry="2.5"
       d="m 265,244.86218 a 2.5,2.5 0 1 1 -5,0 2.5,2.5 0 1 1 5,0 z"
       transform="translate(0,22.5)" />
    <path
       sodipodi:type="arc"
       style="fill:none;stroke:#000000;stroke-width:1;stroke-linecap:round;stroke-linejoin:round;stroke-miterlimit:4;stroke-opacity:1;stroke-dasharray:none;stroke-dashoffset:0"
       id="path4069-2"
       sodipodi:cx="262.5"
       sodipodi:cy="244.86218"
       sodipodi:rx="2.5"
       sodipodi:ry="2.5"
       d="m 265,244.86218 a 2.5,2.5 0 1 1 -5,0 2.5,2.5 0 1 1 5,0 z"
       transform="translate(0,62.5)" />
    <path
       sodipodi:type="arc"
       style="fill:none;stroke:#000000;stroke-width:1;stroke-linecap:round;stroke-linejoin:round;stroke-miterlimit:4;stroke-opacity:1;stroke-dasharray:none;stroke-dashoffset:0"
       id="path4069-2-470"
       sodipodi:cx="262.5"
       sodipodi:cy="244.86218"
       sodipodi:rx="2.5"
       sodipodi:ry="2.5"
       d="m 265,244.86218 a 2.5,2.5 0 1 1 -5,0 2.5,2.5 0 1 1 5,0 z"
       transform="translate(20,62.5)" />
    <path
       sodipodi:type="arc"
       style="fill:none;stroke:#000000;stroke-width:1;stroke-linecap:round;stroke-linejoin:round;stroke-miterlimit:4;stroke-opacity:1;stroke-dasharray:none;stroke-dashoffset:0"
       id="path4069-2-5"
       sodipodi:cx="262.5"
       sodipodi:cy="244.86218"
       sodipodi:rx="2.5"
       sodipodi:ry="2.5"
       d="m 265,244.86218 a 2.5,2.5 0 1 1 -5,0 2.5,2.5 0 1 1 5,0 z"
       transform="translate(60,2.5)" />
    <path
       sodipodi:type="arc"
       style="fill:none;stroke:#000000;stroke-width:1;stroke-linecap:round;stroke-linejoin:round;stroke-miterlimit:4;stroke-opacity:1;stroke-dasharray:none;stroke-dashoffset:0"
       id="path4069-2-8"
       sodipodi:cx="262.5"
       sodipodi:cy="244.86218"
       sodipodi:rx="2.5"
       sodipodi:ry="2.5"
       d="m 265,244.86218 a 2.5,2.5 0 1 1 -5,0 2.5,2.5 0 1 1 5,0 z"
       transform="translate(60,22.5)" />
    <path
       sodipodi:type="arc"
       style="fill:none;stroke:#000000;stroke-width:1;stroke-linecap:round;stroke-linejoin:round;stroke-miterlimit:4;stroke-opacity:1;stroke-dasharray:none;stroke-dashoffset:0"
       id="path4069-2-58"
       sodipodi:cx="262.5"
       sodipodi:cy="244.86218"
       sodipodi:rx="2.5"
       sodipodi:ry="2.5"
       d="m 265,244.86218 a 2.5,2.5 0 1 1 -5,0 2.5,2.5 0 1 1 5,0 z"
       transform="translate(60,62.5)" />
    <path
       sodipodi:type="arc"
       style="fill:none;stroke:#000000;stroke-width:1;stroke-linecap:round;stroke-linejoin:round;stroke-miterlimit:4;stroke-opacity:1;stroke-dasharray:none;stroke-dashoffset:0"
       id="path4069-2-37"
       sodipodi:cx="262.5"
       sodipodi:cy="244.86218"
       sodipodi:rx="2.5"
       sodipodi:ry="2.5"
       d="m 265,244.86218 a 2.5,2.5 0 1 1 -5,0 2.5,2.5 0 1 1 5,0 z"
       transform="translate(0,-17.5)" />
    <path
       sodipodi:type="arc"
       style="fill:none;stroke:#000000;stroke-width:1;stroke-linecap:round;stroke-linejoin:round;stroke-miterlimit:4;stroke-opacity:1;stroke-dasharray:none;stroke-dashoffset:0"
       id="path4069-2-1"
       sodipodi:cx="262.5"
       sodipodi:cy="244.86218"
       sodipodi:rx="2.5"
       sodipodi:ry="2.5"
       d="m 265,244.86218 a 2.5,2.5 0 1 1 -5,0 2.5,2.5 0 1 1 5,0 z"
       transform="translate(-20,2.5)" />
    <path
       sodipodi:type="arc"
       style="fill:none;stroke:#000000;stroke-width:1;stroke-linecap:round;stroke-linejoin:round;stroke-miterlimit:4;stroke-opacity:1;stroke-dasharray:none;stroke-dashoffset:0"
       id="path4069-2-38"
       sodipodi:cx="262.5"
       sodipodi:cy="244.86218"
       sodipodi:rx="2.5"
       sodipodi:ry="2.5"
       d="m 265,244.86218 a 2.5,2.5 0 1 1 -5,0 2.5,2.5 0 1 1 5,0 z"
       transform="translate(-20,22.5)" />
    <path
       sodipodi:type="arc"
       style="fill:none;stroke:#000000;stroke-width:1;stroke-linecap:round;stroke-linejoin:round;stroke-miterlimit:4;stroke-opacity:1;stroke-dasharray:none;stroke-dashoffset:0"
       id="path4069-2-9"
       sodipodi:cx="262.5"
       sodipodi:cy="244.86218"
       sodipodi:rx="2.5"
       sodipodi:ry="2.5"
       d="m 265,244.86218 a 2.5,2.5 0 1 1 -5,0 2.5,2.5 0 1 1 5,0 z"
       transform="translate(-20,-17.5)" />
    <path
       sodipodi:type="arc"
       style="fill:none;stroke:#000000;stroke-width:1;stroke-linecap:round;stroke-linejoin:round;stroke-miterlimit:4;stroke-opacity:1;stroke-dasharray:none;stroke-dashoffset:0"
       id="path4069-2-55"
       sodipodi:cx="262.5"
       sodipodi:cy="244.86218"
       sodipodi:rx="2.5"
       sodipodi:ry="2.5"
       d="m 265,244.86218 a 2.5,2.5 0 1 1 -5,0 2.5,2.5 0 1 1 5,0 z"
       transform="translate(20,-17.5)" />
    <path
       sodipodi:type="arc"
       style="fill:none;stroke:#000000;stroke-width:1;stroke-linecap:round;stroke-linejoin:round;stroke-miterlimit:4;stroke-opacity:1;stroke-dasharray:none;stroke-dashoffset:0"
       id="path4069-2-6"
       sodipodi:cx="262.5"
       sodipodi:cy="244.86218"
       sodipodi:rx="2.5"
       sodipodi:ry="2.5"
       d="m 265,244.86218 a 2.5,2.5 0 1 1 -5,0 2.5,2.5 0 1 1 5,0 z"
       transform="translate(60,-17.5)" />
    <path
       sodipodi:type="arc"
       style="fill:none;stroke:#000000;stroke-width:1;stroke-linecap:round;stroke-linejoin:round;stroke-miterlimit:4;stroke-opacity:1;stroke-dasharray:none;stroke-dashoffset:0"
       id="path4069-2-31"
       sodipodi:cx="262.5"
       sodipodi:cy="244.86218"
       sodipodi:rx="2.5"
       sodipodi:ry="2.5"
       d="m 265,244.86218 a 2.5,2.5 0 1 1 -5,0 2.5,2.5 0 1 1 5,0 z"
       transform="translate(-20,62.5)" />
    <text
       xml:space="preserve"
       style="font-size:8px;font-style:normal;font-weight:normal;line-height:125%;letter-spacing:0px;word-spacing:0px;fill:#000000;fill-opacity:1;stroke:none;font-family:Sans"
       x="257"
       y="254.36218"
       id="text4932"
       sodipodi:linespacing="125%"><tspan
         sodipodi:role="line"
         id="tspan4934"
         x="257"
         y="254.36218"
         style="font-size:4px">(<tspan
   style="font-style:italic;-inkscape-font-specification:Sans Italic"
   id="tspan5034">k, w</tspan>)</tspan></text>
    <text
       xml:space="preserve"
       style="font-size:8px;font-style:normal;font-weight:normal;line-height:125%;letter-spacing:0px;word-spacing:0px;fill:#000000;fill-opacity:1;stroke:none;font-family:Sans"
       x="254"
       y="275.36218"
       id="text4932-2"
       sodipodi:linespacing="125%"><tspan
         sodipodi:role="line"
         id="tspan4934-2"
         x="254"
         y="275.36218"
         style="font-size:4px">(<tspan
   style="font-style:italic;-inkscape-font-specification:Sans Italic"
   id="tspan5032">k+1, w</tspan>)</tspan></text>
    <text
       xml:space="preserve"
       style="font-size:8px;font-style:normal;font-weight:normal;line-height:125%;letter-spacing:0px;word-spacing:0px;fill:#000000;fill-opacity:1;stroke:none;font-family:Sans"
       x="273.92673"
       y="254.36218"
       id="text4932-2-1"
       sodipodi:linespacing="125%"><tspan
         sodipodi:role="line"
         id="tspan4934-2-9"
         x="273.92673"
         y="254.36218"
         style="font-size:4px">(<tspan
   style="font-style:italic;-inkscape-font-specification:Sans Italic"
   id="tspan5036">k, w+1</tspan>)</tspan></text>
    <path
       style="fill:none;stroke:#000000;stroke-width:1;stroke-linecap:butt;stroke-linejoin:miter;stroke-opacity:1;stroke-miterlimit:4;stroke-dasharray:1,2;stroke-dashoffset:0"
       d="m 295,252.36218 c 15,0 15,0 15,0"
       id="path4978"
       inkscape:connector-curvature="0" />
    <path
       style="fill:none;stroke:#000000;stroke-width:1;stroke-linecap:butt;stroke-linejoin:miter;stroke-opacity:1;stroke-miterlimit:4;stroke-dasharray:1,2;stroke-dashoffset:0"
       d="m 265,282.36218 c 0,15 0,15 0,15"
       id="path4980"
       inkscape:connector-curvature="0" />
    <path
       style="fill:none;stroke:#000000;stroke-width:1;stroke-linecap:butt;stroke-linejoin:miter;stroke-opacity:1;stroke-miterlimit:4;stroke-dasharray:1,2;stroke-dashoffset:0"
       d="m 286,271.36218 c 25.99999,26 25.99999,26 25.99999,26"
       id="path4982"
       inkscape:connector-curvature="0" />
    <text
       xml:space="preserve"
       style="font-size:8px;font-style:normal;font-weight:normal;line-height:125%;letter-spacing:0px;word-spacing:0px;fill:#000000;fill-opacity:1;stroke:none;font-family:Sans"
       x="316"
       y="315.36218"
       id="text4932-2-8"
       sodipodi:linespacing="125%"><tspan
         sodipodi:role="line"
         id="tspan4934-2-90"
         x="316"
         y="315.36218"
         style="font-size:4px">(K, W)</tspan></text>
    <text
       xml:space="preserve"
       style="font-size:8px;font-style:normal;font-weight:normal;line-height:125%;letter-spacing:0px;word-spacing:0px;fill:#000000;fill-opacity:1;stroke:none;font-family:Sans"
       x="257"
       y="315.36218"
       id="text4932-2-8-6"
       sodipodi:linespacing="125%"><tspan
         sodipodi:role="line"
         id="tspan4934-2-90-9"
         x="257"
         y="315.36218"
         style="font-size:4px">(K, <tspan
   style="font-style:italic;-inkscape-font-specification:Sans Italic"
   id="tspan5026">w</tspan>)</tspan></text>
    <text
       xml:space="preserve"
       style="font-size:8px;font-style:normal;font-weight:normal;line-height:125%;letter-spacing:0px;word-spacing:0px;fill:#000000;fill-opacity:1;stroke:none;font-family:Sans"
       x="317"
       y="254.36218"
       id="text4932-1"
       sodipodi:linespacing="125%"><tspan
         sodipodi:role="line"
         id="tspan4934-6"
         x="317"
         y="254.36218"
         style="font-size:4px">(<tspan
   style="font-style:italic;-inkscape-font-specification:Sans Italic"
   id="tspan5034-5">k, </tspan>W)</tspan></text>
  </g>
</svg>
