%FSLAX25Y25*%
%MOIN*%
G70*
G01*
G75*
G04 Layer_Physical_Order=3*
G04 Layer_Color=16440176*
%ADD10C,0.01000*%
%ADD11R,0.02362X0.01969*%
%ADD12R,0.01969X0.02362*%
%ADD13R,0.04331X0.05512*%
%ADD14R,0.05118X0.02165*%
%ADD15R,0.03150X0.03543*%
%ADD16R,0.02362X0.09843*%
%ADD17R,0.07874X0.21654*%
%ADD18O,0.02362X0.08465*%
%ADD19R,0.03543X0.03150*%
%ADD20R,0.03937X0.04724*%
%ADD21R,0.02165X0.05118*%
%ADD22O,0.06496X0.01181*%
%ADD23O,0.01181X0.06496*%
%ADD24R,0.08858X0.01969*%
%ADD25R,0.15748X0.08071*%
%ADD26R,0.05512X0.04331*%
%ADD27R,0.01575X0.03347*%
%ADD28C,0.01969*%
%ADD29O,0.06693X0.01181*%
%ADD30R,0.01772X0.08268*%
%ADD31O,0.01772X0.08268*%
%ADD32O,0.07087X0.01378*%
%ADD33R,0.01181X0.02953*%
%ADD34R,0.01181X0.03347*%
%ADD35R,0.02953X0.01181*%
%ADD36R,0.03347X0.01181*%
%ADD37R,0.21260X0.21260*%
%ADD38R,0.11024X0.03937*%
%ADD39R,0.03150X0.01181*%
%ADD40R,0.04921X0.15748*%
%ADD41C,0.00500*%
%ADD42C,0.00800*%
%ADD43C,0.01200*%
%ADD44C,0.01190*%
%ADD45C,0.01600*%
%ADD46C,0.02500*%
%ADD47C,0.03000*%
%ADD48C,0.02000*%
%ADD49C,0.01500*%
%ADD50C,0.05906*%
%ADD51R,0.05906X0.05906*%
%ADD52R,0.08661X0.08661*%
%ADD53C,0.04921*%
%ADD54C,0.06299*%
%ADD55C,0.06614*%
%ADD56R,0.05906X0.05906*%
%ADD57C,0.08661*%
%ADD58C,0.05709*%
%ADD59C,0.02000*%
%ADD60C,0.01600*%
%ADD61C,0.03200*%
%ADD62C,0.02600*%
%ADD63C,0.02400*%
%ADD64C,0.15000*%
%ADD65C,0.01800*%
%ADD66C,0.02200*%
%ADD67C,0.03600*%
%ADD68C,0.03000*%
%ADD69C,0.02900*%
%ADD70C,0.00600*%
D10*
X290450Y222831D02*
X290531D01*
X187063Y66500D02*
X188705Y64858D01*
D41*
X249000Y254000D02*
X249950Y253050D01*
X452750Y171250D02*
X453000Y171000D01*
X443500Y180500D02*
X452750Y171250D01*
X299900Y194700D02*
X315400Y210200D01*
X299900Y178300D02*
Y194700D01*
X298200Y176600D02*
X299900Y178300D01*
X298200Y176400D02*
Y176600D01*
X313250Y213850D02*
X313942D01*
X317600Y210192D01*
X319113Y174613D02*
Y208113D01*
X319500Y208500D01*
X317563Y173063D02*
X319113Y174613D01*
X320450Y207258D02*
X322500Y209308D01*
X320450Y188050D02*
Y207258D01*
Y188050D02*
X320500Y188000D01*
X321450Y203950D02*
X323000Y205500D01*
X321450Y201580D02*
Y203950D01*
Y201580D02*
X321887Y201143D01*
X317600Y180400D02*
Y210192D01*
X315500Y178300D02*
X317600Y180400D01*
X322500Y209308D02*
Y214500D01*
X324450Y208358D02*
Y213450D01*
Y208358D02*
X324550Y208258D01*
X324450Y213450D02*
X326450Y215450D01*
X307700Y196700D02*
X315500Y204500D01*
X307700Y174400D02*
Y196700D01*
X315500Y207300D02*
Y207500D01*
X303800Y195600D02*
X315500Y207300D01*
X303800Y174500D02*
Y195600D01*
X273950Y169050D02*
X274500Y168500D01*
X259358Y169050D02*
X273950D01*
X259308Y169000D02*
X259358Y169050D01*
X248500Y169000D02*
X259308D01*
X206550Y135450D02*
X254650D01*
X256400Y137200D01*
X244500Y139000D02*
X261000D01*
X222500Y140000D02*
X274000D01*
X242500Y137000D02*
X244500Y139000D01*
X261000D02*
X263000Y137000D01*
X220000Y137500D02*
X222500Y140000D01*
X274000D02*
X275000Y139000D01*
X245700Y70000D02*
X444500D01*
X301800Y172500D02*
X303800Y174500D01*
X305700Y172400D02*
X307700Y174400D01*
X311700Y198200D02*
X315500Y202000D01*
X311700Y172315D02*
Y198200D01*
X309885Y170500D02*
X311700Y172315D01*
X307700Y170500D02*
X309885D01*
X305700Y168500D02*
X307700Y170500D01*
X459900Y130500D02*
X500500D01*
X456000D02*
X459900D01*
X453500Y136900D02*
X459900Y130500D01*
X408708Y136900D02*
X453500D01*
X406608Y139000D02*
X408708Y136900D01*
X355000Y139000D02*
X406608D01*
X349100Y144900D02*
X355000Y139000D01*
X377126Y148874D02*
X385200Y140800D01*
X391500D01*
X347148Y146848D02*
X362852D01*
X366150Y143550D01*
X345122Y148874D02*
X347148Y146848D01*
X252000Y45000D02*
X356500D01*
X250000Y47000D02*
X252000Y45000D01*
X235000Y47000D02*
X250000D01*
X254000Y48000D02*
X362000D01*
X250000Y52000D02*
X254000Y48000D01*
X239500Y52000D02*
X250000D01*
X234000Y48000D02*
X235000Y47000D01*
X226000Y170900D02*
X234700Y179600D01*
X226000Y168000D02*
Y170900D01*
X234700Y179600D02*
X273700D01*
X274400Y180300D01*
X249950Y170600D02*
X250050Y170500D01*
X261900Y63200D02*
X348200D01*
X259450Y60750D02*
X261900Y63200D01*
X226650Y60750D02*
X259450D01*
X348200Y63200D02*
X350700Y65700D01*
X222800Y56900D02*
X226650Y60750D01*
X350700Y65700D02*
X374300D01*
X333400Y89000D02*
X349700D01*
X351100Y90400D01*
X357500Y92700D02*
X358750Y93950D01*
Y95850D01*
X355000Y99600D02*
X358750Y95850D01*
X355000Y99600D02*
Y103563D01*
X351100Y90400D02*
Y103500D01*
X349100Y105500D02*
X351100Y103500D01*
X353100Y107655D02*
Y113300D01*
Y107655D02*
X357000Y103755D01*
X214800Y55000D02*
X347700D01*
X356500Y45000D02*
X360400Y41100D01*
X365700D01*
X368400Y43800D01*
X357000Y100208D02*
Y103755D01*
Y100208D02*
X366808Y90400D01*
X352996Y105567D02*
X355000Y103563D01*
X366808Y90400D02*
X368500D01*
X359000Y100400D02*
X365700Y93700D01*
X359000Y100400D02*
Y103600D01*
X355000Y107600D02*
X359000Y103600D01*
X355000Y107600D02*
Y119000D01*
X362000Y48000D02*
X365000Y45000D01*
Y43500D02*
Y45000D01*
X334500Y51000D02*
X335500Y50000D01*
X380000D01*
X349000Y125000D02*
X355000Y119000D01*
X345000Y125000D02*
X349000D01*
X343000Y123437D02*
X349059Y117378D01*
X343000Y123437D02*
Y138000D01*
X341185Y121315D02*
X347000Y115500D01*
X225000Y65000D02*
X345000D01*
X220000Y60000D02*
X225000Y65000D01*
X180500Y60000D02*
X220000D01*
X171541Y51041D02*
X180500Y60000D01*
X168541Y51041D02*
X171541D01*
X243500Y58000D02*
X243550Y57950D01*
X371450D01*
X372000Y58500D01*
X168500Y51000D02*
X168541Y51041D01*
X446000Y71500D02*
Y88016D01*
X249550Y161050D02*
X269950D01*
X248500Y160000D02*
X249550Y161050D01*
X269950D02*
X272050Y158950D01*
X280265D01*
X282000Y160685D01*
X368000Y179000D02*
Y186500D01*
Y179000D02*
X370000Y177000D01*
X406000D01*
X409500Y180500D01*
X453000Y171000D02*
Y171500D01*
X409500Y180500D02*
X443500D01*
X366500Y188000D02*
X368000Y186500D01*
X357000Y188000D02*
X366500D01*
X355000Y174000D02*
Y186000D01*
X357000Y188000D01*
X353500Y172500D02*
X355000Y174000D01*
X349000Y172500D02*
X353500D01*
X298000Y219500D02*
Y234500D01*
X296000Y207500D02*
Y238100D01*
X297000Y239100D01*
X399000Y209000D02*
Y226000D01*
X379250Y189250D02*
X399000Y209000D01*
X379500Y186500D02*
X401000Y208000D01*
Y224500D01*
X402500Y207600D02*
Y222500D01*
X375400Y180500D02*
X402500Y207600D01*
X188500Y259500D02*
Y269500D01*
X190000Y271000D01*
X247500D01*
X249000Y269500D01*
Y254000D02*
Y269500D01*
X250050Y170500D02*
X284000D01*
X286000Y168500D01*
X284166Y164000D02*
X285216Y162950D01*
X263500Y164000D02*
X284166D01*
X260000Y167500D02*
X263500Y164000D01*
X284252Y162500D02*
X286067Y160685D01*
X257500Y162500D02*
X284252D01*
X285216Y162950D02*
X288332D01*
X290004Y164622D01*
X201000Y137000D02*
X205387Y141387D01*
X220500Y152500D02*
X224550Y148450D01*
X246450D01*
X220000Y152500D02*
X220500D01*
X246450Y148450D02*
X248000Y150000D01*
X220000Y148500D02*
X221500Y147000D01*
X273000D01*
X259000Y133000D02*
X261000Y135000D01*
X272500D01*
X274374Y133126D01*
X254500Y132500D02*
X259000Y137000D01*
X220000Y132500D02*
X254500D01*
X205000Y137000D02*
X206550Y135450D01*
X140000Y132500D02*
X142500Y130000D01*
X260000D01*
X262500Y132500D01*
Y133000D01*
X140000Y128000D02*
X272500D01*
X275500Y131000D01*
X225500Y99500D02*
X287874D01*
X225000Y100000D02*
X225500Y99500D01*
X275000Y139000D02*
X342000D01*
X343000Y138000D01*
X294328Y141387D02*
X297878Y144937D01*
X205387Y141387D02*
X294328D01*
X295693Y123500D02*
X297878Y121315D01*
X280500Y123500D02*
X295693D01*
X280000Y124000D02*
X280500Y123500D01*
X270192Y121500D02*
X272692Y124000D01*
X280000D01*
X240000Y121500D02*
X270192D01*
X202500Y145000D02*
X204500Y143000D01*
X284130D01*
X205000Y162500D02*
Y239500D01*
X203500Y241000D02*
X205000Y239500D01*
Y162500D02*
X207500Y160000D01*
X212500Y198500D02*
Y212500D01*
X210000Y196000D02*
X212500Y198500D01*
X210000Y192500D02*
Y196000D01*
Y192500D02*
X212500Y190000D01*
Y165000D02*
Y190000D01*
X207500Y160000D02*
X210000D01*
X207500Y162500D02*
Y200500D01*
X210000Y112500D02*
X211000Y111500D01*
X291945D01*
X207500Y242500D02*
X210000Y240000D01*
Y203000D02*
Y240000D01*
X207500Y200500D02*
X210000Y203000D01*
X317400Y85300D02*
X317600Y85500D01*
X363000Y170500D02*
X422500D01*
X427050Y165950D01*
X378000Y186500D02*
X379500D01*
X235000Y117900D02*
X263182D01*
X266091Y114991D01*
X288509D01*
X290004Y113496D01*
Y113441D02*
Y113496D01*
X336500Y208500D02*
X337200Y207800D01*
Y184259D02*
Y207800D01*
X313626Y172496D02*
X315500Y174370D01*
Y178300D01*
X297000Y239100D02*
Y245000D01*
X331500Y91500D02*
Y126500D01*
X332000Y127000D01*
X339437D01*
X341185Y125252D01*
X292071Y103500D02*
X293941Y101630D01*
X291945Y111500D02*
X293941Y109504D01*
X330000Y202500D02*
Y203000D01*
X331500Y213000D02*
X333000Y211500D01*
X330016Y163072D02*
X331566Y164622D01*
X333311D01*
X322887Y168917D02*
Y202887D01*
X323887Y170109D02*
Y188113D01*
X325437Y172496D02*
X326987Y174046D01*
X312808Y230000D02*
X315287Y227521D01*
X312000Y230000D02*
X312808D01*
X337414Y228500D02*
X338550D01*
X336435Y227521D02*
X337414Y228500D01*
X315287Y227521D02*
X336435D01*
X341100Y221400D02*
X341500Y221000D01*
X341100Y221400D02*
Y232179D01*
X334730Y238550D02*
X341100Y232179D01*
X322873Y238550D02*
X334730D01*
X320323Y236000D02*
X322873Y238550D01*
X315000Y236000D02*
X320323D01*
X338500Y225500D02*
X339000Y225000D01*
X338500Y225500D02*
Y225921D01*
X340100Y227521D01*
Y231765D01*
X334315Y237550D02*
X340100Y231765D01*
X323287Y237550D02*
X334315D01*
X318737Y233000D02*
X323287Y237550D01*
X315000Y233000D02*
X318737D01*
X338550Y231050D02*
Y231123D01*
X336021Y228521D02*
X338550Y231050D01*
X320405Y228521D02*
X336021D01*
X318926Y230000D02*
X320405Y228521D01*
X315000Y230000D02*
X318926D01*
X321500Y257000D02*
Y257500D01*
X321000Y247929D02*
Y257000D01*
X321500Y257500D01*
X320976Y242000D02*
X321737D01*
X323287Y240450D01*
X322450Y249526D02*
X324000Y247976D01*
X322450Y249526D02*
Y256258D01*
X323050Y256858D01*
Y258142D01*
X316692Y264500D02*
X323050Y258142D01*
X301500Y264500D02*
X316692D01*
X299000Y262000D02*
X301500Y264500D01*
X299000Y248500D02*
Y262000D01*
X323976Y245000D02*
Y245761D01*
X325550Y247334D01*
Y257056D01*
X317106Y265500D02*
X325550Y257056D01*
X301086Y265500D02*
X317106D01*
X297450Y261864D02*
X301086Y265500D01*
X297450Y245450D02*
Y261864D01*
X297000Y245000D02*
X297450Y245450D01*
X323929Y242000D02*
Y242761D01*
X326550Y245382D01*
X301722Y267550D02*
X322642D01*
X294500Y260328D02*
X301722Y267550D01*
X294500Y239000D02*
Y260328D01*
X340858Y219450D02*
X342142D01*
X309000Y232500D02*
X309500Y233000D01*
X312000D01*
X339027Y221281D02*
X340858Y219450D01*
X346079Y219579D02*
Y238579D01*
X344950Y218450D02*
X346079Y219579D01*
X339242Y218450D02*
X344950D01*
X337642Y220050D02*
X339242Y218450D01*
X309450Y220050D02*
X337642D01*
X307000Y222500D02*
X309450Y220050D01*
X298000Y219500D02*
X299000Y218500D01*
X305550Y232550D02*
X315000Y242000D01*
X305550Y224050D02*
Y232550D01*
X302500Y221000D02*
X305550Y224050D01*
X322642Y267550D02*
X326550Y263642D01*
Y245382D02*
Y263642D01*
X347000Y178492D02*
X349059Y176433D01*
X320500Y171000D02*
Y188000D01*
X327318Y163072D02*
X330016D01*
X321887Y168503D02*
Y201143D01*
Y168503D02*
X327318Y163072D01*
X327182Y164622D02*
X329374D01*
X322887Y168917D02*
X327182Y164622D01*
X323887Y170109D02*
X325437Y168559D01*
X317563D02*
X318059D01*
X320500Y171000D01*
X327824Y181920D02*
X329374Y180370D01*
X326500Y179500D02*
X326987Y179013D01*
Y174046D02*
Y179013D01*
X284256Y151000D02*
X286067Y152811D01*
X335450Y240450D02*
X339500Y244500D01*
X345000D01*
X326500Y179500D02*
Y208500D01*
X322887Y202887D02*
X323000Y203000D01*
X343055Y178500D02*
X345122Y176433D01*
X345000Y187500D02*
X345050Y187550D01*
X339500Y182055D02*
X341185Y180370D01*
X333311Y176433D02*
X334050Y177172D01*
X330000Y205192D02*
Y208500D01*
Y205192D02*
X332000Y203192D01*
Y193692D02*
Y203192D01*
X330950Y192642D02*
X332000Y193692D01*
X330000Y203000D02*
X331000Y202000D01*
Y194106D02*
Y202000D01*
X329450Y192556D02*
X331000Y194106D01*
X323887Y188113D02*
X324550Y188776D01*
X317563Y172496D02*
Y173063D01*
X327824Y181920D02*
Y212824D01*
X324550Y188776D02*
Y208258D01*
X315000Y250882D02*
Y256965D01*
X311732Y260232D02*
X315000Y256965D01*
X353500Y216000D02*
Y263500D01*
X353000Y264000D02*
X353500Y263500D01*
X351950Y215450D02*
Y259950D01*
X350400Y259308D02*
X350450Y259258D01*
X350400Y259308D02*
Y261900D01*
X350500Y262000D01*
X350450Y218450D02*
Y259258D01*
X344000Y239500D02*
X345000Y240500D01*
X344000Y221308D02*
Y239500D01*
X342142Y219450D02*
X344000Y221308D01*
X282130Y172496D02*
X283680Y174046D01*
X264000Y156500D02*
X267450Y153050D01*
X269142D01*
X271192Y151000D02*
X284256D01*
X269142Y153050D02*
X271192Y151000D01*
X292000Y162626D02*
X293941Y160685D01*
X257000Y163000D02*
X257500Y162500D01*
X254500Y158500D02*
X267500D01*
X253500Y159500D02*
X254500Y158500D01*
X290450Y259358D02*
X292500Y257308D01*
X290450Y259358D02*
Y263550D01*
X288900Y215600D02*
X290000Y214500D01*
X288900Y215600D02*
Y264400D01*
X290500Y266000D01*
X309000Y226500D02*
Y232500D01*
X314219Y221281D02*
X339027D01*
X309000Y226500D02*
X313000Y222500D01*
X314219Y221281D01*
X323287Y240450D02*
X335450D01*
X207500Y103500D02*
X292071D01*
X288071Y107500D02*
X290004Y105567D01*
X212500Y107500D02*
X288071D01*
X287874Y99500D02*
X290004Y101630D01*
X225000Y109500D02*
X275000D01*
X360870Y129189D02*
X425189D01*
X426000Y130000D01*
X365500Y131000D02*
X423000D01*
X356933Y129189D02*
X359122Y127000D01*
X360937Y176500D02*
X362937Y174500D01*
X428000D01*
X428500Y174000D01*
Y167500D02*
Y174000D01*
X361000Y172500D02*
X363000Y170500D01*
X427050Y165950D02*
X432950D01*
X433000Y166000D01*
X421000Y168500D02*
X425500Y164000D01*
X435500D01*
X423136Y156450D02*
X433050D01*
X442500Y147000D01*
X445000D01*
X345122Y160685D02*
X347307Y158500D01*
X362500D02*
X364500Y156500D01*
X390000D01*
X292067Y147000D02*
X293941Y148874D01*
X279692Y147000D02*
X292067D01*
X278142Y148550D02*
X279692Y147000D01*
X263950Y148550D02*
X278142D01*
X260000Y152500D02*
X263950Y148550D01*
X292000Y162626D02*
Y203500D01*
X294500Y209000D02*
Y239000D01*
X298000Y212500D02*
Y219500D01*
X292500Y210500D02*
Y257308D01*
X283680Y174046D02*
Y206000D01*
X293000Y207500D02*
X294500Y209000D01*
X285180Y207500D02*
X293000D01*
X283680Y206000D02*
X285180Y207500D01*
X292000Y203500D02*
X296000Y207500D01*
Y158626D02*
X297878Y156748D01*
X296000Y158626D02*
Y198000D01*
X294000Y200000D02*
X296000Y198000D01*
X299000Y218500D02*
X332000D01*
X348000Y219000D02*
Y266000D01*
X348500Y216500D02*
X350450Y218450D01*
X324500Y216500D02*
X348500D01*
X322500Y214500D02*
X324500Y216500D01*
X326450Y215450D02*
X351950D01*
X347000Y178492D02*
Y212000D01*
X349000Y214000D01*
X354500D01*
X345050Y187550D02*
Y199950D01*
X342500Y200500D02*
X343055Y199945D01*
Y178500D02*
Y199945D01*
X334000Y213000D02*
X334050Y212950D01*
Y177172D02*
Y212950D01*
X339500Y182055D02*
Y198500D01*
X329374Y172496D02*
X331500Y174622D01*
Y185000D01*
X329450Y187050D02*
Y192556D01*
Y187050D02*
X331500Y185000D01*
X330950Y188550D02*
Y192642D01*
X333000Y190500D02*
Y211500D01*
X345122Y129189D02*
X347000Y131067D01*
Y134000D01*
X348050Y135050D01*
X423000Y131000D02*
X424000Y132000D01*
X431000D01*
X284130Y143000D02*
X286067Y144937D01*
X274374Y133126D02*
X286067D01*
X295910Y135094D02*
X297878Y137063D01*
X295910Y131910D02*
Y135094D01*
X295000Y131000D02*
X295910Y131910D01*
X275500Y131000D02*
X295000D01*
X444500Y70000D02*
X446000Y71500D01*
X280385Y121315D02*
X282130D01*
X278835Y122865D02*
X280385Y121315D01*
X275365Y122865D02*
X278835D01*
X274000Y121500D02*
X275365Y122865D01*
X392000Y168500D02*
X421000D01*
X263748Y125252D02*
X282130D01*
X263500Y125500D02*
X263748Y125252D01*
X347000Y95500D02*
Y115500D01*
Y95500D02*
X349000Y93500D01*
X309689Y105689D02*
Y121315D01*
X308000Y104000D02*
X309689Y105689D01*
X308000Y94000D02*
Y104000D01*
Y94000D02*
X308500Y93500D01*
X311500Y103441D02*
X313626Y105567D01*
X311500Y94500D02*
Y103441D01*
Y94500D02*
X312500Y93500D01*
X313050D01*
X317563Y109504D02*
X321496D01*
X323500Y107500D01*
Y97500D02*
Y107500D01*
Y97500D02*
X325500Y95500D01*
X349059Y129189D02*
X354748Y123500D01*
X461000D01*
X535090Y126900D02*
Y126910D01*
X376950Y143550D02*
X377500Y143000D01*
X366150Y143550D02*
X376950D01*
X352996Y152811D02*
X355000Y150807D01*
X377193D01*
X348050Y135050D02*
X438450D01*
X439000Y134500D01*
X359122Y127000D02*
X430500D01*
X431500Y126000D01*
X456500D01*
X232630Y101630D02*
X286067D01*
X232500Y101500D02*
X232630Y101630D01*
X293941Y117378D02*
Y117378D01*
X291819Y119500D02*
X293941Y117378D01*
X230000Y120000D02*
X230500Y119500D01*
X291819D01*
X559000Y189500D02*
X563500Y185000D01*
X547000Y157000D02*
X551000Y153000D01*
X545500Y153110D02*
X546610Y152000D01*
X454500Y129000D02*
X456000Y130500D01*
X499000Y158500D02*
Y203500D01*
X500500Y205000D01*
X518500D01*
X520000Y206500D01*
Y212500D01*
X531000Y64500D02*
X534000Y67500D01*
X468000Y64500D02*
X531000D01*
X462500Y70000D02*
X468000Y64500D01*
X483500Y67500D02*
X526000D01*
X482000Y69000D02*
X483500Y67500D01*
X356933Y148874D02*
X377126D01*
X377193Y150807D02*
X385000Y143000D01*
X391500D01*
X369000Y158500D02*
X418500D01*
X445642Y145450D02*
X446550Y146358D01*
Y147642D01*
X418500Y158500D02*
X431550Y145450D01*
X445642D01*
X445192Y149000D02*
X446550Y147642D01*
X443000Y149000D02*
X445192D01*
X381050Y164450D02*
X397950D01*
X379000Y166500D02*
X381050Y164450D01*
X357000Y160752D02*
X418834D01*
X423136Y156450D01*
X397950Y164450D02*
X400550Y167050D01*
X353000Y164500D02*
X355198Y162302D01*
X400550Y167050D02*
X418950D01*
X424000Y162000D01*
X433000D01*
X420050Y163450D02*
X423500Y160000D01*
X436500D01*
X355198Y162302D02*
X419198D01*
X423500Y158000D01*
X438500D01*
X356933Y170067D02*
Y180370D01*
Y170067D02*
X360500Y166500D01*
X379000D01*
X351000Y162689D02*
X353000Y160689D01*
X351000Y162689D02*
Y165000D01*
X352500Y166500D01*
X358000D01*
X361050Y163450D01*
X420050D01*
X230950Y113050D02*
X274500D01*
X227500Y116500D02*
X230950Y113050D01*
X227500Y116500D02*
Y122500D01*
X267500Y158500D02*
X271500Y154500D01*
X283819D01*
X286067Y156748D01*
X248000Y67500D02*
X422500D01*
X347307Y158500D02*
X362500D01*
X545500Y153110D02*
Y171500D01*
X536500Y180500D02*
X545500Y171500D01*
X538000Y181500D02*
X547000Y172500D01*
Y157000D02*
Y172500D01*
X545500Y201500D02*
X548500Y204500D01*
X545500Y180500D02*
X551000Y175000D01*
X545500Y180500D02*
Y201500D01*
X444000Y243000D02*
Y244000D01*
X445500Y245500D01*
X551000Y195000D02*
X551500Y195500D01*
X551000Y185000D02*
X555500Y189500D01*
X557000Y177500D02*
X559500Y175000D01*
X548500Y204500D02*
Y232500D01*
X551500Y195500D02*
Y232500D01*
X542500Y249000D02*
X559000Y232500D01*
Y189500D02*
Y232500D01*
X423500Y250500D02*
X544000D01*
X563500Y231000D01*
Y195000D02*
Y231000D01*
X445500Y245500D02*
X541000D01*
X555500Y231000D01*
Y189500D02*
Y231000D01*
X541500Y247500D02*
X557000Y232000D01*
Y177500D02*
Y232000D01*
X541000Y243000D02*
X551500Y232500D01*
X447000Y243000D02*
X541000D01*
X559500Y175000D02*
X563500D01*
X536500Y180500D02*
Y224500D01*
X542500Y230500D01*
X538000Y181500D02*
Y214500D01*
X542500Y219000D01*
X540500Y240500D02*
X548500Y232500D01*
X437000Y241500D02*
X438000Y240500D01*
X540500D01*
X399000Y226000D02*
X423500Y250500D01*
X401000Y224500D02*
X425500Y249000D01*
X542500D01*
X402500Y222500D02*
X427500Y247500D01*
X541500D01*
D42*
X346000Y26000D02*
X351000Y21000D01*
X136500Y26000D02*
X346000D01*
X380500Y110800D02*
Y116500D01*
X376400Y106700D02*
X380500Y110800D01*
X132500Y30000D02*
X136500Y26000D01*
X140000Y272500D02*
X142500D01*
X137000Y269500D02*
X140000Y272500D01*
X137000Y73500D02*
Y269500D01*
Y73500D02*
X144000Y66500D01*
X187063D01*
D50*
X563500Y185000D02*
D03*
Y195000D02*
D03*
X551000Y185000D02*
D03*
Y195000D02*
D03*
X520000Y212500D02*
D03*
D51*
X563500Y175000D02*
D03*
X551000D02*
D03*
D54*
X188705Y64858D02*
D03*
D55*
X542500Y219000D02*
D03*
Y230500D02*
D03*
D59*
X351000Y21000D02*
D03*
X132500Y30000D02*
D03*
X526000Y67500D02*
D03*
D60*
X142500Y272500D02*
D03*
X298200Y176400D02*
D03*
X313250Y213850D02*
D03*
X319500Y208500D02*
D03*
X315500Y202000D02*
D03*
Y204500D02*
D03*
Y207500D02*
D03*
X315400Y210200D02*
D03*
X256400Y137200D02*
D03*
X245700Y70000D02*
D03*
X301800Y172500D02*
D03*
X305700Y172400D02*
D03*
Y168500D02*
D03*
X391500Y140800D02*
D03*
X349100Y144900D02*
D03*
X234000Y48000D02*
D03*
X226000Y168000D02*
D03*
X207500Y162500D02*
D03*
X210000Y160000D02*
D03*
X274400Y180300D02*
D03*
X249900Y253000D02*
D03*
X249950Y170600D02*
D03*
X222800Y56900D02*
D03*
X374300Y65700D02*
D03*
X380500Y116500D02*
D03*
X376400Y106700D02*
D03*
X333400Y89000D02*
D03*
X357500Y92700D02*
D03*
X349100Y105500D02*
D03*
X214800Y55000D02*
D03*
X347700D02*
D03*
X368400Y43800D02*
D03*
X368500Y90400D02*
D03*
X365700Y93700D02*
D03*
X353100Y113300D02*
D03*
X365000Y43500D02*
D03*
X239500Y52000D02*
D03*
X345000Y125000D02*
D03*
X243500Y58000D02*
D03*
X372000Y58500D02*
D03*
X380000Y50000D02*
D03*
X168500Y51000D02*
D03*
X345000Y65000D02*
D03*
X446000Y88016D02*
D03*
X248500Y160000D02*
D03*
X282000Y160685D02*
D03*
X453000Y171500D02*
D03*
X349000Y172500D02*
D03*
X300000Y224000D02*
D03*
X302500Y221000D02*
D03*
X188500Y259500D02*
D03*
X286000Y168500D02*
D03*
X201000Y137000D02*
D03*
X220000Y152500D02*
D03*
X248000Y150000D02*
D03*
X220000Y137500D02*
D03*
Y148500D02*
D03*
X273000Y147000D02*
D03*
X259000Y133000D02*
D03*
X205000Y137000D02*
D03*
X262500Y133000D02*
D03*
X140000Y132500D02*
D03*
Y128000D02*
D03*
X220000Y132500D02*
D03*
X225000Y100000D02*
D03*
X259000Y137000D02*
D03*
X242500D02*
D03*
X263000D02*
D03*
X240000Y121500D02*
D03*
X202500Y145000D02*
D03*
X212500Y212500D02*
D03*
Y165000D02*
D03*
Y107500D02*
D03*
X203500Y241000D02*
D03*
X210000Y112500D02*
D03*
X207500Y242500D02*
D03*
Y103500D02*
D03*
X225000Y109500D02*
D03*
X227500Y122500D02*
D03*
X317600Y85500D02*
D03*
X392000Y168500D02*
D03*
X378000Y186500D02*
D03*
X375400Y180500D02*
D03*
X379250Y189250D02*
D03*
X551000Y153000D02*
D03*
X290450Y222831D02*
D03*
X337200Y184259D02*
D03*
X331500Y91500D02*
D03*
X330000Y203000D02*
D03*
Y208500D02*
D03*
X328000Y213000D02*
D03*
X331500D02*
D03*
X338550Y228500D02*
D03*
X341500Y221000D02*
D03*
X339000Y225000D02*
D03*
X338550Y231123D02*
D03*
X298000Y234500D02*
D03*
X323929Y242000D02*
D03*
X323976Y245000D02*
D03*
X324000Y247976D02*
D03*
X320976Y242000D02*
D03*
X321000Y247929D02*
D03*
X315000Y230000D02*
D03*
Y233000D02*
D03*
Y236000D02*
D03*
Y242000D02*
D03*
Y250882D02*
D03*
X312000Y230000D02*
D03*
Y233000D02*
D03*
Y251000D02*
D03*
X311732Y260232D02*
D03*
X321500Y257500D02*
D03*
X299000Y248500D02*
D03*
X297000Y245000D02*
D03*
X294500Y239000D02*
D03*
X346079Y238579D02*
D03*
X307000Y222500D02*
D03*
X309689Y121315D02*
D03*
X297878Y137063D02*
D03*
Y144937D02*
D03*
X341185Y125252D02*
D03*
X329374Y164622D02*
D03*
X345122Y148874D02*
D03*
Y129189D02*
D03*
X333311Y164622D02*
D03*
X341185Y121315D02*
D03*
X297878Y156748D02*
D03*
X317563Y168559D02*
D03*
X325437D02*
D03*
X293941Y148874D02*
D03*
X349059Y129189D02*
D03*
X297878Y121315D02*
D03*
X345122Y160685D02*
D03*
X317563Y109504D02*
D03*
Y172496D02*
D03*
X325437D02*
D03*
X313626D02*
D03*
X329374D02*
D03*
X352996Y152811D02*
D03*
X293941Y160685D02*
D03*
Y117378D02*
D03*
X349059D02*
D03*
X286067Y144937D02*
D03*
X313626Y105567D02*
D03*
X286067Y133126D02*
D03*
X356933Y148874D02*
D03*
X286067Y152811D02*
D03*
X356933Y129189D02*
D03*
X333311Y176433D02*
D03*
X286067Y156748D02*
D03*
Y160685D02*
D03*
X329374Y180370D02*
D03*
X360870Y129189D02*
D03*
X293941Y109504D02*
D03*
X290004Y113441D02*
D03*
X282130Y125252D02*
D03*
X345122Y176433D02*
D03*
X282130Y121315D02*
D03*
X341185Y180370D02*
D03*
X349059Y176433D02*
D03*
X290004Y105567D02*
D03*
X352996D02*
D03*
X293941Y101630D02*
D03*
X290004D02*
D03*
X282130Y172496D02*
D03*
X286067Y101630D02*
D03*
X356933Y180370D02*
D03*
X345000Y244500D02*
D03*
X332000Y218500D02*
D03*
X323000Y203000D02*
D03*
X345000Y187500D02*
D03*
X332500Y190000D02*
D03*
X323000Y205500D02*
D03*
X326000Y209000D02*
D03*
X353500Y216000D02*
D03*
X353000Y264000D02*
D03*
X351950Y259950D02*
D03*
X350500Y262000D02*
D03*
X345000Y240500D02*
D03*
X348000Y219000D02*
D03*
Y266000D02*
D03*
X264000Y156500D02*
D03*
X260000Y167500D02*
D03*
Y152500D02*
D03*
X257000Y163000D02*
D03*
X253500Y159500D02*
D03*
X290450Y263550D02*
D03*
X290000Y214500D02*
D03*
X290500Y266000D02*
D03*
X313000Y222500D02*
D03*
X275000Y109500D02*
D03*
X360937Y176500D02*
D03*
X361000Y172500D02*
D03*
X353000Y160689D02*
D03*
X357000Y160752D02*
D03*
X365500Y131000D02*
D03*
X426000Y130000D02*
D03*
X461000Y123500D02*
D03*
X428500Y167500D02*
D03*
X433000Y166000D02*
D03*
Y162000D02*
D03*
X435500Y164000D02*
D03*
X353000Y164500D02*
D03*
X369000Y158500D02*
D03*
X436500Y160000D02*
D03*
X438500Y158000D02*
D03*
X443000Y149000D02*
D03*
X445000Y147000D02*
D03*
X377500Y143000D02*
D03*
X390000Y156500D02*
D03*
X292500Y210500D02*
D03*
X298000Y212500D02*
D03*
X290004Y164622D02*
D03*
X294000Y200000D02*
D03*
X274500Y168500D02*
D03*
X248500Y169000D02*
D03*
X354500Y214000D02*
D03*
X345000Y200000D02*
D03*
X342500Y200500D02*
D03*
X334000Y213000D02*
D03*
X336500Y208500D02*
D03*
X339500Y198500D02*
D03*
X331000Y188500D02*
D03*
X391500Y143000D02*
D03*
X431000Y132000D02*
D03*
X334500Y51000D02*
D03*
X274000Y121500D02*
D03*
X263500Y125500D02*
D03*
X349000Y93500D02*
D03*
X308500D02*
D03*
X313050D02*
D03*
X325500Y95500D02*
D03*
X456500Y126000D02*
D03*
X535090Y126900D02*
D03*
X439000Y134500D02*
D03*
X235000Y117900D02*
D03*
X232500Y101500D02*
D03*
X230000Y120000D02*
D03*
X546610Y152000D02*
D03*
X500500Y130500D02*
D03*
X454500Y129000D02*
D03*
X499000Y158500D02*
D03*
X534000Y67500D02*
D03*
X462500Y70000D02*
D03*
X482000Y69000D02*
D03*
X274500Y113050D02*
D03*
X248000Y67500D02*
D03*
X422500D02*
D03*
X444000Y243000D02*
D03*
X437000Y241500D02*
D03*
X447000Y243000D02*
D03*
D70*
X303600Y230863D02*
Y244900D01*
X300000Y227263D02*
X303600Y230863D01*
X300000Y224000D02*
Y227263D01*
X309700Y251000D02*
X312000D01*
X303600Y244900D02*
X309700Y251000D01*
M02*
