%FSLAX25Y25*%
%MOIN*%
G70*
G01*
G75*
G04 Layer_Physical_Order=6*
G04 Layer_Color=16711680*
%ADD10C,0.01000*%
%ADD11R,0.02362X0.01969*%
%ADD12R,0.01969X0.02362*%
%ADD13R,0.04331X0.05512*%
%ADD14R,0.05118X0.02165*%
%ADD15R,0.03150X0.03543*%
%ADD16R,0.02362X0.09843*%
%ADD17R,0.07874X0.21654*%
%ADD18O,0.02362X0.08465*%
%ADD19R,0.03543X0.03150*%
%ADD20R,0.03937X0.04724*%
%ADD21R,0.02165X0.05118*%
%ADD22O,0.06496X0.01181*%
%ADD23O,0.01181X0.06496*%
%ADD24R,0.08858X0.01969*%
%ADD25R,0.15748X0.08071*%
%ADD26R,0.05512X0.04331*%
%ADD27R,0.01575X0.03347*%
%ADD28C,0.01969*%
%ADD29O,0.06693X0.01181*%
%ADD30R,0.01772X0.08268*%
%ADD31O,0.01772X0.08268*%
%ADD32O,0.07087X0.01378*%
%ADD33R,0.01181X0.02953*%
%ADD34R,0.01181X0.03347*%
%ADD35R,0.02953X0.01181*%
%ADD36R,0.03347X0.01181*%
%ADD37R,0.21260X0.21260*%
%ADD38R,0.11024X0.03937*%
%ADD39R,0.03150X0.01181*%
%ADD40R,0.04921X0.15748*%
%ADD41C,0.00500*%
%ADD42C,0.00800*%
%ADD43C,0.01200*%
%ADD44C,0.01190*%
%ADD45C,0.01600*%
%ADD46C,0.02500*%
%ADD47C,0.03000*%
%ADD48C,0.02000*%
%ADD49C,0.01500*%
%ADD50C,0.05906*%
%ADD51R,0.05906X0.05906*%
%ADD52R,0.08661X0.08661*%
%ADD53C,0.04921*%
%ADD54C,0.06299*%
%ADD55C,0.06614*%
%ADD56R,0.05906X0.05906*%
%ADD57C,0.08661*%
%ADD58C,0.05709*%
%ADD59C,0.02000*%
%ADD60C,0.01600*%
%ADD61C,0.03200*%
%ADD62C,0.02600*%
%ADD63C,0.02400*%
%ADD64C,0.15000*%
%ADD65C,0.01800*%
%ADD66C,0.02200*%
%ADD67C,0.03600*%
%ADD68C,0.03000*%
%ADD69C,0.02900*%
%ADD70C,0.00600*%
%ADD71R,0.05900X0.12900*%
%ADD72R,0.05900X0.03900*%
%ADD73R,0.20000X0.20000*%
%ADD74R,0.15590X0.15590*%
%ADD75R,0.05906X0.02362*%
%ADD76R,0.03543X0.02756*%
%ADD77R,0.10236X0.04331*%
%ADD78R,0.07874X0.07087*%
%ADD79R,0.07480X0.09449*%
%ADD80C,0.01181*%
%ADD81R,0.02362X0.05906*%
%ADD82R,0.04331X0.02165*%
%ADD83O,0.08661X0.02362*%
%ADD84R,0.09843X0.17716*%
%ADD85C,0.04000*%
%ADD86C,0.01800*%
%ADD87C,0.05000*%
G36*
X548504Y178915D02*
X548313Y178453D01*
X547547D01*
Y171547D01*
X554313D01*
X554504Y171085D01*
X554183Y170765D01*
X547317D01*
X543702Y174380D01*
Y178177D01*
X545602D01*
Y181163D01*
X546064Y181354D01*
X548504Y178915D01*
D02*
G37*
G36*
X43500Y95000D02*
X39984D01*
Y96569D01*
X36016D01*
Y95000D01*
X33984D01*
Y96569D01*
X30016D01*
Y95000D01*
X27984D01*
Y96569D01*
X24016D01*
Y95000D01*
X21984D01*
Y96569D01*
X18016D01*
Y95000D01*
X14984D01*
Y96569D01*
X13000D01*
Y96969D01*
X12600D01*
Y99150D01*
X11016D01*
D01*
X11016D01*
X11000Y99165D01*
Y103744D01*
X14713D01*
D01*
X14713D01*
X14787Y103669D01*
Y103244D01*
X17553D01*
Y107000D01*
X17953D01*
Y107400D01*
X21118D01*
Y110200D01*
X43500D01*
Y95000D01*
D02*
G37*
G36*
X570000Y23303D02*
X569669D01*
Y23303D01*
X565132D01*
Y11476D01*
X564732D01*
Y11076D01*
X559795D01*
Y1020D01*
X536205D01*
Y11076D01*
X531268D01*
Y11476D01*
X530868D01*
Y23303D01*
X526669D01*
D01*
D01*
X526669Y23303D01*
X526331D01*
Y23303D01*
X522132D01*
Y11476D01*
X521732D01*
Y11076D01*
X516795D01*
Y1020D01*
X493205D01*
Y11076D01*
X488268D01*
Y11476D01*
X487868D01*
Y23303D01*
X483669D01*
D01*
D01*
X483669Y23303D01*
X483331D01*
Y23303D01*
X479132D01*
Y11476D01*
X478732D01*
Y11076D01*
X473795D01*
Y1020D01*
X450205D01*
Y11076D01*
X440331D01*
Y1020D01*
X439258D01*
X438905Y1374D01*
X439000Y25000D01*
X459000D01*
Y43500D01*
X463490Y48004D01*
X463980Y47907D01*
X464154Y47488D01*
X464603Y46903D01*
X465188Y46454D01*
X465869Y46172D01*
X466200Y46128D01*
Y48900D01*
X466600D01*
Y49300D01*
X469372D01*
X469328Y49631D01*
X469046Y50312D01*
X468597Y50897D01*
X468553Y50931D01*
X468681Y51307D01*
X468681D01*
Y53212D01*
X477800Y62361D01*
X478249Y62140D01*
X478230Y62000D01*
X480400D01*
Y64170D01*
X480252Y64150D01*
X480031Y64599D01*
X485764Y70350D01*
X487484D01*
Y72076D01*
X489113Y73710D01*
X489489Y73381D01*
Y73381D01*
D01*
X489129Y72911D01*
X488867Y72279D01*
X488830Y72000D01*
X491000D01*
Y74170D01*
X490721Y74133D01*
X490089Y73871D01*
X489617Y73509D01*
X489316Y73852D01*
X489287Y73885D01*
X490000Y74600D01*
Y80646D01*
X490448Y80867D01*
X490889Y80529D01*
X491521Y80267D01*
X491800Y80230D01*
Y82800D01*
Y85370D01*
X491521Y85333D01*
X490889Y85071D01*
X490448Y84733D01*
X490000Y84954D01*
Y93404D01*
X490433Y93736D01*
X490448Y93743D01*
X490989Y93329D01*
X491621Y93067D01*
X491900Y93030D01*
Y95600D01*
Y98170D01*
X491621Y98133D01*
X490989Y97871D01*
X490448Y97457D01*
X490433Y97464D01*
X490000Y97796D01*
Y113049D01*
X490462Y113240D01*
X491351Y112351D01*
X491649Y112152D01*
X492000Y112082D01*
X528309D01*
X528419Y111919D01*
X528915Y111587D01*
X529500Y111471D01*
X530085Y111587D01*
X530581Y111919D01*
X530691Y112082D01*
X543000D01*
X543351Y112152D01*
X543649Y112351D01*
X543649Y112351D01*
X543649Y112351D01*
X546149Y114851D01*
X546348Y115149D01*
X546359Y115207D01*
X546418Y115500D01*
Y122317D01*
X546891Y122477D01*
X547146Y122146D01*
X547689Y121729D01*
X548321Y121467D01*
X548600Y121430D01*
Y124000D01*
Y126570D01*
X548321Y126533D01*
X547689Y126271D01*
X547146Y125854D01*
X546891Y125523D01*
X546418Y125683D01*
Y129120D01*
X547307Y130009D01*
X547500Y129971D01*
X548085Y130087D01*
X548581Y130419D01*
X548913Y130915D01*
X549029Y131500D01*
X548913Y132085D01*
X548581Y132581D01*
X548085Y132913D01*
X547500Y133029D01*
X546915Y132913D01*
X546419Y132581D01*
X546087Y132085D01*
X545971Y131500D01*
X546009Y131307D01*
X544851Y130149D01*
X544652Y129851D01*
X544582Y129500D01*
Y115880D01*
X542620Y113918D01*
X530691D01*
X530581Y114081D01*
X530085Y114413D01*
X529500Y114529D01*
X528915Y114413D01*
X528419Y114081D01*
X528309Y113918D01*
X492380D01*
X490000Y116298D01*
Y119735D01*
X497166D01*
X497387Y119287D01*
X497329Y119211D01*
X497067Y118579D01*
X497030Y118300D01*
X502170D01*
X502133Y118579D01*
X501871Y119211D01*
X501813Y119287D01*
X502034Y119735D01*
X503000D01*
X503293Y119793D01*
X503541Y119959D01*
X505317Y121735D01*
X510910D01*
X511182Y121328D01*
X511200Y121294D01*
X510804Y120702D01*
X510665Y120000D01*
X510804Y119298D01*
X511202Y118702D01*
X511798Y118304D01*
X512500Y118165D01*
X513202Y118304D01*
X513798Y118702D01*
X514196Y119298D01*
X514335Y120000D01*
X514196Y120702D01*
X513800Y121294D01*
X513818Y121328D01*
X514090Y121735D01*
X534183D01*
X539238Y116681D01*
X539275Y116493D01*
X539563Y116063D01*
X539993Y115775D01*
X540500Y115674D01*
X541007Y115775D01*
X541437Y116063D01*
X541725Y116493D01*
X541825Y117000D01*
X541725Y117507D01*
X541437Y117937D01*
X541007Y118225D01*
X540500Y118325D01*
X539993Y118225D01*
X539911Y118170D01*
X535041Y123041D01*
X534793Y123206D01*
X534500Y123265D01*
X505000D01*
X505000Y123265D01*
X504707Y123206D01*
X504459Y123041D01*
X502683Y121265D01*
X490000D01*
Y162105D01*
X490462Y162296D01*
X491121Y161637D01*
X491452Y161416D01*
X491842Y161339D01*
X494000D01*
X494390Y161416D01*
X494721Y161637D01*
X494863Y161849D01*
X494903Y161826D01*
X495083Y162095D01*
X495504Y162376D01*
X496000Y162475D01*
X496496Y162376D01*
X496917Y162095D01*
X497036Y161918D01*
X497077Y161605D01*
X497379Y160876D01*
X497860Y160249D01*
X498179Y160004D01*
X498163Y159504D01*
X498063Y159437D01*
X497775Y159007D01*
X497675Y158500D01*
X497775Y157993D01*
X498063Y157563D01*
X498493Y157275D01*
X499000Y157175D01*
X499507Y157275D01*
X499937Y157563D01*
X500225Y157993D01*
X500325Y158500D01*
X500225Y159007D01*
X500225Y159007D01*
X500225Y159007D01*
D01*
X500000Y159362D01*
X500000Y159362D01*
X500783Y159466D01*
X501513Y159768D01*
X502140Y160249D01*
X502621Y160876D01*
X502812Y161339D01*
X516828D01*
X517135Y161134D01*
X517642Y161033D01*
X517826Y161069D01*
X518175Y161000D01*
X518275Y160493D01*
X518563Y160063D01*
X518993Y159775D01*
X519500Y159675D01*
X520007Y159775D01*
X520437Y160063D01*
X520725Y160493D01*
X520825Y161000D01*
X520725Y161507D01*
X520437Y161937D01*
X520007Y162225D01*
X519500Y162326D01*
X519316Y162289D01*
X518967Y162358D01*
X518866Y162865D01*
X518579Y163295D01*
X518308Y163477D01*
Y163977D01*
X518437Y164063D01*
X518725Y164493D01*
X518825Y165000D01*
X518725Y165507D01*
X518437Y165937D01*
X518007Y166225D01*
X517500Y166325D01*
X516993Y166225D01*
X516686Y166020D01*
X492875D01*
X491374Y167521D01*
X491281Y167583D01*
X491081Y167881D01*
X490585Y168213D01*
X490000Y168329D01*
Y202500D01*
X493209D01*
X493370Y202027D01*
X493146Y201854D01*
X492729Y201311D01*
X492467Y200679D01*
X492430Y200400D01*
X497570D01*
X497533Y200679D01*
X497271Y201311D01*
X496854Y201854D01*
X496630Y202027D01*
X496791Y202500D01*
X503209D01*
X503370Y202027D01*
X503146Y201854D01*
X502729Y201311D01*
X502467Y200679D01*
X502430Y200400D01*
X507570D01*
X507533Y200679D01*
X507271Y201311D01*
X506854Y201854D01*
X506630Y202027D01*
X506791Y202500D01*
X513209D01*
X513370Y202027D01*
X513146Y201854D01*
X512729Y201311D01*
X512467Y200679D01*
X512430Y200400D01*
X517570D01*
X517533Y200679D01*
X517271Y201311D01*
X516854Y201854D01*
X516630Y202027D01*
X516791Y202500D01*
X523209D01*
X523370Y202027D01*
X523146Y201854D01*
X522729Y201311D01*
X522467Y200679D01*
X522430Y200400D01*
X527570D01*
X527533Y200679D01*
X527271Y201311D01*
X526854Y201854D01*
X526630Y202027D01*
X526791Y202500D01*
X530735D01*
Y190317D01*
X527959Y187541D01*
X527794Y187293D01*
X527735Y187000D01*
X527735Y187000D01*
X527735D01*
X527735Y187000D01*
X527735D01*
Y181000D01*
X527735Y181000D01*
X527735D01*
X527794Y180707D01*
X527959Y180459D01*
X529199Y179219D01*
X529448Y179053D01*
X529740Y178995D01*
X532398D01*
Y178177D01*
X537728D01*
Y181342D01*
D01*
Y181342D01*
X537803Y181417D01*
X538228D01*
Y183100D01*
X535063D01*
Y183900D01*
X538228D01*
Y185037D01*
X538320Y185075D01*
X538735Y184797D01*
Y164000D01*
X538735Y164000D01*
X538735D01*
X538794Y163707D01*
X538959Y163459D01*
X540459Y161959D01*
X540707Y161793D01*
X541000Y161735D01*
X552183D01*
X553235Y160683D01*
Y160035D01*
X552794Y159800D01*
X552607Y159925D01*
X552100Y160026D01*
X551593Y159925D01*
X551163Y159637D01*
X551048Y159465D01*
X533617D01*
X511667Y181414D01*
X511888Y181863D01*
X512300Y181808D01*
Y185700D01*
X508408D01*
X508504Y184976D01*
X508938Y183928D01*
X509628Y183028D01*
X509917Y182807D01*
X509756Y182333D01*
X505584D01*
X505469Y182506D01*
X505039Y182793D01*
X504531Y182894D01*
X504024Y182793D01*
X503594Y182506D01*
X503307Y182076D01*
X503206Y181569D01*
X503307Y181061D01*
X503594Y180631D01*
X504024Y180344D01*
X504531Y180243D01*
X505039Y180344D01*
X505469Y180631D01*
X505584Y180804D01*
X510115D01*
X532759Y158159D01*
X533007Y157993D01*
X533300Y157935D01*
X551048D01*
X551163Y157763D01*
X551593Y157475D01*
X552100Y157375D01*
X552607Y157475D01*
X552794Y157600D01*
X553235Y157365D01*
Y137273D01*
X552993Y137225D01*
X552563Y136937D01*
X552275Y136507D01*
X552175Y136000D01*
X552275Y135493D01*
X552563Y135063D01*
X552993Y134775D01*
X553500Y134675D01*
X554007Y134775D01*
X554437Y135063D01*
X554725Y135493D01*
X554825Y136000D01*
X554745Y136403D01*
X554765Y136500D01*
X554765Y136500D01*
Y161000D01*
D01*
Y161000D01*
X554765D01*
D01*
Y161000D01*
X554765D01*
Y161000D01*
X554765Y161000D01*
X554765Y161000D01*
D01*
D01*
D01*
D01*
X554706Y161293D01*
X554650Y161376D01*
X554650Y161376D01*
X554541Y161541D01*
Y161541D01*
X554541Y161541D01*
X553041Y163041D01*
X552793Y163207D01*
X552500Y163265D01*
X541317D01*
X540265Y164317D01*
Y169961D01*
X540762Y170010D01*
X540804Y169798D01*
X541202Y169202D01*
X541798Y168804D01*
X542500Y168665D01*
X543202Y168804D01*
X543798Y169202D01*
X544196Y169798D01*
X544335Y170500D01*
X544234Y171008D01*
X544675Y171243D01*
X546459Y169459D01*
X546459Y169459D01*
X546707Y169293D01*
X546707Y169293D01*
X546707Y169293D01*
D01*
X546707Y169293D01*
X546707Y169293D01*
X547000Y169235D01*
X547000Y169235D01*
X554500D01*
X554793Y169293D01*
X555041Y169459D01*
X556541Y170959D01*
X556706Y171207D01*
X556765Y171500D01*
X556765Y171500D01*
X556765Y171500D01*
Y171500D01*
Y190000D01*
X556765Y190000D01*
X556706Y190293D01*
X556541Y190541D01*
X553932Y193149D01*
X554016Y193259D01*
X554364Y194099D01*
X554483Y195000D01*
X554364Y195901D01*
X554016Y196741D01*
X553463Y197462D01*
X552741Y198016D01*
X551901Y198364D01*
X551000Y198483D01*
X550099Y198364D01*
X549259Y198016D01*
X548537Y197462D01*
X547984Y196741D01*
X547636Y195901D01*
X547517Y195000D01*
X547636Y194099D01*
X547984Y193259D01*
X548537Y192537D01*
X549259Y191984D01*
X550099Y191636D01*
X551000Y191517D01*
X551901Y191636D01*
X552741Y191984D01*
X552851Y192068D01*
X555235Y189683D01*
Y171817D01*
X554915Y171496D01*
X554453Y171687D01*
Y178453D01*
X551129D01*
X545602Y183979D01*
Y185083D01*
X540717D01*
X540668Y185580D01*
X541056Y185658D01*
X545602D01*
Y186476D01*
X547424D01*
X547702Y186060D01*
X547636Y185901D01*
X547517Y185000D01*
X547636Y184099D01*
X547984Y183259D01*
X548537Y182537D01*
X549259Y181984D01*
X550099Y181636D01*
X551000Y181518D01*
X551901Y181636D01*
X552741Y181984D01*
X553463Y182537D01*
X554016Y183259D01*
X554364Y184099D01*
X554483Y185000D01*
X554364Y185901D01*
X554016Y186741D01*
X553463Y187462D01*
X552741Y188016D01*
X551901Y188364D01*
X551000Y188482D01*
X550099Y188364D01*
X549259Y188016D01*
X549114Y187905D01*
X549052Y187947D01*
X548760Y188005D01*
X545602D01*
Y188823D01*
X540272D01*
Y186463D01*
X539810Y186272D01*
X538301Y187781D01*
X538053Y187947D01*
X537760Y188005D01*
X537728D01*
Y188823D01*
X535828D01*
Y191246D01*
X543041Y198459D01*
X543207Y198707D01*
X543265Y199000D01*
X543265Y199000D01*
X543265Y199000D01*
Y199000D01*
Y202500D01*
X570000D01*
Y23303D01*
D02*
G37*
G36*
X541735Y199317D02*
X534522Y192104D01*
X534356Y191856D01*
X534298Y191563D01*
X534298Y191563D01*
X534298D01*
X534298Y191563D01*
X534298D01*
Y188823D01*
X532398D01*
Y187051D01*
X532011Y186734D01*
X531900Y186756D01*
Y185000D01*
X531100D01*
Y186756D01*
X530798Y186696D01*
X530202Y186298D01*
X529804Y185702D01*
X529762Y185490D01*
X529265Y185539D01*
Y186683D01*
X532041Y189459D01*
X532206Y189707D01*
X532265Y190000D01*
X532265Y190000D01*
X532265Y190000D01*
Y190000D01*
Y202500D01*
X541735D01*
Y199317D01*
D02*
G37*
G36*
X87432Y130990D02*
Y128450D01*
X90597D01*
Y128050D01*
X90997D01*
Y124294D01*
X91050D01*
Y122534D01*
X89400D01*
Y120950D01*
X91581D01*
Y120150D01*
X89400D01*
Y118566D01*
X91050D01*
Y116534D01*
X89400D01*
Y114950D01*
X91581D01*
Y114150D01*
X89400D01*
Y112566D01*
X91050D01*
Y110550D01*
X80500Y102000D01*
X58000D01*
Y114000D01*
X51000D01*
Y116100D01*
X55100D01*
Y118650D01*
X51150D01*
Y119450D01*
X55100D01*
Y122000D01*
X51000D01*
Y124000D01*
X60000D01*
X66000Y130000D01*
Y135000D01*
X82435Y135050D01*
X87432Y130990D01*
D02*
G37*
G36*
X165244Y39350D02*
X163728D01*
Y40919D01*
X159760D01*
Y39350D01*
X158728D01*
Y40919D01*
X154760D01*
Y39350D01*
X154000D01*
Y40903D01*
X150244D01*
Y41303D01*
X149844D01*
Y44469D01*
X146488D01*
D01*
X146488D01*
X146244Y44713D01*
Y51591D01*
Y55350D01*
X152047D01*
Y51900D01*
X159953D01*
Y55350D01*
X165244D01*
Y39350D01*
D02*
G37*
%LPC*%
G36*
X566400Y72570D02*
Y70400D01*
X568570D01*
X568533Y70679D01*
X568271Y71311D01*
X567854Y71854D01*
X567311Y72271D01*
X566679Y72533D01*
X566400Y72570D01*
D02*
G37*
G36*
X491800Y74170D02*
Y72000D01*
X493970D01*
X493933Y72279D01*
X493671Y72911D01*
X493254Y73454D01*
X492711Y73871D01*
X492079Y74133D01*
X491800Y74170D01*
D02*
G37*
G36*
X493970Y71200D02*
X491800D01*
Y69030D01*
X492079Y69067D01*
X492711Y69329D01*
X493254Y69746D01*
X493671Y70289D01*
X493933Y70921D01*
X493970Y71200D01*
D02*
G37*
G36*
X565600Y72570D02*
X565321Y72533D01*
X564689Y72271D01*
X564146Y71854D01*
X563729Y71311D01*
X563467Y70679D01*
X563430Y70400D01*
X565600D01*
Y72570D01*
D02*
G37*
G36*
Y79600D02*
X563430D01*
X563467Y79321D01*
X563729Y78689D01*
X564146Y78146D01*
X564689Y77729D01*
X565321Y77467D01*
X565600Y77430D01*
Y79600D01*
D02*
G37*
G36*
X529600Y84100D02*
X528040D01*
X528116Y83720D01*
X528558Y83058D01*
X529220Y82616D01*
X529600Y82540D01*
Y84100D01*
D02*
G37*
G36*
X565600Y82570D02*
X565321Y82533D01*
X564689Y82271D01*
X564146Y81854D01*
X563729Y81311D01*
X563467Y80679D01*
X563430Y80400D01*
X565600D01*
Y82570D01*
D02*
G37*
G36*
X566400D02*
Y80400D01*
X568570D01*
X568533Y80679D01*
X568271Y81311D01*
X567854Y81854D01*
X567311Y82271D01*
X566679Y82533D01*
X566400Y82570D01*
D02*
G37*
G36*
X568570Y79600D02*
X566400D01*
Y77430D01*
X566679Y77467D01*
X567311Y77729D01*
X567854Y78146D01*
X568271Y78689D01*
X568533Y79321D01*
X568570Y79600D01*
D02*
G37*
G36*
X531960Y84100D02*
X530400D01*
Y82540D01*
X530780Y82616D01*
X531442Y83058D01*
X531884Y83720D01*
X531960Y84100D01*
D02*
G37*
G36*
X494770Y82400D02*
X492600D01*
Y80230D01*
X492879Y80267D01*
X493511Y80529D01*
X494054Y80946D01*
X494471Y81489D01*
X494733Y82121D01*
X494770Y82400D01*
D02*
G37*
G36*
X491000Y71200D02*
X488830D01*
X488867Y70921D01*
X489129Y70289D01*
X489546Y69746D01*
X490089Y69329D01*
X490721Y69067D01*
X491000Y69030D01*
Y71200D01*
D02*
G37*
G36*
X516070Y58600D02*
X513900D01*
Y56430D01*
X514179Y56467D01*
X514811Y56729D01*
X515354Y57146D01*
X515771Y57689D01*
X516033Y58321D01*
X516070Y58600D01*
D02*
G37*
G36*
X480400Y61200D02*
X478230D01*
X478267Y60921D01*
X478529Y60289D01*
X478946Y59746D01*
X479489Y59329D01*
X480121Y59067D01*
X480400Y59030D01*
Y61200D01*
D02*
G37*
G36*
X483370D02*
X481200D01*
Y59030D01*
X481479Y59067D01*
X482111Y59329D01*
X482654Y59746D01*
X483071Y60289D01*
X483333Y60921D01*
X483370Y61200D01*
D02*
G37*
G36*
X479400Y55892D02*
X478676Y55796D01*
X477628Y55362D01*
X476728Y54672D01*
X476038Y53772D01*
X475604Y52724D01*
X475508Y52000D01*
X479400D01*
Y55892D01*
D02*
G37*
G36*
X480200D02*
Y52000D01*
X484092D01*
X483996Y52724D01*
X483562Y53772D01*
X482872Y54672D01*
X481972Y55362D01*
X480924Y55796D01*
X480200Y55892D01*
D02*
G37*
G36*
X513100Y58600D02*
X510930D01*
X510967Y58321D01*
X511229Y57689D01*
X511646Y57146D01*
X512189Y56729D01*
X512821Y56467D01*
X513100Y56430D01*
Y58600D01*
D02*
G37*
G36*
Y61570D02*
X512821Y61533D01*
X512189Y61271D01*
X511646Y60854D01*
X511229Y60311D01*
X510967Y59679D01*
X510930Y59400D01*
X513100D01*
Y61570D01*
D02*
G37*
G36*
X534000Y68826D02*
X533493Y68725D01*
X533063Y68437D01*
X532775Y68007D01*
X532675Y67500D01*
X532775Y66993D01*
X533063Y66563D01*
X533493Y66275D01*
X534000Y66175D01*
X534507Y66275D01*
X534937Y66563D01*
X535225Y66993D01*
X535325Y67500D01*
X535225Y68007D01*
X534937Y68437D01*
X534507Y68725D01*
X534000Y68826D01*
D02*
G37*
G36*
X565600Y69600D02*
X563430D01*
X563467Y69321D01*
X563729Y68689D01*
X564146Y68146D01*
X564689Y67729D01*
X565321Y67467D01*
X565600Y67430D01*
Y69600D01*
D02*
G37*
G36*
X568570D02*
X566400D01*
Y67430D01*
X566679Y67467D01*
X567311Y67729D01*
X567854Y68146D01*
X568271Y68689D01*
X568533Y69321D01*
X568570Y69600D01*
D02*
G37*
G36*
X513900Y61570D02*
Y59400D01*
X516070D01*
X516033Y59679D01*
X515771Y60311D01*
X515354Y60854D01*
X514811Y61271D01*
X514179Y61533D01*
X513900Y61570D01*
D02*
G37*
G36*
X481200Y64170D02*
Y62000D01*
X483370D01*
X483333Y62279D01*
X483071Y62911D01*
X482654Y63454D01*
X482111Y63871D01*
X481479Y64133D01*
X481200Y64170D01*
D02*
G37*
G36*
X526000Y69029D02*
X525415Y68913D01*
X524919Y68581D01*
X524587Y68085D01*
X524471Y67500D01*
X524587Y66915D01*
X524919Y66419D01*
X525415Y66087D01*
X526000Y65971D01*
X526585Y66087D01*
X527081Y66419D01*
X527413Y66915D01*
X527529Y67500D01*
X527413Y68085D01*
X527081Y68581D01*
X526585Y68913D01*
X526000Y69029D01*
D02*
G37*
G36*
X492600Y85370D02*
Y83200D01*
X494770D01*
X494733Y83479D01*
X494471Y84111D01*
X494054Y84654D01*
X493511Y85071D01*
X492879Y85333D01*
X492600Y85370D01*
D02*
G37*
G36*
X27984Y99150D02*
X26400D01*
Y97369D01*
X27984D01*
Y99150D01*
D02*
G37*
G36*
X31600D02*
X30016D01*
Y97369D01*
X31600D01*
Y99150D01*
D02*
G37*
G36*
X33984D02*
X32400D01*
Y97369D01*
X33984D01*
Y99150D01*
D02*
G37*
G36*
X19600D02*
X18016D01*
Y97369D01*
X19600D01*
Y99150D01*
D02*
G37*
G36*
X21984D02*
X20400D01*
Y97369D01*
X21984D01*
Y99150D01*
D02*
G37*
G36*
X25600D02*
X24016D01*
Y97369D01*
X25600D01*
Y99150D01*
D02*
G37*
G36*
X37600D02*
X36016D01*
Y97369D01*
X37600D01*
Y99150D01*
D02*
G37*
G36*
X511600Y101600D02*
X509430D01*
X509467Y101321D01*
X509729Y100689D01*
X510146Y100146D01*
X510689Y99729D01*
X511321Y99467D01*
X511600Y99430D01*
Y101600D01*
D02*
G37*
G36*
X514570D02*
X512400D01*
Y99430D01*
X512679Y99467D01*
X513311Y99729D01*
X513854Y100146D01*
X514271Y100689D01*
X514533Y101321D01*
X514570Y101600D01*
D02*
G37*
G36*
X565600Y102570D02*
X565321Y102533D01*
X564689Y102271D01*
X564146Y101854D01*
X563729Y101311D01*
X563467Y100679D01*
X563430Y100400D01*
X565600D01*
Y102570D01*
D02*
G37*
G36*
X39984Y99150D02*
X38400D01*
Y97369D01*
X39984D01*
Y99150D01*
D02*
G37*
G36*
X565600Y99600D02*
X563430D01*
X563467Y99321D01*
X563729Y98689D01*
X564146Y98146D01*
X564689Y97729D01*
X565321Y97467D01*
X565600Y97430D01*
Y99600D01*
D02*
G37*
G36*
X568570D02*
X566400D01*
Y97430D01*
X566679Y97467D01*
X567311Y97729D01*
X567854Y98146D01*
X568271Y98689D01*
X568533Y99321D01*
X568570Y99600D01*
D02*
G37*
G36*
X530400Y86460D02*
Y84900D01*
X531960D01*
X531884Y85280D01*
X531442Y85942D01*
X530780Y86384D01*
X530400Y86460D01*
D02*
G37*
G36*
X565600Y89600D02*
X563430D01*
X563467Y89321D01*
X563729Y88689D01*
X564146Y88146D01*
X564689Y87729D01*
X565321Y87467D01*
X565600Y87430D01*
Y89600D01*
D02*
G37*
G36*
X568570D02*
X566400D01*
Y87430D01*
X566679Y87467D01*
X567311Y87729D01*
X567854Y88146D01*
X568271Y88689D01*
X568533Y89321D01*
X568570Y89600D01*
D02*
G37*
G36*
X502500Y88500D02*
X498608D01*
X498704Y87776D01*
X499138Y86728D01*
X499828Y85828D01*
X500728Y85138D01*
X501776Y84704D01*
X502500Y84608D01*
Y88500D01*
D02*
G37*
G36*
X507192D02*
X503300D01*
Y84608D01*
X504024Y84704D01*
X505072Y85138D01*
X505972Y85828D01*
X506662Y86728D01*
X507096Y87776D01*
X507192Y88500D01*
D02*
G37*
G36*
X529600Y86460D02*
X529220Y86384D01*
X528558Y85942D01*
X528116Y85280D01*
X528040Y84900D01*
X529600D01*
Y86460D01*
D02*
G37*
G36*
X502500Y93192D02*
X501776Y93096D01*
X500728Y92662D01*
X499828Y91972D01*
X499138Y91072D01*
X498704Y90024D01*
X498608Y89300D01*
X502500D01*
Y93192D01*
D02*
G37*
G36*
X494870Y95200D02*
X492700D01*
Y93030D01*
X492979Y93067D01*
X493611Y93329D01*
X494154Y93746D01*
X494571Y94289D01*
X494833Y94921D01*
X494870Y95200D01*
D02*
G37*
G36*
X492700Y98170D02*
Y96000D01*
X494870D01*
X494833Y96279D01*
X494571Y96911D01*
X494154Y97454D01*
X493611Y97871D01*
X492979Y98133D01*
X492700Y98170D01*
D02*
G37*
G36*
X14984Y99150D02*
X13400D01*
Y97369D01*
X14984D01*
Y99150D01*
D02*
G37*
G36*
X503300Y93192D02*
Y89300D01*
X507192D01*
X507096Y90024D01*
X506662Y91072D01*
X505972Y91972D01*
X505072Y92662D01*
X504024Y93096D01*
X503300Y93192D01*
D02*
G37*
G36*
X565600Y92570D02*
X565321Y92533D01*
X564689Y92271D01*
X564146Y91854D01*
X563729Y91311D01*
X563467Y90679D01*
X563430Y90400D01*
X565600D01*
Y92570D01*
D02*
G37*
G36*
X566400D02*
Y90400D01*
X568570D01*
X568533Y90679D01*
X568271Y91311D01*
X567854Y91854D01*
X567311Y92271D01*
X566679Y92533D01*
X566400Y92570D01*
D02*
G37*
G36*
X565600Y32570D02*
X565321Y32533D01*
X564689Y32271D01*
X564146Y31854D01*
X563729Y31311D01*
X563467Y30679D01*
X563430Y30400D01*
X565600D01*
Y32570D01*
D02*
G37*
G36*
X566400D02*
Y30400D01*
X568570D01*
X568533Y30679D01*
X568271Y31311D01*
X567854Y31854D01*
X567311Y32271D01*
X566679Y32533D01*
X566400Y32570D01*
D02*
G37*
G36*
X462100Y34600D02*
X459930D01*
X459967Y34321D01*
X460229Y33689D01*
X460646Y33146D01*
X461189Y32729D01*
X461821Y32467D01*
X462100Y32430D01*
Y34600D01*
D02*
G37*
G36*
X486900Y30570D02*
Y28400D01*
X489070D01*
X489033Y28679D01*
X488771Y29311D01*
X488354Y29854D01*
X487811Y30271D01*
X487179Y30533D01*
X486900Y30570D01*
D02*
G37*
G36*
X528600D02*
X528321Y30533D01*
X527689Y30271D01*
X527146Y29854D01*
X526729Y29311D01*
X526467Y28679D01*
X526430Y28400D01*
X528600D01*
Y30570D01*
D02*
G37*
G36*
X529400D02*
Y28400D01*
X531570D01*
X531533Y28679D01*
X531271Y29311D01*
X530854Y29854D01*
X530311Y30271D01*
X529679Y30533D01*
X529400Y30570D01*
D02*
G37*
G36*
X465070Y34600D02*
X462900D01*
Y32430D01*
X463179Y32467D01*
X463811Y32729D01*
X464354Y33146D01*
X464771Y33689D01*
X465033Y34321D01*
X465070Y34600D01*
D02*
G37*
G36*
X534798Y37700D02*
X532628D01*
Y35530D01*
X532907Y35567D01*
X533540Y35829D01*
X534083Y36246D01*
X534500Y36789D01*
X534762Y37421D01*
X534798Y37700D01*
D02*
G37*
G36*
X495100Y38100D02*
X492930D01*
X492967Y37821D01*
X493229Y37189D01*
X493646Y36646D01*
X494189Y36229D01*
X494821Y35967D01*
X495100Y35930D01*
Y38100D01*
D02*
G37*
G36*
X498070D02*
X495900D01*
Y35930D01*
X496179Y35967D01*
X496811Y36229D01*
X497354Y36646D01*
X497771Y37189D01*
X498033Y37821D01*
X498070Y38100D01*
D02*
G37*
G36*
X462100Y37570D02*
X461821Y37533D01*
X461189Y37271D01*
X460646Y36854D01*
X460229Y36311D01*
X459967Y35679D01*
X459930Y35400D01*
X462100D01*
Y37570D01*
D02*
G37*
G36*
X462900D02*
Y35400D01*
X465070D01*
X465033Y35679D01*
X464771Y36311D01*
X464354Y36854D01*
X463811Y37271D01*
X463179Y37533D01*
X462900Y37570D01*
D02*
G37*
G36*
X531828Y37700D02*
X529659D01*
X529695Y37421D01*
X529957Y36789D01*
X530374Y36246D01*
X530917Y35829D01*
X531550Y35567D01*
X531828Y35530D01*
Y37700D01*
D02*
G37*
G36*
X486100Y30570D02*
X485821Y30533D01*
X485189Y30271D01*
X484646Y29854D01*
X484229Y29311D01*
X483967Y28679D01*
X483930Y28400D01*
X486100D01*
Y30570D01*
D02*
G37*
G36*
X493205Y23303D02*
X488668D01*
Y11876D01*
X493205D01*
Y23303D01*
D02*
G37*
G36*
X521332D02*
X516795D01*
Y11876D01*
X521332D01*
Y23303D01*
D02*
G37*
G36*
X536205D02*
X531668D01*
Y11876D01*
X536205D01*
Y23303D01*
D02*
G37*
G36*
X444868D02*
X440331D01*
Y11876D01*
X444868D01*
Y23303D01*
D02*
G37*
G36*
X450205D02*
X445668D01*
Y11876D01*
X450205D01*
Y23303D01*
D02*
G37*
G36*
X478332D02*
X473795D01*
Y11876D01*
X478332D01*
Y23303D01*
D02*
G37*
G36*
X564332D02*
X559795D01*
Y11876D01*
X564332D01*
Y23303D01*
D02*
G37*
G36*
X531570Y27600D02*
X529400D01*
Y25430D01*
X529679Y25467D01*
X530311Y25729D01*
X530854Y26146D01*
X531271Y26689D01*
X531533Y27321D01*
X531570Y27600D01*
D02*
G37*
G36*
X565600Y29600D02*
X563430D01*
X563467Y29321D01*
X563729Y28689D01*
X564146Y28146D01*
X564689Y27729D01*
X565321Y27467D01*
X565600Y27430D01*
Y29600D01*
D02*
G37*
G36*
X568570D02*
X566400D01*
Y27430D01*
X566679Y27467D01*
X567311Y27729D01*
X567854Y28146D01*
X568271Y28689D01*
X568533Y29321D01*
X568570Y29600D01*
D02*
G37*
G36*
X486100Y27600D02*
X483930D01*
X483967Y27321D01*
X484229Y26689D01*
X484646Y26146D01*
X485189Y25729D01*
X485821Y25467D01*
X486100Y25430D01*
Y27600D01*
D02*
G37*
G36*
X489070D02*
X486900D01*
Y25430D01*
X487179Y25467D01*
X487811Y25729D01*
X488354Y26146D01*
X488771Y26689D01*
X489033Y27321D01*
X489070Y27600D01*
D02*
G37*
G36*
X528600D02*
X526430D01*
X526467Y27321D01*
X526729Y26689D01*
X527146Y26146D01*
X527689Y25729D01*
X528321Y25467D01*
X528600Y25430D01*
Y27600D01*
D02*
G37*
G36*
X479400Y51200D02*
X475508D01*
X475604Y50476D01*
X476038Y49428D01*
X476728Y48528D01*
X477628Y47838D01*
X478676Y47404D01*
X479400Y47308D01*
Y51200D01*
D02*
G37*
G36*
X484092D02*
X480200D01*
Y47308D01*
X480924Y47404D01*
X481972Y47838D01*
X482872Y48528D01*
X483562Y49428D01*
X483996Y50476D01*
X484092Y51200D01*
D02*
G37*
G36*
X535600Y49600D02*
X533430D01*
X533467Y49321D01*
X533729Y48689D01*
X534146Y48146D01*
X534689Y47729D01*
X535321Y47467D01*
X535600Y47430D01*
Y49600D01*
D02*
G37*
G36*
X469372Y48500D02*
X467000D01*
Y46128D01*
X467331Y46172D01*
X468012Y46454D01*
X468597Y46903D01*
X469046Y47488D01*
X469328Y48169D01*
X469372Y48500D01*
D02*
G37*
G36*
X503600Y48600D02*
X501430D01*
X501467Y48321D01*
X501729Y47689D01*
X502146Y47146D01*
X502689Y46729D01*
X503321Y46467D01*
X503600Y46430D01*
Y48600D01*
D02*
G37*
G36*
X506570D02*
X504400D01*
Y46430D01*
X504679Y46467D01*
X505311Y46729D01*
X505854Y47146D01*
X506271Y47689D01*
X506533Y48321D01*
X506570Y48600D01*
D02*
G37*
G36*
X538570Y49600D02*
X536400D01*
Y47430D01*
X536679Y47467D01*
X537311Y47729D01*
X537854Y48146D01*
X538271Y48689D01*
X538533Y49321D01*
X538570Y49600D01*
D02*
G37*
G36*
X504400Y51570D02*
Y49400D01*
X506570D01*
X506533Y49679D01*
X506271Y50311D01*
X505854Y50854D01*
X505311Y51271D01*
X504679Y51533D01*
X504400Y51570D01*
D02*
G37*
G36*
X535600Y52570D02*
X535321Y52533D01*
X534689Y52271D01*
X534146Y51854D01*
X533729Y51311D01*
X533467Y50679D01*
X533430Y50400D01*
X535600D01*
Y52570D01*
D02*
G37*
G36*
X536400D02*
Y50400D01*
X538570D01*
X538533Y50679D01*
X538271Y51311D01*
X537854Y51854D01*
X537311Y52271D01*
X536679Y52533D01*
X536400Y52570D01*
D02*
G37*
G36*
X155600Y51100D02*
X152047D01*
Y47547D01*
X155600D01*
Y51100D01*
D02*
G37*
G36*
X159953D02*
X156400D01*
Y47547D01*
X159953D01*
Y51100D01*
D02*
G37*
G36*
X503600Y51570D02*
X503321Y51533D01*
X502689Y51271D01*
X502146Y50854D01*
X501729Y50311D01*
X501467Y49679D01*
X501430Y49400D01*
X503600D01*
Y51570D01*
D02*
G37*
G36*
X555000Y60539D02*
X553432Y60384D01*
X551924Y59927D01*
X550534Y59184D01*
X549316Y58184D01*
X548316Y56966D01*
X547573Y55576D01*
X547116Y54068D01*
X546961Y52500D01*
X547116Y50932D01*
X547573Y49424D01*
X548316Y48034D01*
X549316Y46816D01*
X550534Y45816D01*
X551924Y45073D01*
X553432Y44616D01*
X555000Y44461D01*
X556568Y44616D01*
X558076Y45073D01*
X559466Y45816D01*
X560684Y46816D01*
X561684Y48034D01*
X562427Y49424D01*
X562884Y50932D01*
X563039Y52500D01*
X562884Y54068D01*
X562427Y55576D01*
X561684Y56966D01*
X560684Y58184D01*
X559466Y59184D01*
X558076Y59927D01*
X556568Y60384D01*
X555000Y60539D01*
D02*
G37*
G36*
X532628Y40670D02*
Y38500D01*
X534798D01*
X534762Y38779D01*
X534500Y39411D01*
X534083Y39954D01*
X533540Y40371D01*
X532907Y40633D01*
X532628Y40670D01*
D02*
G37*
G36*
X495100Y41070D02*
X494821Y41033D01*
X494189Y40771D01*
X493646Y40354D01*
X493229Y39811D01*
X492967Y39179D01*
X492930Y38900D01*
X495100D01*
Y41070D01*
D02*
G37*
G36*
X495900D02*
Y38900D01*
X498070D01*
X498033Y39179D01*
X497771Y39811D01*
X497354Y40354D01*
X496811Y40771D01*
X496179Y41033D01*
X495900Y41070D01*
D02*
G37*
G36*
X565600Y39600D02*
X563430D01*
X563467Y39321D01*
X563729Y38689D01*
X564146Y38146D01*
X564689Y37729D01*
X565321Y37467D01*
X565600Y37430D01*
Y39600D01*
D02*
G37*
G36*
X568570D02*
X566400D01*
Y37430D01*
X566679Y37467D01*
X567311Y37729D01*
X567854Y38146D01*
X568271Y38689D01*
X568533Y39321D01*
X568570Y39600D01*
D02*
G37*
G36*
X531828Y40670D02*
X531550Y40633D01*
X530917Y40371D01*
X530374Y39954D01*
X529957Y39411D01*
X529695Y38779D01*
X529659Y38500D01*
X531828D01*
Y40670D01*
D02*
G37*
G36*
X565600Y42570D02*
X565321Y42533D01*
X564689Y42271D01*
X564146Y41854D01*
X563729Y41311D01*
X563467Y40679D01*
X563430Y40400D01*
X565600D01*
Y42570D01*
D02*
G37*
G36*
X158728Y43500D02*
X157144D01*
Y41719D01*
X158728D01*
Y43500D01*
D02*
G37*
G36*
X161344D02*
X159760D01*
Y41719D01*
X161344D01*
Y43500D01*
D02*
G37*
G36*
X163728D02*
X162144D01*
Y41719D01*
X163728D01*
Y43500D01*
D02*
G37*
G36*
X566400Y42570D02*
Y40400D01*
X568570D01*
X568533Y40679D01*
X568271Y41311D01*
X567854Y41854D01*
X567311Y42271D01*
X566679Y42533D01*
X566400Y42570D01*
D02*
G37*
G36*
X154000Y44469D02*
X150644D01*
Y41703D01*
X154000D01*
Y44469D01*
D02*
G37*
G36*
X156344Y43500D02*
X154760D01*
Y41719D01*
X156344D01*
Y43500D01*
D02*
G37*
G36*
X535100Y162100D02*
X533744D01*
X533804Y161798D01*
X534202Y161202D01*
X534798Y160804D01*
X535100Y160744D01*
Y162100D01*
D02*
G37*
G36*
X537256D02*
X535900D01*
Y160744D01*
X536202Y160804D01*
X536798Y161202D01*
X537196Y161798D01*
X537256Y162100D01*
D02*
G37*
G36*
X525100Y162756D02*
X524798Y162696D01*
X524202Y162298D01*
X523804Y161702D01*
X523744Y161400D01*
X525100D01*
Y162756D01*
D02*
G37*
G36*
X559400Y160070D02*
Y157900D01*
X561570D01*
X561533Y158179D01*
X561271Y158811D01*
X560854Y159354D01*
X560311Y159771D01*
X559679Y160033D01*
X559400Y160070D01*
D02*
G37*
G36*
X525100Y160600D02*
X523744D01*
X523804Y160298D01*
X524202Y159702D01*
X524798Y159304D01*
X525100Y159244D01*
Y160600D01*
D02*
G37*
G36*
X527256D02*
X525900D01*
Y159244D01*
X526202Y159304D01*
X526798Y159702D01*
X527196Y160298D01*
X527256Y160600D01*
D02*
G37*
G36*
X525900Y162756D02*
Y161400D01*
X527256D01*
X527196Y161702D01*
X526798Y162298D01*
X526202Y162696D01*
X525900Y162756D01*
D02*
G37*
G36*
X561570Y165100D02*
X559400D01*
Y162930D01*
X559679Y162967D01*
X560311Y163229D01*
X560854Y163646D01*
X561271Y164189D01*
X561533Y164821D01*
X561570Y165100D01*
D02*
G37*
G36*
X558600Y168070D02*
X558321Y168033D01*
X557689Y167771D01*
X557146Y167354D01*
X556729Y166811D01*
X556467Y166179D01*
X556430Y165900D01*
X558600D01*
Y168070D01*
D02*
G37*
G36*
X559400D02*
Y165900D01*
X561570D01*
X561533Y166179D01*
X561271Y166811D01*
X560854Y167354D01*
X560311Y167771D01*
X559679Y168033D01*
X559400Y168070D01*
D02*
G37*
G36*
X535100Y164256D02*
X534798Y164196D01*
X534202Y163798D01*
X533804Y163202D01*
X533744Y162900D01*
X535100D01*
Y164256D01*
D02*
G37*
G36*
X535900D02*
Y162900D01*
X537256D01*
X537196Y163202D01*
X536798Y163798D01*
X536202Y164196D01*
X535900Y164256D01*
D02*
G37*
G36*
X558600Y165100D02*
X556430D01*
X556467Y164821D01*
X556729Y164189D01*
X557146Y163646D01*
X557689Y163229D01*
X558321Y162967D01*
X558600Y162930D01*
Y165100D01*
D02*
G37*
G36*
X498400Y152256D02*
Y150900D01*
X499756D01*
X499696Y151202D01*
X499298Y151798D01*
X498702Y152196D01*
X498400Y152256D01*
D02*
G37*
G36*
X520100Y153271D02*
X519769Y153228D01*
X519088Y152946D01*
X518503Y152497D01*
X518054Y151912D01*
X517772Y151231D01*
X517729Y150900D01*
X520100D01*
Y153271D01*
D02*
G37*
G36*
X532900D02*
Y150900D01*
X535272D01*
X535228Y151231D01*
X534946Y151912D01*
X534497Y152497D01*
X533912Y152946D01*
X533231Y153228D01*
X532900Y153271D01*
D02*
G37*
G36*
X559000Y153029D02*
X558415Y152913D01*
X557919Y152581D01*
X557587Y152085D01*
X557471Y151500D01*
X557587Y150915D01*
X557919Y150419D01*
X558415Y150087D01*
X559000Y149971D01*
X559585Y150087D01*
X560081Y150419D01*
X560413Y150915D01*
X560529Y151500D01*
X560413Y152085D01*
X560081Y152581D01*
X559585Y152913D01*
X559000Y153029D01*
D02*
G37*
G36*
X546610Y153325D02*
X546103Y153225D01*
X545673Y152937D01*
X545386Y152507D01*
X545285Y152000D01*
X545386Y151493D01*
X545673Y151063D01*
X546103Y150775D01*
X546610Y150674D01*
X547118Y150775D01*
X547547Y151063D01*
X547835Y151493D01*
X547936Y152000D01*
X547835Y152507D01*
X547547Y152937D01*
X547118Y153225D01*
X546610Y153325D01*
D02*
G37*
G36*
X497600Y152256D02*
X497298Y152196D01*
X496702Y151798D01*
X496304Y151202D01*
X496244Y150900D01*
X497600D01*
Y152256D01*
D02*
G37*
G36*
X532100Y153271D02*
X531769Y153228D01*
X531088Y152946D01*
X530503Y152497D01*
X530054Y151912D01*
X529772Y151231D01*
X529750Y151063D01*
X529250D01*
X529228Y151231D01*
X528946Y151912D01*
X528497Y152497D01*
X527912Y152946D01*
X527231Y153228D01*
X526900Y153271D01*
Y150500D01*
X526100D01*
Y153271D01*
X525769Y153228D01*
X525088Y152946D01*
X524503Y152497D01*
X524054Y151912D01*
X523772Y151231D01*
X523750Y151063D01*
X523250D01*
X523228Y151231D01*
X522946Y151912D01*
X522497Y152497D01*
X521912Y152946D01*
X521231Y153228D01*
X520900Y153271D01*
Y150500D01*
X520500D01*
Y150100D01*
X517729D01*
X517772Y149769D01*
X518054Y149088D01*
X518503Y148503D01*
X519088Y148054D01*
X519769Y147772D01*
X519937Y147750D01*
Y147250D01*
X519769Y147228D01*
X519088Y146946D01*
X518503Y146497D01*
X518054Y145912D01*
X517772Y145231D01*
X517729Y144900D01*
X520500D01*
Y144100D01*
X517729D01*
X517772Y143769D01*
X518054Y143088D01*
X518503Y142503D01*
X519088Y142054D01*
X519769Y141772D01*
X519937Y141750D01*
Y141250D01*
X519769Y141228D01*
X519088Y140946D01*
X518503Y140497D01*
X518054Y139912D01*
X517772Y139231D01*
X517729Y138900D01*
X520500D01*
Y138500D01*
X520900D01*
Y135729D01*
X521231Y135772D01*
X521912Y136054D01*
X522497Y136503D01*
X522946Y137088D01*
X523228Y137769D01*
X523250Y137937D01*
X523750D01*
X523772Y137769D01*
X524054Y137088D01*
X524503Y136503D01*
X525088Y136054D01*
X525769Y135772D01*
X526100Y135729D01*
Y138500D01*
X526900D01*
Y135729D01*
X527231Y135772D01*
X527912Y136054D01*
X528497Y136503D01*
X528946Y137088D01*
X529228Y137769D01*
X529250Y137937D01*
X529750D01*
X529772Y137769D01*
X530054Y137088D01*
X530503Y136503D01*
X531088Y136054D01*
X531769Y135772D01*
X532100Y135729D01*
Y138500D01*
X532500D01*
Y138900D01*
X535272D01*
X535228Y139231D01*
X534946Y139912D01*
X534497Y140497D01*
X533912Y140946D01*
X533231Y141228D01*
X533063Y141250D01*
Y141750D01*
X533231Y141772D01*
X533912Y142054D01*
X534497Y142503D01*
X534946Y143088D01*
X535228Y143769D01*
X535272Y144100D01*
X532500D01*
Y144900D01*
X535272D01*
X535228Y145231D01*
X534946Y145912D01*
X534497Y146497D01*
X533912Y146946D01*
X533231Y147228D01*
X533063Y147250D01*
Y147750D01*
X533231Y147772D01*
X533912Y148054D01*
X534497Y148503D01*
X534946Y149088D01*
X535228Y149769D01*
X535272Y150100D01*
X532500D01*
Y150500D01*
X532100D01*
Y153271D01*
D02*
G37*
G36*
X558600Y157100D02*
X556430D01*
X556467Y156821D01*
X556729Y156189D01*
X557146Y155646D01*
X557689Y155229D01*
X558321Y154967D01*
X558600Y154930D01*
Y157100D01*
D02*
G37*
G36*
X561570D02*
X559400D01*
Y154930D01*
X559679Y154967D01*
X560311Y155229D01*
X560854Y155646D01*
X561271Y156189D01*
X561533Y156821D01*
X561570Y157100D01*
D02*
G37*
G36*
X558600Y160070D02*
X558321Y160033D01*
X557689Y159771D01*
X557146Y159354D01*
X556729Y158811D01*
X556467Y158179D01*
X556430Y157900D01*
X558600D01*
Y160070D01*
D02*
G37*
G36*
X551000Y154325D02*
X550493Y154225D01*
X550063Y153937D01*
X549775Y153507D01*
X549675Y153000D01*
X549775Y152493D01*
X550063Y152063D01*
X550493Y151775D01*
X551000Y151674D01*
X551507Y151775D01*
X551937Y152063D01*
X552225Y152493D01*
X552325Y153000D01*
X552225Y153507D01*
X551937Y153937D01*
X551507Y154225D01*
X551000Y154325D01*
D02*
G37*
G36*
X510000Y159326D02*
X509493Y159225D01*
X509063Y158937D01*
X508775Y158507D01*
X508674Y158000D01*
X508775Y157493D01*
X509063Y157063D01*
X509235Y156948D01*
Y152268D01*
X508794Y152033D01*
X508507Y152225D01*
X508000Y152325D01*
X507493Y152225D01*
X507063Y151937D01*
X506775Y151507D01*
X506674Y151000D01*
X506775Y150493D01*
X507063Y150063D01*
X507493Y149775D01*
X508000Y149674D01*
D01*
X508674Y149500D01*
D01*
X508775Y148993D01*
X509063Y148563D01*
X509493Y148275D01*
X510000Y148175D01*
X510507Y148275D01*
X510937Y148563D01*
X511225Y148993D01*
X511326Y149500D01*
X511225Y150007D01*
X510937Y150437D01*
X510765Y150552D01*
Y156948D01*
X510937Y157063D01*
X511225Y157493D01*
X511326Y158000D01*
X511225Y158507D01*
X510937Y158937D01*
X510507Y159225D01*
X510000Y159326D01*
D02*
G37*
G36*
X543500Y154825D02*
X542993Y154725D01*
X542563Y154437D01*
X542275Y154007D01*
X542174Y153500D01*
X542275Y152993D01*
X542563Y152563D01*
X542993Y152275D01*
X543500Y152174D01*
X544007Y152275D01*
X544437Y152563D01*
X544725Y152993D01*
X544826Y153500D01*
X544725Y154007D01*
X544437Y154437D01*
X544007Y154725D01*
X543500Y154825D01*
D02*
G37*
G36*
X494600Y169600D02*
X492430D01*
X492467Y169321D01*
X492729Y168689D01*
X493146Y168146D01*
X493689Y167729D01*
X494321Y167467D01*
X494600Y167430D01*
Y169600D01*
D02*
G37*
G36*
X495400Y192570D02*
Y190400D01*
X497570D01*
X497533Y190679D01*
X497271Y191311D01*
X496854Y191854D01*
X496311Y192271D01*
X495679Y192533D01*
X495400Y192570D01*
D02*
G37*
G36*
X563500Y198483D02*
X562599Y198364D01*
X561759Y198016D01*
X561037Y197462D01*
X560484Y196741D01*
X560136Y195901D01*
X560017Y195000D01*
X560136Y194099D01*
X560484Y193259D01*
X561037Y192537D01*
X561759Y191984D01*
X562599Y191636D01*
X563500Y191517D01*
X564401Y191636D01*
X565241Y191984D01*
X565963Y192537D01*
X566516Y193259D01*
X566864Y194099D01*
X566983Y195000D01*
X566864Y195901D01*
X566516Y196741D01*
X565963Y197462D01*
X565241Y198016D01*
X564401Y198364D01*
X563500Y198483D01*
D02*
G37*
G36*
X494600Y199600D02*
X492430D01*
X492467Y199321D01*
X492729Y198689D01*
X493146Y198146D01*
X493689Y197729D01*
X494321Y197467D01*
X494600Y197430D01*
Y199600D01*
D02*
G37*
G36*
Y189600D02*
X492430D01*
X492467Y189321D01*
X492729Y188689D01*
X493146Y188146D01*
X493689Y187729D01*
X494321Y187467D01*
X494600Y187430D01*
Y189600D01*
D02*
G37*
G36*
X497570D02*
X495400D01*
Y187430D01*
X495679Y187467D01*
X496311Y187729D01*
X496854Y188146D01*
X497271Y188689D01*
X497533Y189321D01*
X497570Y189600D01*
D02*
G37*
G36*
X494600Y192570D02*
X494321Y192533D01*
X493689Y192271D01*
X493146Y191854D01*
X492729Y191311D01*
X492467Y190679D01*
X492430Y190400D01*
X494600D01*
Y192570D01*
D02*
G37*
G36*
X497570Y199600D02*
X495400D01*
Y197430D01*
X495679Y197467D01*
X496311Y197729D01*
X496854Y198146D01*
X497271Y198689D01*
X497533Y199321D01*
X497570Y199600D01*
D02*
G37*
G36*
X517570D02*
X515400D01*
Y197430D01*
X515679Y197467D01*
X516311Y197729D01*
X516854Y198146D01*
X517271Y198689D01*
X517533Y199321D01*
X517570Y199600D01*
D02*
G37*
G36*
X524600D02*
X522430D01*
X522467Y199321D01*
X522729Y198689D01*
X523146Y198146D01*
X523689Y197729D01*
X524321Y197467D01*
X524600Y197430D01*
Y199600D01*
D02*
G37*
G36*
X527570D02*
X525400D01*
Y197430D01*
X525679Y197467D01*
X526311Y197729D01*
X526854Y198146D01*
X527271Y198689D01*
X527533Y199321D01*
X527570Y199600D01*
D02*
G37*
G36*
X504600D02*
X502430D01*
X502467Y199321D01*
X502729Y198689D01*
X503146Y198146D01*
X503689Y197729D01*
X504321Y197467D01*
X504600Y197430D01*
Y199600D01*
D02*
G37*
G36*
X507570D02*
X505400D01*
Y197430D01*
X505679Y197467D01*
X506311Y197729D01*
X506854Y198146D01*
X507271Y198689D01*
X507533Y199321D01*
X507570Y199600D01*
D02*
G37*
G36*
X514600D02*
X512430D01*
X512467Y199321D01*
X512729Y198689D01*
X513146Y198146D01*
X513689Y197729D01*
X514321Y197467D01*
X514600Y197430D01*
Y199600D01*
D02*
G37*
G36*
X566953Y178453D02*
X560047D01*
Y171547D01*
X566953D01*
Y178453D01*
D02*
G37*
G36*
X494600Y179600D02*
X492430D01*
X492467Y179321D01*
X492729Y178689D01*
X493146Y178146D01*
X493689Y177729D01*
X494321Y177467D01*
X494600Y177430D01*
Y179600D01*
D02*
G37*
G36*
X497570D02*
X495400D01*
Y177430D01*
X495679Y177467D01*
X496311Y177729D01*
X496854Y178146D01*
X497271Y178689D01*
X497533Y179321D01*
X497570Y179600D01*
D02*
G37*
G36*
Y169600D02*
X495400D01*
Y167430D01*
X495679Y167467D01*
X496311Y167729D01*
X496854Y168146D01*
X497271Y168689D01*
X497533Y169321D01*
X497570Y169600D01*
D02*
G37*
G36*
X494600Y172570D02*
X494321Y172533D01*
X493689Y172271D01*
X493146Y171854D01*
X492729Y171311D01*
X492467Y170679D01*
X492430Y170400D01*
X494600D01*
Y172570D01*
D02*
G37*
G36*
X495400D02*
Y170400D01*
X497570D01*
X497533Y170679D01*
X497271Y171311D01*
X496854Y171854D01*
X496311Y172271D01*
X495679Y172533D01*
X495400Y172570D01*
D02*
G37*
G36*
X494600Y182570D02*
X494321Y182533D01*
X493689Y182271D01*
X493146Y181854D01*
X492729Y181311D01*
X492467Y180679D01*
X492430Y180400D01*
X494600D01*
Y182570D01*
D02*
G37*
G36*
X520500Y187029D02*
X519915Y186913D01*
X519419Y186581D01*
X519087Y186085D01*
X518971Y185500D01*
X519087Y184915D01*
X519419Y184419D01*
X519915Y184087D01*
X520500Y183971D01*
X521085Y184087D01*
X521581Y184419D01*
X521913Y184915D01*
X522029Y185500D01*
X521913Y186085D01*
X521581Y186581D01*
X521085Y186913D01*
X520500Y187029D01*
D02*
G37*
G36*
X512300Y190392D02*
X511576Y190296D01*
X510528Y189862D01*
X509628Y189172D01*
X508938Y188272D01*
X508504Y187224D01*
X508408Y186500D01*
X512300D01*
Y190392D01*
D02*
G37*
G36*
X513100D02*
Y186500D01*
X516992D01*
X516896Y187224D01*
X516462Y188272D01*
X515772Y189172D01*
X514872Y189862D01*
X513824Y190296D01*
X513100Y190392D01*
D02*
G37*
G36*
X495400Y182570D02*
Y180400D01*
X497570D01*
X497533Y180679D01*
X497271Y181311D01*
X496854Y181854D01*
X496311Y182271D01*
X495679Y182533D01*
X495400Y182570D01*
D02*
G37*
G36*
X563500Y188482D02*
X562599Y188364D01*
X561759Y188016D01*
X561037Y187462D01*
X560484Y186741D01*
X560136Y185901D01*
X560017Y185000D01*
X560136Y184099D01*
X560484Y183259D01*
X561037Y182537D01*
X561759Y181984D01*
X562599Y181636D01*
X563500Y181518D01*
X564401Y181636D01*
X565241Y181984D01*
X565963Y182537D01*
X566516Y183259D01*
X566864Y184099D01*
X566983Y185000D01*
X566864Y185901D01*
X566516Y186741D01*
X565963Y187462D01*
X565241Y188016D01*
X564401Y188364D01*
X563500Y188482D01*
D02*
G37*
G36*
X516992Y185700D02*
X513100D01*
Y181808D01*
X513824Y181904D01*
X514872Y182338D01*
X515772Y183028D01*
X516462Y183928D01*
X516896Y184976D01*
X516992Y185700D01*
D02*
G37*
G36*
X499756Y150100D02*
X498400D01*
Y148744D01*
X498702Y148804D01*
X499298Y149202D01*
X499696Y149798D01*
X499756Y150100D01*
D02*
G37*
G36*
X75550Y118650D02*
X72000D01*
Y111600D01*
X75550D01*
Y118650D01*
D02*
G37*
G36*
X79900D02*
X76350D01*
Y111600D01*
X79900D01*
Y118650D01*
D02*
G37*
G36*
X499200Y117500D02*
X497030D01*
X497067Y117221D01*
X497329Y116589D01*
X497746Y116046D01*
X498289Y115629D01*
X498921Y115367D01*
X499200Y115330D01*
Y117500D01*
D02*
G37*
G36*
X568570Y109600D02*
X566400D01*
Y107430D01*
X566679Y107467D01*
X567311Y107729D01*
X567854Y108146D01*
X568271Y108689D01*
X568533Y109321D01*
X568570Y109600D01*
D02*
G37*
G36*
X565600Y112570D02*
X565321Y112533D01*
X564689Y112271D01*
X564146Y111854D01*
X563729Y111311D01*
X563467Y110679D01*
X563430Y110400D01*
X565600D01*
Y112570D01*
D02*
G37*
G36*
X566400D02*
Y110400D01*
X568570D01*
X568533Y110679D01*
X568271Y111311D01*
X567854Y111854D01*
X567311Y112271D01*
X566679Y112533D01*
X566400Y112570D01*
D02*
G37*
G36*
X502170Y117500D02*
X500000D01*
Y115330D01*
X500279Y115367D01*
X500911Y115629D01*
X501454Y116046D01*
X501871Y116589D01*
X502133Y117221D01*
X502170Y117500D01*
D02*
G37*
G36*
X79900Y126500D02*
X76350D01*
Y119450D01*
X79900D01*
Y126500D01*
D02*
G37*
G36*
X565600Y122570D02*
X565321Y122533D01*
X564689Y122271D01*
X564146Y121854D01*
X563729Y121311D01*
X563467Y120679D01*
X563430Y120400D01*
X565600D01*
Y122570D01*
D02*
G37*
G36*
X566400D02*
Y120400D01*
X568570D01*
X568533Y120679D01*
X568271Y121311D01*
X567854Y121854D01*
X567311Y122271D01*
X566679Y122533D01*
X566400Y122570D01*
D02*
G37*
G36*
X565600Y119600D02*
X563430D01*
X563467Y119321D01*
X563729Y118689D01*
X564146Y118146D01*
X564689Y117729D01*
X565321Y117467D01*
X565600Y117430D01*
Y119600D01*
D02*
G37*
G36*
X568570D02*
X566400D01*
Y117430D01*
X566679Y117467D01*
X567311Y117729D01*
X567854Y118146D01*
X568271Y118689D01*
X568533Y119321D01*
X568570Y119600D01*
D02*
G37*
G36*
X75550Y126500D02*
X72000D01*
Y119450D01*
X75550D01*
Y126500D01*
D02*
G37*
G36*
X511600Y104570D02*
X511321Y104533D01*
X510689Y104271D01*
X510146Y103854D01*
X509729Y103311D01*
X509467Y102679D01*
X509430Y102400D01*
X511600D01*
Y104570D01*
D02*
G37*
G36*
X512400D02*
Y102400D01*
X514570D01*
X514533Y102679D01*
X514271Y103311D01*
X513854Y103854D01*
X513311Y104271D01*
X512679Y104533D01*
X512400Y104570D01*
D02*
G37*
G36*
X21118Y106600D02*
X18353D01*
Y103244D01*
X21118D01*
Y106600D01*
D02*
G37*
G36*
X566400Y102570D02*
Y100400D01*
X568570D01*
X568533Y100679D01*
X568271Y101311D01*
X567854Y101854D01*
X567311Y102271D01*
X566679Y102533D01*
X566400Y102570D01*
D02*
G37*
G36*
X37400Y105049D02*
X34362D01*
X34428Y104545D01*
X34777Y103704D01*
X35332Y102981D01*
X36055Y102426D01*
X36897Y102077D01*
X37400Y102011D01*
Y105049D01*
D02*
G37*
G36*
X41238D02*
X38200D01*
Y102011D01*
X38703Y102077D01*
X39545Y102426D01*
X40268Y102981D01*
X40823Y103704D01*
X41172Y104545D01*
X41238Y105049D01*
D02*
G37*
G36*
X544600Y106100D02*
X542430D01*
X542467Y105821D01*
X542729Y105189D01*
X543146Y104646D01*
X543689Y104229D01*
X544321Y103967D01*
X544600Y103930D01*
Y106100D01*
D02*
G37*
G36*
Y109070D02*
X544321Y109033D01*
X543689Y108771D01*
X543146Y108354D01*
X542729Y107811D01*
X542467Y107179D01*
X542430Y106900D01*
X544600D01*
Y109070D01*
D02*
G37*
G36*
X545400D02*
Y106900D01*
X547570D01*
X547533Y107179D01*
X547271Y107811D01*
X546854Y108354D01*
X546311Y108771D01*
X545679Y109033D01*
X545400Y109070D01*
D02*
G37*
G36*
X565600Y109600D02*
X563430D01*
X563467Y109321D01*
X563729Y108689D01*
X564146Y108146D01*
X564689Y107729D01*
X565321Y107467D01*
X565600Y107430D01*
Y109600D01*
D02*
G37*
G36*
X547570Y106100D02*
X545400D01*
Y103930D01*
X545679Y103967D01*
X546311Y104229D01*
X546854Y104646D01*
X547271Y105189D01*
X547533Y105821D01*
X547570Y106100D01*
D02*
G37*
G36*
X37400Y108887D02*
X36897Y108820D01*
X36055Y108472D01*
X35332Y107917D01*
X34777Y107194D01*
X34428Y106352D01*
X34362Y105849D01*
X37400D01*
Y108887D01*
D02*
G37*
G36*
X38200D02*
Y105849D01*
X41238D01*
X41172Y106352D01*
X40823Y107194D01*
X40268Y107917D01*
X39545Y108472D01*
X38703Y108820D01*
X38200Y108887D01*
D02*
G37*
G36*
X551570Y123600D02*
X549400D01*
Y121430D01*
X549679Y121467D01*
X550311Y121729D01*
X550854Y122146D01*
X551271Y122689D01*
X551533Y123321D01*
X551570Y123600D01*
D02*
G37*
G36*
X509256Y135100D02*
X507900D01*
Y133744D01*
X508202Y133804D01*
X508798Y134202D01*
X509196Y134798D01*
X509256Y135100D01*
D02*
G37*
G36*
X544500Y136826D02*
X543993Y136725D01*
X543563Y136437D01*
X543275Y136007D01*
X543175Y135500D01*
X543275Y134993D01*
X543563Y134563D01*
X543993Y134275D01*
X544500Y134175D01*
X545007Y134275D01*
X545437Y134563D01*
X545725Y134993D01*
X545825Y135500D01*
X545725Y136007D01*
X545437Y136437D01*
X545007Y136725D01*
X544500Y136826D01*
D02*
G37*
G36*
X496600Y135756D02*
X496298Y135696D01*
X495702Y135298D01*
X495304Y134702D01*
X495244Y134400D01*
X496600D01*
Y135756D01*
D02*
G37*
G36*
Y133600D02*
X495244D01*
X495304Y133298D01*
X495702Y132702D01*
X496298Y132304D01*
X496600Y132244D01*
Y133600D01*
D02*
G37*
G36*
X498756D02*
X497400D01*
Y132244D01*
X497702Y132304D01*
X498298Y132702D01*
X498696Y133298D01*
X498756Y133600D01*
D02*
G37*
G36*
X507100Y135100D02*
X505744D01*
X505804Y134798D01*
X506202Y134202D01*
X506798Y133804D01*
X507100Y133744D01*
Y135100D01*
D02*
G37*
G36*
X497400Y135756D02*
Y134400D01*
X498756D01*
X498696Y134702D01*
X498298Y135298D01*
X497702Y135696D01*
X497400Y135756D01*
D02*
G37*
G36*
X507100Y137256D02*
X506798Y137196D01*
X506202Y136798D01*
X505804Y136202D01*
X505744Y135900D01*
X507100D01*
Y137256D01*
D02*
G37*
G36*
X509500Y138826D02*
X508993Y138725D01*
X508563Y138437D01*
X508275Y138007D01*
X508175Y137500D01*
D01*
D01*
D01*
X508175Y137500D01*
D01*
X507902Y137255D01*
X507900Y137256D01*
Y135900D01*
X509256D01*
X509255Y135903D01*
X509500Y136174D01*
X509500D01*
Y136174D01*
D01*
D01*
D01*
X510007Y136275D01*
X510437Y136563D01*
X510725Y136993D01*
X510825Y137500D01*
X510725Y138007D01*
X510437Y138437D01*
X510007Y138725D01*
X509500Y138826D01*
D02*
G37*
G36*
X497600Y150100D02*
X496244D01*
X496304Y149798D01*
X496702Y149202D01*
X497298Y148804D01*
X497600Y148744D01*
Y150100D01*
D02*
G37*
G36*
X559500Y138529D02*
X558915Y138413D01*
X558419Y138081D01*
X558087Y137585D01*
X557971Y137000D01*
X558087Y136415D01*
X558419Y135919D01*
X558915Y135587D01*
X559500Y135471D01*
X560085Y135587D01*
X560581Y135919D01*
X560913Y136415D01*
X561029Y137000D01*
X560913Y137585D01*
X560581Y138081D01*
X560085Y138413D01*
X559500Y138529D01*
D02*
G37*
G36*
X520100Y138100D02*
X517729D01*
X517772Y137769D01*
X518054Y137088D01*
X518503Y136503D01*
X519088Y136054D01*
X519769Y135772D01*
X520100Y135729D01*
Y138100D01*
D02*
G37*
G36*
X535272D02*
X532900D01*
Y135729D01*
X533231Y135772D01*
X533912Y136054D01*
X534497Y136503D01*
X534946Y137088D01*
X535228Y137769D01*
X535272Y138100D01*
D02*
G37*
G36*
X568570Y127100D02*
X566400D01*
Y124930D01*
X566679Y124967D01*
X567311Y125229D01*
X567854Y125646D01*
X568271Y126189D01*
X568533Y126821D01*
X568570Y127100D01*
D02*
G37*
G36*
X525500Y127825D02*
X524993Y127725D01*
X524563Y127437D01*
X524275Y127007D01*
X524174Y126500D01*
X524275Y125993D01*
X524563Y125563D01*
X524993Y125275D01*
X525500Y125174D01*
X526007Y125275D01*
X526437Y125563D01*
X526725Y125993D01*
X526826Y126500D01*
X526725Y127007D01*
X526437Y127437D01*
X526007Y127725D01*
X525500Y127825D01*
D02*
G37*
G36*
X529500D02*
X528993Y127725D01*
X528563Y127437D01*
X528275Y127007D01*
X528174Y126500D01*
X528275Y125993D01*
X528563Y125563D01*
X528993Y125275D01*
X529500Y125174D01*
X530007Y125275D01*
X530437Y125563D01*
X530725Y125993D01*
X530826Y126500D01*
X530725Y127007D01*
X530437Y127437D01*
X530007Y127725D01*
X529500Y127825D01*
D02*
G37*
G36*
X90197Y127650D02*
X87432D01*
Y124294D01*
X90197D01*
Y127650D01*
D02*
G37*
G36*
X549400Y126570D02*
Y124400D01*
X551570D01*
X551533Y124679D01*
X551271Y125311D01*
X550854Y125854D01*
X550311Y126271D01*
X549679Y126533D01*
X549400Y126570D01*
D02*
G37*
G36*
X565600Y127100D02*
X563430D01*
X563467Y126821D01*
X563729Y126189D01*
X564146Y125646D01*
X564689Y125229D01*
X565321Y124967D01*
X565600Y124930D01*
Y127100D01*
D02*
G37*
G36*
X535090Y128226D02*
X534583Y128125D01*
X534153Y127837D01*
X533865Y127407D01*
X533764Y126900D01*
X533865Y126393D01*
X534153Y125963D01*
X534583Y125675D01*
X535090Y125575D01*
X535597Y125675D01*
X536027Y125963D01*
X536314Y126393D01*
X536415Y126900D01*
X536314Y127407D01*
X536027Y127837D01*
X535597Y128125D01*
X535090Y128226D01*
D02*
G37*
G36*
X565600Y130070D02*
X565321Y130033D01*
X564689Y129771D01*
X564146Y129354D01*
X563729Y128811D01*
X563467Y128179D01*
X563430Y127900D01*
X565600D01*
Y130070D01*
D02*
G37*
G36*
X566400D02*
Y127900D01*
X568570D01*
X568533Y128179D01*
X568271Y128811D01*
X567854Y129354D01*
X567311Y129771D01*
X566679Y130033D01*
X566400Y130070D01*
D02*
G37*
G36*
X500500Y131825D02*
X499993Y131725D01*
X499563Y131437D01*
X499275Y131007D01*
X499174Y130500D01*
X499275Y129993D01*
X499563Y129563D01*
X499993Y129275D01*
X500500Y129174D01*
X501007Y129275D01*
X501437Y129563D01*
X501725Y129993D01*
X501826Y130500D01*
X501725Y131007D01*
X501437Y131437D01*
X501007Y131725D01*
X500500Y131825D01*
D02*
G37*
G36*
X515600Y127100D02*
X514244D01*
X514304Y126798D01*
X514702Y126202D01*
X515298Y125804D01*
X515600Y125744D01*
Y127100D01*
D02*
G37*
G36*
X516400Y129256D02*
Y127500D01*
Y125744D01*
X516702Y125804D01*
X517298Y126202D01*
X517551Y126581D01*
X518051D01*
X518063Y126563D01*
X518493Y126275D01*
X519000Y126174D01*
X519507Y126275D01*
X519937Y126563D01*
X520225Y126993D01*
X520326Y127500D01*
X520225Y128007D01*
X519937Y128437D01*
X519507Y128725D01*
X519000Y128825D01*
X518493Y128725D01*
X518063Y128437D01*
X518051Y128419D01*
X517551D01*
X517298Y128798D01*
X516702Y129196D01*
X516400Y129256D01*
D02*
G37*
G36*
X515600D02*
X515298Y129196D01*
X514702Y128798D01*
X514304Y128202D01*
X514244Y127900D01*
X515600D01*
Y129256D01*
D02*
G37*
%LPD*%
D10*
X498000Y162358D02*
G03*
X494000Y162358I-2000J-1181D01*
G01*
X498000D02*
G03*
X502000Y162358I2000J30D01*
G01*
X517642D01*
X491842D02*
X494000D01*
X485500Y72531D02*
X490469D01*
X478500D02*
X485500D01*
X478500Y76468D02*
X485500D01*
X471500D02*
X478500D01*
X92000Y77000D02*
Y84500D01*
Y71500D02*
Y77000D01*
X330500Y247500D02*
X337000D01*
X188705Y64858D02*
X214295D01*
X474500Y110000D02*
X478000Y106500D01*
X480532D01*
X474500Y84000D02*
X478000Y87500D01*
X480532D01*
X92100Y77000D02*
X98532D01*
X68453Y263000D02*
X69500Y264047D01*
X72500Y257000D02*
X79031D01*
X69500Y260000D02*
X72500Y257000D01*
X69500Y260000D02*
Y264047D01*
X140000Y254063D02*
X147000D01*
X133484D02*
X140000D01*
X132500Y253079D02*
X133484Y254063D01*
X131953Y252532D02*
X132500Y253079D01*
X122500Y252532D02*
X131953D01*
X86000Y261000D02*
X88532D01*
X83469D02*
X86000D01*
Y252500D02*
Y261000D01*
X79031Y257000D02*
Y261000D01*
X54500Y263032D02*
X61000D01*
X61032Y263000D01*
X68453D01*
X94260Y69240D02*
X99079D01*
X90000Y86500D02*
X92000Y84500D01*
X81949Y86500D02*
X90000D01*
X474500Y95000D02*
X476000Y93500D01*
X479547D01*
X342516Y69532D02*
X351000D01*
X336000Y76047D02*
X342516Y69532D01*
X302000Y82600D02*
X304300Y80300D01*
X302000Y82600D02*
Y90031D01*
X304300Y80300D02*
X308553Y76047D01*
X310000D01*
X325000D01*
X336000D01*
X490000Y164200D02*
X491842Y162358D01*
X490653Y166800D02*
X492453Y165000D01*
X517500D01*
X490000Y166800D02*
X490653D01*
X329000Y246000D02*
X330500Y247500D01*
X325382Y240500D02*
X328500D01*
X329000Y241000D01*
Y246000D01*
X350000Y200031D02*
X350516Y200547D01*
X357500D01*
X363791D01*
X474500Y99000D02*
X476000Y100500D01*
X479547D01*
X470240Y62740D02*
Y71272D01*
X471500Y72531D01*
X490469Y72531D02*
X491400Y71600D01*
X92000Y71500D02*
X94260Y69240D01*
X167000Y176000D02*
Y194000D01*
Y176000D02*
X171000Y172000D01*
X190500D01*
X337531Y247500D02*
X345000D01*
X337000Y246969D02*
X337531Y247500D01*
X190500Y172000D02*
X194000D01*
X7000Y112047D02*
X12047Y107000D01*
X7000Y112047D02*
Y116000D01*
D11*
X6568Y94600D02*
D03*
X2631D02*
D03*
X531032Y208500D02*
D03*
X534969D02*
D03*
X531032Y215000D02*
D03*
X534969D02*
D03*
X372431Y103500D02*
D03*
X376368D02*
D03*
X111531Y75000D02*
D03*
X115469D02*
D03*
X442531Y91000D02*
D03*
X446468D02*
D03*
X443032Y218500D02*
D03*
X446969D02*
D03*
X443032Y213500D02*
D03*
X446969D02*
D03*
X63032Y66000D02*
D03*
X66969D02*
D03*
X184968Y209500D02*
D03*
X181032D02*
D03*
X173031Y230500D02*
D03*
X176969D02*
D03*
X102532Y249500D02*
D03*
X106468D02*
D03*
X151532Y202000D02*
D03*
X155468D02*
D03*
X211531Y209000D02*
D03*
X215469D02*
D03*
X219531Y184000D02*
D03*
X223468D02*
D03*
X151532Y196000D02*
D03*
X155468D02*
D03*
X193032Y205500D02*
D03*
X196968D02*
D03*
X193063Y196500D02*
D03*
X197000D02*
D03*
X193032Y190500D02*
D03*
X196968D02*
D03*
X211531Y205000D02*
D03*
X215469D02*
D03*
X219531Y196000D02*
D03*
X223468D02*
D03*
X219531Y190500D02*
D03*
X223468D02*
D03*
X82968Y261000D02*
D03*
X79031D02*
D03*
X88532D02*
D03*
X92469D02*
D03*
X98532Y77000D02*
D03*
X102469D02*
D03*
X451968Y206500D02*
D03*
X448032D02*
D03*
X457469Y213000D02*
D03*
X453532D02*
D03*
X448032Y200500D02*
D03*
X451968D02*
D03*
X376532Y85000D02*
D03*
X380469D02*
D03*
X370532Y138500D02*
D03*
X374468D02*
D03*
X184531Y255500D02*
D03*
X188469D02*
D03*
X184531Y250500D02*
D03*
X188469D02*
D03*
X357531Y190000D02*
D03*
X361469D02*
D03*
X308968Y268500D02*
D03*
X305031D02*
D03*
X298969Y242000D02*
D03*
X295031D02*
D03*
X270969Y137000D02*
D03*
X267032D02*
D03*
X269969Y115500D02*
D03*
X266032D02*
D03*
X272969Y105500D02*
D03*
X269032D02*
D03*
X444031Y84000D02*
D03*
X447968D02*
D03*
X480532Y106500D02*
D03*
X484469D02*
D03*
X480532Y100500D02*
D03*
X484469D02*
D03*
X480532Y93500D02*
D03*
X484469D02*
D03*
X480532Y87500D02*
D03*
X484469D02*
D03*
X91581Y114550D02*
D03*
X95518D02*
D03*
X91581Y120550D02*
D03*
X95518D02*
D03*
X115469Y80000D02*
D03*
X111531D02*
D03*
X226532Y267000D02*
D03*
X230469D02*
D03*
X110531Y26000D02*
D03*
X114469D02*
D03*
Y18500D02*
D03*
X110531D02*
D03*
X477032Y133000D02*
D03*
X480969D02*
D03*
X477032Y138000D02*
D03*
X480969D02*
D03*
X427969Y86000D02*
D03*
X424031D02*
D03*
D12*
X13000Y96969D02*
D03*
Y93032D02*
D03*
X20000Y96969D02*
D03*
Y93032D02*
D03*
X26000Y96969D02*
D03*
Y93032D02*
D03*
X32000Y96969D02*
D03*
Y93032D02*
D03*
X38000Y96969D02*
D03*
Y93032D02*
D03*
X351000Y73469D02*
D03*
Y69532D02*
D03*
X361000Y94468D02*
D03*
Y90531D02*
D03*
X446000Y158531D02*
D03*
Y162469D02*
D03*
X469000Y222468D02*
D03*
Y218531D02*
D03*
X441500Y155032D02*
D03*
Y158968D02*
D03*
X127500Y169032D02*
D03*
Y172968D02*
D03*
X140000Y254063D02*
D03*
Y258000D02*
D03*
X147000Y254063D02*
D03*
Y258000D02*
D03*
X231500Y172968D02*
D03*
Y169032D02*
D03*
X54500Y266968D02*
D03*
Y263032D02*
D03*
X61000Y266968D02*
D03*
Y263032D02*
D03*
X116500Y89969D02*
D03*
Y86032D02*
D03*
X76000Y223532D02*
D03*
Y227468D02*
D03*
X81500Y223532D02*
D03*
Y227468D02*
D03*
X30500Y136031D02*
D03*
Y139969D02*
D03*
X338000Y93468D02*
D03*
Y89531D02*
D03*
X345000Y89031D02*
D03*
Y92968D02*
D03*
X151000Y233032D02*
D03*
Y236968D02*
D03*
X320500Y93468D02*
D03*
Y89531D02*
D03*
X306000Y93468D02*
D03*
Y89531D02*
D03*
X297500Y93968D02*
D03*
Y90031D02*
D03*
X328500Y91531D02*
D03*
Y95468D02*
D03*
X302000Y90031D02*
D03*
Y93968D02*
D03*
X462000Y188031D02*
D03*
Y191969D02*
D03*
X469000Y188031D02*
D03*
Y191969D02*
D03*
X476000Y188031D02*
D03*
Y191969D02*
D03*
X483000Y188031D02*
D03*
Y191969D02*
D03*
X350000Y200031D02*
D03*
Y203969D02*
D03*
X364000Y204468D02*
D03*
Y200532D02*
D03*
X341500Y188531D02*
D03*
Y192469D02*
D03*
X324500Y191032D02*
D03*
Y194968D02*
D03*
X337000Y246969D02*
D03*
Y243032D02*
D03*
X274500Y172031D02*
D03*
Y175969D02*
D03*
X271000Y130468D02*
D03*
Y126532D02*
D03*
X266500Y130468D02*
D03*
Y126532D02*
D03*
X245500Y169032D02*
D03*
Y172968D02*
D03*
X455500Y58531D02*
D03*
Y62468D02*
D03*
X471500Y72531D02*
D03*
Y76468D02*
D03*
X478500Y76468D02*
D03*
Y72531D02*
D03*
X485500Y72531D02*
D03*
Y76468D02*
D03*
X315500Y93468D02*
D03*
Y89531D02*
D03*
X137500Y67032D02*
D03*
Y70969D02*
D03*
X119500D02*
D03*
Y67032D02*
D03*
X161744Y41319D02*
D03*
Y37382D02*
D03*
X156744Y41319D02*
D03*
Y37382D02*
D03*
X242500Y259968D02*
D03*
Y256031D02*
D03*
X247500D02*
D03*
Y259968D02*
D03*
X460500Y149031D02*
D03*
Y152969D02*
D03*
X54500Y82032D02*
D03*
Y85969D02*
D03*
D13*
X531453Y229500D02*
D03*
X525547D02*
D03*
X12047Y107000D02*
D03*
X17953D02*
D03*
X69953Y141000D02*
D03*
X64047D02*
D03*
X190079Y182500D02*
D03*
X195984D02*
D03*
X220547Y178000D02*
D03*
X226453D02*
D03*
X104953Y53500D02*
D03*
X99047D02*
D03*
X96503Y128050D02*
D03*
X90597D02*
D03*
D14*
X99079Y61760D02*
D03*
Y65500D02*
D03*
Y69240D02*
D03*
X108921D02*
D03*
Y61760D02*
D03*
X213079Y255260D02*
D03*
Y259000D02*
D03*
Y262740D02*
D03*
X222921D02*
D03*
Y255260D02*
D03*
D15*
X525256Y221500D02*
D03*
X519744D02*
D03*
X208744Y200000D02*
D03*
X214256D02*
D03*
X206744Y178000D02*
D03*
X212256D02*
D03*
D17*
X564732Y11476D02*
D03*
X531268D02*
D03*
X521732D02*
D03*
X488268D02*
D03*
X478732D02*
D03*
X445268D02*
D03*
D26*
X197000Y266953D02*
D03*
Y261047D02*
D03*
X132500Y258984D02*
D03*
Y253079D02*
D03*
X69500Y269953D02*
D03*
Y264047D02*
D03*
X89000Y230453D02*
D03*
Y224547D02*
D03*
X146000Y65047D02*
D03*
Y70953D02*
D03*
X310000Y76047D02*
D03*
Y81953D02*
D03*
X325000Y76047D02*
D03*
Y81953D02*
D03*
X336000Y76047D02*
D03*
Y81953D02*
D03*
X357500Y206453D02*
D03*
Y200547D02*
D03*
X238500Y175953D02*
D03*
Y170047D02*
D03*
X150244Y35398D02*
D03*
Y41303D02*
D03*
X235500Y261953D02*
D03*
Y256047D02*
D03*
D27*
X471059Y133240D02*
D03*
X465941D02*
D03*
Y125760D02*
D03*
X468500D02*
D03*
X471059D02*
D03*
D41*
X465941Y134500D02*
X466000D01*
X465500D02*
X465941D01*
X238500Y177043D02*
X241425D01*
X238000D02*
X238500D01*
X294800Y84200D02*
X295000Y84000D01*
X288000Y91000D02*
X294800Y84200D01*
X274000Y169000D02*
Y172031D01*
X427969Y86000D02*
X441000D01*
X426968D02*
X427969D01*
X310000Y81953D02*
X311500Y83453D01*
X285400Y202900D02*
X298900D01*
X282500Y200000D02*
X285400Y202900D01*
X406000Y231500D02*
X442000D01*
X403500Y229000D02*
X406000Y231500D01*
X425358Y233450D02*
X441642D01*
X425308Y233500D02*
X425358Y233450D01*
X403500Y233500D02*
X425308D01*
X402000Y232000D02*
X403500Y233500D01*
X442000Y231500D02*
X447000Y236500D01*
X321950Y216950D02*
X334950D01*
X316500Y222400D02*
X321950Y216950D01*
X316500Y222400D02*
Y228665D01*
X304300Y200000D02*
Y203200D01*
X303700Y199400D02*
X304300Y200000D01*
X303700Y178300D02*
Y199400D01*
X303300Y204200D02*
X304300Y203200D01*
X307950Y200400D02*
Y209950D01*
Y178172D02*
Y200300D01*
Y178172D02*
X309689Y176433D01*
X310900Y219000D02*
X311700Y218200D01*
X293500Y219000D02*
X310900D01*
X311700Y178359D02*
Y218200D01*
Y178359D02*
X313626Y176433D01*
X303700Y178300D02*
X305700Y176300D01*
X300200Y204200D02*
X303300D01*
X298900Y202900D02*
X300200Y204200D01*
X315500Y185968D02*
X324500Y194968D01*
X315500Y185000D02*
Y185968D01*
X318136Y223364D02*
Y235150D01*
X275000Y201900D02*
X276900Y200000D01*
X282500D01*
X503000Y120500D02*
X505000Y122500D01*
X462000Y120500D02*
X503000D01*
X455000Y113500D02*
X462000Y120500D01*
X441700Y128700D02*
X442000Y129000D01*
X441700Y124500D02*
Y128700D01*
X441750Y124450D02*
X458050D01*
X441700Y124500D02*
X441750Y124450D01*
X458050D02*
X459360Y125760D01*
X465941D01*
X347969Y203969D02*
X350000D01*
X347100Y203100D02*
X347969Y203969D01*
X347100Y198068D02*
Y203100D01*
X341500Y188531D02*
X342469Y189500D01*
X346500D01*
X350000Y193000D01*
X218000Y160000D02*
X226000Y168000D01*
X218000Y91000D02*
Y160000D01*
Y91000D02*
X220000Y89000D01*
X212500Y107500D02*
Y165000D01*
X250050Y170700D02*
Y252850D01*
X249900Y253000D02*
X250050Y252850D01*
X249950Y170600D02*
X250050Y170700D01*
X274350Y166050D02*
X274500D01*
X271900Y168500D02*
X274350Y166050D01*
X271900Y168500D02*
Y187300D01*
X274700Y190100D01*
X270100Y225600D02*
X271500Y227000D01*
X270100Y160400D02*
Y225600D01*
Y160400D02*
X274000Y156500D01*
X372431Y103500D02*
X372431Y103500D01*
X362937Y103500D02*
X372431D01*
X360870Y105567D02*
X362937Y103500D01*
X356600Y91800D02*
X357500Y92700D01*
X357776Y97693D02*
X361000Y94468D01*
X352996Y97693D02*
X357776D01*
X354900Y107500D02*
X362874D01*
X343000Y119400D02*
X354900Y107500D01*
X343000Y119400D02*
Y138000D01*
X345000Y92968D02*
X346168Y91800D01*
X356600D01*
X362874Y107500D02*
X364807Y105567D01*
X132500Y44106D02*
X132504Y44110D01*
X458000Y49000D02*
X466500D01*
X455500Y51500D02*
X458000Y49000D01*
X455500Y51500D02*
Y58531D01*
X404500Y52500D02*
X405000Y53000D01*
X360631Y85532D02*
Y90163D01*
X361000Y90531D01*
X373071Y85000D02*
X376532D01*
X369571Y81500D02*
X373071Y85000D01*
X363500Y75429D02*
X363571Y75500D01*
X426968Y86000D02*
X426968Y86000D01*
X446000Y88016D02*
Y90531D01*
X446468Y91000D01*
X442531Y90031D02*
Y91000D01*
X441000Y88500D02*
X442531Y90031D01*
X262500Y115500D02*
X262500Y115500D01*
X266032D01*
X446000Y162469D02*
X451469D01*
X453000Y164000D01*
Y171500D01*
X448032Y158531D02*
X450000Y160500D01*
X446000Y158531D02*
X448032D01*
X439450Y161019D02*
Y165500D01*
Y161019D02*
X441500Y158968D01*
X444969Y155032D02*
X447500Y152500D01*
X441500Y155032D02*
X444969D01*
X188469Y255500D02*
X188500Y255532D01*
Y259500D01*
X207500Y103500D02*
Y162500D01*
X210000Y112500D02*
Y160000D01*
X248000Y150000D02*
X252000Y146000D01*
X270500D01*
X271050Y145450D01*
X222500Y102500D02*
X225000Y100000D01*
X259000Y137000D02*
X263000Y141000D01*
X290004D01*
X293941Y144937D01*
X242500Y137000D02*
Y152500D01*
X263000Y137000D02*
X263500D01*
X265500Y139000D01*
X342000D01*
X240000Y121500D02*
Y150000D01*
X222500Y157500D02*
X230000Y165000D01*
X222500Y102500D02*
Y157500D01*
X227500Y122500D02*
Y157500D01*
X225000Y109500D02*
Y155000D01*
X264000Y105600D02*
X264100Y105500D01*
X269032D01*
X270000Y123500D02*
Y124000D01*
X271000Y125000D01*
Y126532D01*
X268937Y135094D02*
X277594D01*
X267032Y137000D02*
X268937Y135094D01*
X293800Y90000D02*
X293831Y90031D01*
X297500D01*
X305700Y85400D02*
Y89231D01*
X315500Y89531D02*
X317600Y87432D01*
X315500Y89531D02*
X320500D01*
X245500Y172968D02*
X245969Y172500D01*
X248500D01*
X241425Y177043D02*
X245500Y172968D01*
X274000Y175969D02*
X274500D01*
X274721D02*
X278193Y172496D01*
X274500Y175969D02*
X274721D01*
X298200Y238200D02*
X298300D01*
X295031Y241369D02*
X298200Y238200D01*
X301700D02*
X304000Y240500D01*
X298300Y238200D02*
X301700D01*
X304000Y240500D02*
X310618D01*
X295031Y241369D02*
Y242000D01*
X299400Y268500D02*
X299400Y268500D01*
X305031D01*
X317600Y85500D02*
Y87432D01*
X338000Y85600D02*
X338000Y85600D01*
Y89531D01*
X374468Y138500D02*
X376368Y136600D01*
X380500D01*
X319476Y225024D02*
Y228689D01*
X322429Y224571D02*
Y228689D01*
X341500Y192469D02*
X347100Y198068D01*
X327000Y242500D02*
Y243000D01*
X326547Y243453D02*
X327000Y243000D01*
X325382Y243453D02*
X326547D01*
X337000Y239400D02*
X337400Y239000D01*
X337000Y239400D02*
Y243032D01*
X350000Y203969D02*
X352484Y206453D01*
X357500D01*
Y214100D01*
X357500Y214100D02*
X357500Y214100D01*
X361469Y187646D02*
X364807Y184307D01*
X361469Y187646D02*
Y190000D01*
X392000Y168500D02*
X394000D01*
X387500Y166154D02*
Y168000D01*
X351000Y170500D02*
X390500D01*
X349059Y168559D02*
X351000Y170500D01*
X385000Y165500D02*
Y168500D01*
X342000Y139000D02*
X343000Y138000D01*
X304488Y238888D02*
X323281D01*
X300000Y234400D02*
X304488Y238888D01*
X300000Y231000D02*
Y234400D01*
X305147Y237547D02*
X310618D01*
X302000Y234400D02*
X305147Y237547D01*
X302000Y233000D02*
Y234400D01*
X263500Y125500D02*
X264531Y126532D01*
X266500D01*
X357132Y89031D02*
X360631Y85532D01*
X345000Y89031D02*
X357132D01*
X325700Y91500D02*
X325731Y91531D01*
X328500D01*
X370419Y138613D02*
X370532Y138500D01*
X354546Y138613D02*
X370419D01*
X352996Y137063D02*
X354546Y138613D01*
X335000Y82953D02*
Y119067D01*
X337248Y121315D01*
X323500Y83453D02*
Y120000D01*
X324815Y121315D01*
X333311D01*
X311500Y83453D02*
Y115252D01*
X313626Y117378D01*
X266500Y130468D02*
X271000D01*
X271532Y131000D01*
X288500D01*
X290004Y132504D01*
Y133126D01*
X332500Y224500D02*
X332660Y224660D01*
Y232752D01*
X318136Y223364D02*
X318669Y222831D01*
X318136Y235150D02*
X319476Y236490D01*
X322429Y246406D02*
X324000Y247976D01*
X322429Y249358D02*
X324000Y250929D01*
X319476Y246406D02*
X321000Y247929D01*
X315000Y248000D02*
X316524Y246476D01*
Y246406D02*
Y246476D01*
X315000Y250882D02*
X316524Y249358D01*
X311976Y248000D02*
X313571Y246406D01*
X312000Y250929D02*
Y251000D01*
X322429Y240500D02*
X323929Y242000D01*
X322429Y243453D02*
X323976Y245000D01*
X319476Y240500D02*
X320976Y242000D01*
X319476Y243453D02*
X321000Y244976D01*
X315000Y242000D02*
X315024D01*
X316524Y240500D01*
X315000Y244976D02*
Y245000D01*
Y244976D02*
X316524Y243453D01*
X312000Y242000D02*
X313500Y240500D01*
X313571D01*
X312000Y245000D02*
X312024D01*
X313571Y243453D01*
X322429Y231642D02*
X324000Y230071D01*
X322429Y234594D02*
X324000Y233024D01*
X319476Y231642D02*
X321000Y230118D01*
X319476Y234594D02*
X321000Y233071D01*
X315000Y230000D02*
X316524Y231524D01*
Y231642D01*
X315000Y233000D02*
Y233071D01*
X316524Y234594D01*
X312000Y230000D02*
X313571Y231571D01*
Y231642D01*
X312000Y233000D02*
Y233024D01*
X313571Y234594D01*
X322429Y237547D02*
X323976Y236000D01*
X315000D02*
X316524Y237524D01*
Y237547D01*
X312000Y236000D02*
X313547Y237547D01*
X313571D01*
X319500Y252335D02*
Y266000D01*
X316524Y252311D02*
Y268476D01*
X316500Y268500D02*
X316524Y268476D01*
X316500Y268500D02*
Y269500D01*
X313500Y252382D02*
Y269500D01*
X319476Y249358D02*
Y250415D01*
X317950Y251942D02*
X319476Y250415D01*
X317950Y251942D02*
Y267450D01*
X318500Y268000D01*
X320000D01*
X322000Y266000D01*
X322429Y252311D02*
X323550Y253432D01*
Y267550D01*
X309000Y253929D02*
X310618Y252311D01*
X325382Y231642D02*
X330642D01*
X325382Y234594D02*
X326316Y233660D01*
X331752D01*
X332660Y232752D01*
X324621Y237547D02*
X325382D01*
X323281Y238888D02*
X324621Y237547D01*
X300421Y243453D02*
X310618D01*
X298969Y242000D02*
X300421Y243453D01*
X319476Y236490D02*
Y237547D01*
X307000Y222500D02*
Y231000D01*
X307642Y231642D01*
X310618D01*
X304500Y234594D02*
X310618D01*
X304000Y234095D02*
X304500Y234594D01*
X304000Y229000D02*
Y234095D01*
Y248500D02*
X306000Y246500D01*
X310524D01*
X325382Y246406D02*
X329550Y250574D01*
X329574D01*
X329550D02*
X330476Y251500D01*
Y262476D01*
X330500Y262500D01*
X325382Y249358D02*
X329000Y252976D01*
X328950Y253026D02*
X329000Y252976D01*
X328950Y253026D02*
Y263950D01*
X303827Y251000D02*
Y254327D01*
Y251000D02*
X306827Y248000D01*
X311976D01*
X304000Y258000D02*
X306500D01*
X307000Y257500D01*
Y250000D02*
Y257500D01*
Y250000D02*
X307642Y249358D01*
X310618D01*
X309000Y253929D02*
Y268468D01*
X289874Y148874D02*
X290004D01*
X316500Y228665D02*
X316524Y228689D01*
X330642Y231642D02*
X330950Y231950D01*
X324000Y230071D02*
X324041Y230030D01*
X323976Y236000D02*
X333000D01*
X334500Y234500D01*
X327500Y178307D02*
X329374Y176433D01*
X327500Y178307D02*
Y196950D01*
X329450Y198900D01*
X266500Y156500D02*
Y235500D01*
X267500Y236500D01*
X268500Y151500D02*
Y231000D01*
X264000Y156500D02*
Y239000D01*
X265500Y240500D01*
X288193Y151000D02*
X290004Y152811D01*
X270192Y151000D02*
X288193D01*
X269142Y149950D02*
X270192Y151000D01*
X264550Y149950D02*
X269142D01*
X262000Y152500D02*
X264550Y149950D01*
X262000Y152500D02*
Y244500D01*
X264000Y246500D01*
X260000Y167500D02*
Y246500D01*
X262000Y248500D01*
X260000Y152500D02*
Y165308D01*
X258450Y166858D02*
X260000Y165308D01*
X258450Y166858D02*
Y248450D01*
X260500Y250500D01*
X257000Y163000D02*
Y251000D01*
X258500Y252500D01*
X258126Y148874D02*
X286067D01*
X255450Y151550D02*
X258126Y148874D01*
X255450Y151550D02*
Y252950D01*
X256500Y254000D01*
X253500Y159500D02*
Y255000D01*
X254500Y256000D01*
X251500Y150000D02*
Y257000D01*
X253000Y258500D01*
X292000Y220500D02*
X293500Y219000D01*
X292000Y220500D02*
Y260000D01*
X325382Y252311D02*
Y264882D01*
X328500Y268000D01*
X339000D01*
X323550Y267550D02*
X326000Y270000D01*
X340500D01*
X342500Y268000D01*
X288000Y107500D02*
X290004Y109504D01*
X277000Y107500D02*
X288000D01*
X275000Y109500D02*
X277000Y107500D01*
X334950Y178731D02*
X337248Y176433D01*
X307950Y209950D02*
X308000Y210000D01*
X345122Y152811D02*
X347433Y150500D01*
X380000D01*
X356933Y164622D02*
X357122D01*
X359000Y166500D01*
X349059Y160685D02*
X351028Y162654D01*
X384000D01*
X436050Y160450D02*
X436500Y160000D01*
X384000Y162654D02*
X387500Y166154D01*
X359000Y166500D02*
X379500D01*
X381500Y164500D01*
X384000D01*
X385000Y165500D01*
X390500Y170500D02*
X392500Y172500D01*
X345122Y164622D02*
X347000Y166500D01*
Y187000D01*
X341185Y82815D02*
X352114D01*
X351000Y73469D02*
Y79071D01*
X296004Y147000D02*
X297878Y148874D01*
X279692Y147000D02*
X296004D01*
X278142Y145450D02*
X279692Y147000D01*
X286189Y164500D02*
X288000Y166311D01*
Y186808D01*
X286450Y188358D02*
X288000Y186808D01*
X286450Y188358D02*
Y189950D01*
X288000Y191500D01*
X290004Y160685D02*
X292000Y162681D01*
Y190500D01*
X288000Y194500D02*
X292000Y190500D01*
X293941Y156748D02*
X296000Y158807D01*
Y189500D01*
X288000Y197500D02*
X296000Y189500D01*
X297878Y152811D02*
X300000Y154933D01*
Y200000D01*
X302000Y202000D01*
X274000Y169000D02*
X274500Y168500D01*
X245969Y169000D02*
X248500D01*
X334500Y221000D02*
Y234500D01*
X332000Y218500D02*
X334500Y221000D01*
X340500Y214000D02*
X354500D01*
X338550Y215950D02*
X340500Y214000D01*
X338550Y215950D02*
Y219142D01*
X337642Y220050D02*
X338550Y219142D01*
X336358Y220050D02*
X337642D01*
X335450Y219142D02*
X336358Y220050D01*
X335450Y217450D02*
Y219142D01*
X334950Y216950D02*
X335450Y217450D01*
X337000Y211192D02*
Y218500D01*
X334950Y178731D02*
Y209142D01*
X337000Y211192D01*
X347000Y187000D02*
X350000Y190000D01*
X352500D01*
X339500Y166307D02*
X341185Y164622D01*
X339500Y166307D02*
Y186531D01*
X341500Y188531D01*
X350000Y193000D02*
Y200031D01*
X286067Y105567D02*
X288000Y103634D01*
Y91000D02*
Y103634D01*
X271050Y145450D02*
X278142D01*
X308000Y123563D02*
X309689Y125252D01*
X308000Y95468D02*
Y123563D01*
X306000Y93468D02*
X308000Y95468D01*
X315500Y123189D02*
X317563Y125252D01*
X315500Y93468D02*
Y123189D01*
X320500Y124252D02*
X325437Y129189D01*
X320500Y93468D02*
Y124252D01*
X337248Y125252D02*
X339500Y123000D01*
Y99192D02*
Y123000D01*
Y99192D02*
X340767Y97926D01*
Y96235D02*
Y97926D01*
X338000Y93468D02*
X340767Y96235D01*
X352996Y133126D02*
X355122Y131000D01*
X362500D01*
X368450Y125050D01*
X273035Y105567D02*
X282130D01*
X293941D02*
X297500Y102008D01*
Y93968D02*
Y102008D01*
Y93968D02*
X297500Y93968D01*
X325437Y176433D02*
Y190094D01*
X324500Y191032D02*
X325437Y190094D01*
X349059Y180370D02*
Y186059D01*
X350500Y187500D01*
X355031D01*
X357531Y190000D01*
X271031Y137063D02*
X286067D01*
X270969Y137000D02*
X271031Y137063D01*
X288126Y115500D02*
X290004Y117378D01*
X269969Y115500D02*
X288126D01*
X325500Y95500D02*
X328468D01*
X301815Y117378D02*
X303500Y115693D01*
Y95468D02*
Y115693D01*
X302000Y93968D02*
X303500Y95468D01*
X361500Y75500D02*
X363571D01*
X369571Y81500D01*
X353000Y176437D02*
X353563D01*
X355500Y174500D01*
X396000D01*
X397500Y173000D01*
Y172000D02*
Y173000D01*
X394000Y168500D02*
X397500Y172000D01*
X235000Y117900D02*
Y165000D01*
X232500Y101500D02*
Y162500D01*
X230000Y120000D02*
Y160000D01*
X292000Y111500D02*
X293941Y113441D01*
X533300Y158700D02*
X552100D01*
X535063Y187240D02*
X537760D01*
X541000Y162500D02*
X552500D01*
X554000Y161000D01*
Y136500D02*
Y161000D01*
X553500Y136000D02*
X554000Y136500D01*
X504531Y181569D02*
X510431D01*
X533300Y158700D01*
X533000Y183500D02*
X535063D01*
X531500Y185000D02*
X533000Y183500D01*
X529740Y179760D02*
X535063D01*
X528500Y181000D02*
X529740Y179760D01*
X459000Y128000D02*
X460500Y129500D01*
X467500D01*
X468500Y128500D01*
Y125760D02*
Y128500D01*
X510000Y149500D02*
Y158000D01*
X471059Y133240D02*
X471299Y133000D01*
X465941Y123059D02*
Y125760D01*
X471299Y133000D02*
X477032D01*
X478031D01*
X477032D02*
Y138000D01*
X480969Y133000D02*
Y138000D01*
X481000Y140500D02*
X482000Y141500D01*
X471500Y140500D02*
X481000D01*
X465941Y133240D02*
X466000Y133299D01*
Y134500D01*
X465500D02*
X471500Y140500D01*
X540000Y117000D02*
X540500D01*
X528500Y181000D02*
Y187000D01*
X531500Y190000D01*
Y208032D01*
X531032Y208500D02*
X531500Y208032D01*
X392500Y166000D02*
X394000D01*
X400000Y172000D01*
X349000Y137000D02*
Y137122D01*
X347000Y135000D02*
X349000Y137000D01*
X347000Y128500D02*
Y135000D01*
X480969Y122468D02*
Y133000D01*
X465941Y123059D02*
X467000Y122000D01*
X480500D01*
X480969Y122468D01*
X505000Y122500D02*
X534500D01*
X540000Y117000D01*
X347000Y128500D02*
X362000Y113500D01*
X276500Y111500D02*
X292000D01*
X274950Y113050D02*
X276500Y111500D01*
X274500Y113050D02*
X274950D01*
X422500Y82500D02*
X424031Y84031D01*
Y86000D01*
X422500Y67500D02*
Y82500D01*
X357000Y152878D02*
X385122D01*
X389500Y148500D01*
X392500D01*
X349000Y156500D02*
X351000Y158500D01*
X359000D01*
X360767Y160266D01*
X391767D02*
X402000Y170500D01*
X360767Y160266D02*
X391767D01*
X402000Y170500D02*
Y232000D01*
X345000Y156500D02*
X346550Y154950D01*
X375450D01*
X379000Y158500D01*
X400000D01*
X403500Y162000D01*
Y229000D01*
X441642Y233450D02*
X444000Y235808D01*
Y243000D01*
X400000Y172000D02*
Y235500D01*
X406000Y241500D01*
X437000D01*
X535063Y191563D02*
X542500Y199000D01*
Y208000D01*
X535063Y187240D02*
Y191563D01*
X542937Y187240D02*
X548760D01*
X551000Y185000D01*
X542937Y183500D02*
X545000D01*
X551000Y177500D01*
Y175000D02*
Y177500D01*
X539500Y164000D02*
X541000Y162500D01*
X539500Y164000D02*
Y185500D01*
X537760Y187240D02*
X539500Y185500D01*
X542937Y174063D02*
Y179760D01*
Y174063D02*
X547000Y170000D01*
X554500D01*
X556000Y171500D01*
Y190000D01*
X551000Y195000D02*
X556000Y190000D01*
X447000Y236500D02*
Y243000D01*
X463969Y152969D02*
X464000Y153000D01*
X460500Y152969D02*
X463969D01*
X460500Y143384D02*
Y149031D01*
X458400Y141284D02*
X460500Y143384D01*
X362000Y113500D02*
X455000D01*
D42*
X443782Y84250D02*
X444031Y84500D01*
X443032Y83500D02*
X443782Y84250D01*
X151532Y199469D02*
Y202000D01*
Y196000D02*
Y199469D01*
X152000Y199000D02*
X164000D01*
X151532Y199469D02*
X152000Y199000D01*
X133000Y211000D02*
X148000D01*
Y211063D01*
X151532Y207531D01*
Y202000D02*
Y207531D01*
X6568Y94600D02*
X8000D01*
X10368Y96969D01*
X13000D01*
X2631Y94600D02*
Y97831D01*
X3956Y99156D01*
X8756D01*
X184127Y188873D02*
X191405D01*
X193032Y190500D01*
X193063Y190532D01*
Y196500D01*
X534969Y200031D02*
X535000Y200000D01*
X534969Y200031D02*
Y208500D01*
X531453Y229500D02*
X534969Y225984D01*
Y215000D02*
Y225984D01*
Y208500D02*
Y215000D01*
X13000Y90000D02*
X13000Y90000D01*
Y93032D01*
X20000Y90000D02*
X20000Y90000D01*
Y93032D01*
X26000Y90000D02*
X26000Y90000D01*
Y93032D01*
X32000Y90000D02*
X32000Y90000D01*
Y93032D01*
X38000Y90000D02*
X38000Y90000D01*
Y93032D01*
X376368Y106668D02*
X376400Y106700D01*
X376368Y103500D02*
Y106668D01*
X363131Y88032D02*
X378500D01*
X360631Y85532D02*
X363131Y88032D01*
X378500D02*
X380469Y86063D01*
X161862Y37500D02*
X167500D01*
X161744Y37382D02*
X161862Y37500D01*
X150244Y35398D02*
X152228Y37382D01*
X156744D01*
X161744D01*
X132500Y30000D02*
Y44106D01*
X96000Y89500D02*
X96240Y89740D01*
X101760D01*
X115469Y80000D02*
X115469Y80000D01*
X115469Y75000D02*
Y80000D01*
X109500Y75000D02*
X111531D01*
X108921Y74421D02*
X109500Y75000D01*
X108921Y69240D02*
Y74421D01*
X455469Y62500D02*
X455500Y62468D01*
X462488D02*
X462760Y62740D01*
X455500Y62468D02*
X462488D01*
X405000Y53000D02*
Y57500D01*
X380469Y85000D02*
Y86063D01*
X443950Y80750D02*
X447250D01*
X447968Y81468D01*
X440500Y83500D02*
X443032D01*
X479032Y185000D02*
X479500D01*
X476000Y188031D02*
X479032Y185000D01*
X465000D02*
Y185031D01*
X462000Y188031D02*
X465000Y185031D01*
X466500Y172500D02*
X469000Y175000D01*
Y188031D01*
X466500Y142500D02*
X472500D01*
X483000Y153000D01*
Y188031D01*
X476000Y161000D02*
Y188031D01*
X466500Y159500D02*
X474500D01*
X476000Y161000D01*
X460500Y161000D02*
X466500Y155000D01*
X460500Y161000D02*
Y186031D01*
X462000Y187531D01*
Y188031D01*
X476000Y191969D02*
X483000D01*
X469000D02*
X476000D01*
X462000D02*
X469000D01*
X460500D02*
X462000D01*
X451968Y200500D02*
X460500Y191969D01*
X451968Y200500D02*
Y206500D01*
X453532Y208063D01*
Y213000D01*
X457469Y205551D02*
Y213000D01*
Y205551D02*
X460260Y202760D01*
X81549Y71100D02*
X81949Y71500D01*
X74400Y71100D02*
X81549D01*
X74000Y81500D02*
X81949D01*
X54500Y85969D02*
X55032Y86500D01*
X63051D01*
X54500Y82032D02*
X55032Y81500D01*
X63051D01*
X66969Y66000D02*
X70000D01*
X66969Y66000D02*
X66969Y66000D01*
X63032Y66000D02*
Y71480D01*
X63051Y71500D01*
X180500Y208968D02*
X181032Y209500D01*
X180500Y206000D02*
Y208968D01*
X192000Y250500D02*
X192000Y250500D01*
X188469Y250500D02*
X192000D01*
X184531D02*
Y255500D01*
Y257968D01*
X183000Y259500D02*
X184531Y257968D01*
X175268Y259500D02*
X183000D01*
X153532Y230500D02*
X157500D01*
X151000Y233032D02*
X153532Y230500D01*
X122500Y252532D02*
X122500Y252532D01*
X167000Y194000D02*
X167000Y194000D01*
Y202000D01*
X167500Y202500D01*
X180000D01*
X196968Y196531D02*
X197000Y196500D01*
Y190532D02*
Y196500D01*
X196968Y190500D02*
X197000Y190532D01*
X196968Y183484D02*
Y190500D01*
X195984Y182500D02*
X196968Y183484D01*
X198000Y178000D02*
X206744D01*
X195984Y180016D02*
X198000Y178000D01*
X206744Y170256D02*
Y178000D01*
Y170256D02*
X209500Y167500D01*
X194000Y172000D02*
X195984Y173984D01*
Y180016D01*
Y182500D01*
X196968Y200000D02*
X208744D01*
X196968Y200000D02*
X196968Y200000D01*
X196968Y196531D02*
Y200000D01*
Y205500D01*
X164000Y199000D02*
X167000Y202000D01*
X155468Y193032D02*
Y196000D01*
Y193032D02*
X155500Y193000D01*
X155468Y202000D02*
Y205469D01*
X155500Y205500D01*
X223468Y184000D02*
Y190500D01*
Y184000D02*
X226453Y181016D01*
Y178000D02*
Y181016D01*
X223468Y190500D02*
Y196000D01*
X228400D01*
X228500Y195900D01*
X106500Y26000D02*
X110531D01*
X106500Y26000D02*
X106500Y26000D01*
X471059Y133240D02*
Y136559D01*
X472000Y137500D01*
X525256Y221500D02*
Y229209D01*
X525547Y229500D01*
X525256Y221500D02*
X529000D01*
X531032Y219468D01*
Y215000D02*
Y219468D01*
Y208500D02*
Y215000D01*
X543000Y113000D02*
X545500Y115500D01*
Y129500D02*
X547500Y131500D01*
X545500Y115500D02*
Y129500D01*
X529500Y113000D02*
X543000D01*
X492000D02*
X529500D01*
X487500Y117500D02*
X492000Y113000D01*
X529500Y205000D02*
Y206968D01*
X531032Y208500D01*
X447968Y81468D02*
Y84000D01*
Y84500D01*
X340500Y42508D02*
X345508Y37500D01*
X340500Y42508D02*
Y62000D01*
X337500Y65000D02*
X340500Y62000D01*
X238500Y65000D02*
X337500D01*
X236500Y67000D02*
X238500Y65000D01*
X455469Y64969D02*
X455500Y65000D01*
X455469Y62500D02*
Y64969D01*
D43*
X469000Y223256D02*
X472244D01*
X448756D02*
X469000D01*
X447047Y218500D02*
Y221547D01*
Y213500D02*
Y218500D01*
Y206500D02*
Y213500D01*
Y200697D02*
Y206500D01*
X485303Y100500D02*
Y106350D01*
Y93500D02*
Y100500D01*
Y87500D02*
Y93500D01*
Y77453D02*
Y87500D01*
X219500Y184000D02*
Y190469D01*
Y179047D02*
Y184000D01*
X245500Y169000D02*
X245500D01*
X238500Y169000D02*
X245500Y169000D01*
X231500Y169000D02*
X238500D01*
X231469D02*
X231500D01*
X151000Y237032D02*
X156264D01*
X151000D02*
X151000D01*
X364000Y204468D02*
X371831Y212300D01*
X381900D01*
X301500Y246000D02*
Y256000D01*
X294000Y263500D02*
X301500Y256000D01*
X71000Y223500D02*
X71031Y223532D01*
X76000D01*
X81500D01*
X82516Y224547D01*
X89000D01*
X224468Y172968D02*
X231500D01*
X223000Y171500D02*
X224468Y172968D01*
X115500Y102937D02*
X116500Y101937D01*
Y89969D02*
Y101937D01*
X180600Y230500D02*
X181700Y229400D01*
X176969Y230500D02*
X180600D01*
X156264Y237032D02*
X158732Y239500D01*
X156500Y61500D02*
X167500Y72500D01*
X102532Y249500D02*
X103000Y249969D01*
Y253500D01*
X466500Y49000D02*
X466600Y48900D01*
X466500Y49000D02*
Y55260D01*
X472244Y223256D02*
X479200Y216300D01*
X464000Y210240D02*
Y222856D01*
X447047Y221547D02*
X448756Y223256D01*
X447047Y200697D02*
X447244Y200500D01*
X327000Y82953D02*
Y87500D01*
X298969Y242000D02*
Y243468D01*
X301500Y246000D01*
X188705Y45795D02*
Y47142D01*
X212256Y178000D02*
X220547D01*
X212256Y178000D02*
X212256Y178000D01*
X219531Y179016D02*
Y184000D01*
X219500Y179047D02*
X219531Y179016D01*
X219500Y190469D02*
X219531Y190500D01*
Y196000D01*
X216000Y209531D02*
Y212500D01*
X215469Y209000D02*
X216000Y209531D01*
X215469Y205000D02*
Y209000D01*
Y201213D02*
Y205000D01*
X214256Y200000D02*
X215469Y201213D01*
X222921Y255260D02*
X234713D01*
X235500Y256047D01*
X242484D01*
X242500Y256031D01*
X247500D01*
X248031D01*
X250500Y258500D01*
Y263000D01*
X214500Y193500D02*
X217000Y196000D01*
X219531D01*
X222921Y247921D02*
Y255260D01*
X220500Y245500D02*
X222921Y247921D01*
X250500Y263000D02*
X253000Y265500D01*
D45*
X116500Y86032D02*
X156000D01*
X37800Y105449D02*
X44550Y112199D01*
Y128050D01*
X39000Y138000D02*
X44550Y132450D01*
Y128050D02*
Y132450D01*
X51150Y103450D02*
Y110050D01*
X37800Y105449D02*
X41469D01*
X193032Y196531D02*
X193063Y196500D01*
X193032Y196531D02*
Y205500D01*
X90597Y143000D02*
Y150000D01*
Y128050D02*
Y143000D01*
X99000D01*
X102000Y161403D02*
Y207500D01*
X90597Y150000D02*
X102000Y161403D01*
X213079Y263579D02*
X216453Y266953D01*
X216500Y267000D01*
X197000Y266953D02*
X216453D01*
X197000Y261047D02*
X198453Y262500D01*
X205000D01*
X77000Y141000D02*
X77000Y141000D01*
X69953Y141000D02*
X77000D01*
X51150Y128050D02*
X51200Y128000D01*
X61000D01*
X64047Y131047D01*
Y141000D01*
X140000Y258000D02*
X147000D01*
X15047Y134047D02*
X23500D01*
X7000Y126000D02*
X15047Y134047D01*
X396000Y32000D02*
X401000Y27000D01*
X396000Y32000D02*
Y37500D01*
X404500Y52500D02*
X442500D01*
X349500D02*
X404500D01*
X345508Y37500D02*
Y48508D01*
X349500Y52500D01*
X442500D02*
X446492Y48508D01*
Y37500D02*
Y48508D01*
X137500Y67032D02*
X139484Y65047D01*
X146000D01*
X467740Y210240D02*
X470000Y212500D01*
X467740Y202760D02*
Y210240D01*
X469000Y213500D02*
X470000Y212500D01*
X469000Y213500D02*
Y218531D01*
X443032Y213500D02*
Y218500D01*
Y209032D02*
Y213500D01*
X441500Y207500D02*
X443032Y209032D01*
X435000Y207500D02*
X441500D01*
X129000Y102937D02*
X150437D01*
X115500D02*
X129000D01*
Y92000D02*
Y102937D01*
X76000D02*
X115500D01*
X52469Y263032D02*
X54500D01*
X50000Y265500D02*
X52469Y263032D01*
X50000Y265500D02*
Y270000D01*
X51500Y271500D01*
X55000D01*
X67453Y272000D02*
X69500Y269953D01*
X60000Y272000D02*
X67453D01*
X116500Y248000D02*
X121031Y252532D01*
X116500Y229500D02*
Y248000D01*
X106000Y219000D02*
X116500Y229500D01*
X24500Y219000D02*
X106000D01*
X102000Y207500D02*
X122500Y228000D01*
X63051Y76500D02*
X81949D01*
Y68551D02*
Y71500D01*
X189032Y209500D02*
X193032Y205500D01*
X184968Y209500D02*
X189032D01*
X157500Y214000D02*
Y230500D01*
X207600Y204900D02*
X207700Y205000D01*
X211531D01*
Y209000D01*
X157232Y258000D02*
X158732Y259500D01*
X151000Y258000D02*
X157232D01*
X157500Y230500D02*
X157500Y230500D01*
X173031D01*
Y237264D02*
X175268Y239500D01*
X173031Y230500D02*
Y237264D01*
X54500Y266968D02*
X61000D01*
X62500Y87051D02*
X63051Y86500D01*
X62500Y87051D02*
Y93000D01*
X119500Y67032D02*
X137500D01*
X119500Y70969D02*
X137500D01*
X115469D02*
X119500D01*
X116500Y86032D02*
X116500D01*
X18500Y173335D02*
Y213000D01*
X18602Y206602D02*
X27437D01*
X18500Y213000D02*
X24500Y219000D01*
X18500Y173335D02*
X27437Y164398D01*
X155504Y51591D02*
X155744Y51350D01*
X116469Y86000D02*
X116500Y86032D01*
X109240Y86000D02*
X116469D01*
X101760Y82260D02*
X102469Y81551D01*
X89000Y61500D02*
X98819D01*
X81949Y68551D02*
X89000Y61500D01*
X81949Y71500D02*
Y76500D01*
X49000D02*
X63051D01*
X137500Y70969D02*
X145984D01*
X146000Y70953D01*
X155453D01*
X108921Y61760D02*
X114500D01*
Y70000D01*
X115469Y70969D01*
X102469Y80000D02*
X111531D01*
X102469Y80000D02*
X102469Y80000D01*
X119500Y62000D02*
Y67032D01*
X94000Y65500D02*
X99079D01*
X95518Y114550D02*
Y120550D01*
Y127066D01*
X96503Y128050D01*
X96550Y128097D01*
Y135550D01*
X184600Y182500D02*
X190079D01*
X139984Y42516D02*
X142500Y40000D01*
X139984Y42516D02*
Y47850D01*
X115469Y80000D02*
X119000D01*
X119000Y80000D01*
X226421Y266240D02*
Y266890D01*
X226532Y267000D01*
X230469D02*
X235500D01*
X235500Y267000D01*
X235500Y267000D01*
Y261953D02*
Y267000D01*
X122500Y242500D02*
X134500D01*
X139000Y247000D01*
X206760Y255260D02*
X213079D01*
X205000Y257020D02*
Y262500D01*
Y257020D02*
X206760Y255260D01*
X213079Y259000D02*
Y262740D01*
Y263579D01*
X222921Y262740D02*
X226421Y266240D01*
X133484Y258000D02*
X140000D01*
X132500Y258984D02*
X133484Y258000D01*
X147000D02*
X151000D01*
X89453Y230000D02*
X96000D01*
X89000Y230453D02*
X89453Y230000D01*
X106468Y232469D02*
Y249500D01*
X104000Y230000D02*
X106468Y232469D01*
X96000Y230000D02*
X104000D01*
X76000Y227468D02*
X81500D01*
X84484Y230453D01*
X89000D01*
X60000Y272000D02*
X61000Y271000D01*
Y266968D02*
Y271000D01*
X92469Y256031D02*
Y261000D01*
Y256031D02*
X93500Y255000D01*
X25484Y136031D02*
X30500D01*
X23500Y134047D02*
X25484Y136031D01*
X99079Y53626D02*
Y61760D01*
X44949Y80551D02*
X49000Y76500D01*
X44949Y80551D02*
Y102051D01*
X41469Y105532D02*
X44949Y102051D01*
X104953Y53500D02*
X112000D01*
X112000Y53500D01*
X44550Y128050D02*
X51150D01*
X520000Y212500D02*
Y221244D01*
X519744Y221500D02*
X520000Y221244D01*
X203000Y235500D02*
X221000D01*
X191500Y247000D02*
X203000Y235500D01*
X139000Y247000D02*
X191500D01*
X122500Y228000D02*
Y242500D01*
X150437Y102937D02*
X156000Y108500D01*
X132504Y51591D02*
X155504D01*
X155453Y70953D02*
X156000Y71500D01*
X221000Y235500D02*
X232500Y247000D01*
Y235000D02*
Y247000D01*
X7000Y116000D02*
Y126000D01*
D46*
X33500Y145500D02*
X51000D01*
X30500Y142500D02*
X33500Y145500D01*
X30500Y139969D02*
Y142500D01*
X51000Y145500D02*
X55508Y150008D01*
X23500Y139953D02*
X23516Y139969D01*
X30500D01*
X55508Y150008D02*
Y210992D01*
D48*
X325000Y82953D02*
X327000D01*
X311000D02*
X325000D01*
X121031Y252532D02*
X122500D01*
X156000Y61500D02*
X156500D01*
X127500Y193000D02*
Y199000D01*
X120500Y186000D02*
X127500Y193000D01*
X120500Y206000D02*
X127500Y199000D01*
X114000Y202500D02*
X120500Y196000D01*
X114000Y202500D02*
Y212000D01*
X118000Y216000D01*
X120500D01*
X327000Y82953D02*
X335000D01*
X119500Y62000D02*
X119500Y62000D01*
X242500Y259968D02*
X247500D01*
X240968Y261500D02*
X242500Y259968D01*
X235953Y261500D02*
X240968D01*
X235500Y261953D02*
X235953Y261500D01*
X114469Y26000D02*
X120500D01*
X114469Y26000D02*
X114469Y26000D01*
X114469Y18500D02*
Y26000D01*
D50*
X120500Y166000D02*
D03*
Y206000D02*
D03*
Y196000D02*
D03*
Y186000D02*
D03*
Y176000D02*
D03*
Y46000D02*
D03*
Y36000D02*
D03*
Y26000D02*
D03*
Y16000D02*
D03*
X419500Y217500D02*
D03*
X418000Y119500D02*
D03*
X166000Y108500D02*
D03*
X122500Y252500D02*
D03*
X242500Y247000D02*
D03*
X263000Y265500D02*
D03*
X242500Y235000D02*
D03*
X498000Y222000D02*
D03*
X389000Y227000D02*
D03*
X238000Y30000D02*
D03*
X7000Y126000D02*
D03*
X156000Y61500D02*
D03*
Y71500D02*
D03*
Y86000D02*
D03*
X8000Y65000D02*
D03*
X563500Y185000D02*
D03*
Y195000D02*
D03*
X551000Y185000D02*
D03*
Y195000D02*
D03*
X520000Y212500D02*
D03*
X411000Y21000D02*
D03*
X411500Y255500D02*
D03*
X421500D02*
D03*
X431500D02*
D03*
X441500D02*
D03*
X451500D02*
D03*
X461500D02*
D03*
X411500Y265500D02*
D03*
X421500D02*
D03*
X431500D02*
D03*
X441500D02*
D03*
X451500D02*
D03*
X231000Y18000D02*
D03*
X221000D02*
D03*
X211000D02*
D03*
X201000D02*
D03*
X191000D02*
D03*
X181000D02*
D03*
X171000D02*
D03*
X161000D02*
D03*
X231000Y8000D02*
D03*
X221000D02*
D03*
X211000D02*
D03*
X201000D02*
D03*
X191000D02*
D03*
X181000D02*
D03*
X171000D02*
D03*
X294400Y83800D02*
D03*
X284400D02*
D03*
X274400D02*
D03*
X264400D02*
D03*
X294400Y73800D02*
D03*
X284400D02*
D03*
X274400D02*
D03*
D51*
X120500Y216000D02*
D03*
X122500Y242500D02*
D03*
X498000Y212000D02*
D03*
X389000Y217000D02*
D03*
X238000Y40000D02*
D03*
X7000Y116000D02*
D03*
X156000Y51500D02*
D03*
X8000Y75000D02*
D03*
X563500Y175000D02*
D03*
X551000D02*
D03*
D52*
X55811Y25500D02*
D03*
X32189D02*
D03*
X44000Y6996D02*
D03*
D53*
X37800Y124976D02*
D03*
Y115213D02*
D03*
Y105449D02*
D03*
Y85764D02*
D03*
Y76000D02*
D03*
X68500Y158000D02*
D03*
Y168000D02*
D03*
Y178000D02*
D03*
Y188000D02*
D03*
Y198000D02*
D03*
X78500Y163000D02*
D03*
Y173000D02*
D03*
Y183000D02*
D03*
Y193000D02*
D03*
Y203000D02*
D03*
D54*
X214295Y47142D02*
D03*
X188705D02*
D03*
Y64858D02*
D03*
X214295D02*
D03*
D55*
X466500Y142500D02*
D03*
X474500Y198500D02*
D03*
X486000Y204000D02*
D03*
X466500Y172500D02*
D03*
X474500Y84000D02*
D03*
X463500Y79000D02*
D03*
Y114500D02*
D03*
X474500Y110000D02*
D03*
X93500Y192500D02*
D03*
X8000Y138000D02*
D03*
X169000Y60000D02*
D03*
X542500Y208000D02*
D03*
Y219000D02*
D03*
Y230500D02*
D03*
X99000Y143000D02*
D03*
X220500Y245500D02*
D03*
X39000Y138000D02*
D03*
X70300Y59300D02*
D03*
X167500Y72500D02*
D03*
X502900Y88900D02*
D03*
X479800Y51600D02*
D03*
X512700Y186100D02*
D03*
X387800Y254100D02*
D03*
X157200Y164600D02*
D03*
X336000Y12500D02*
D03*
X166000Y123000D02*
D03*
X49000Y230700D02*
D03*
D56*
X409500Y217500D02*
D03*
X408000Y119500D02*
D03*
X156000Y108500D02*
D03*
X232500Y247000D02*
D03*
X253000Y265500D02*
D03*
X232500Y235000D02*
D03*
X166000Y86000D02*
D03*
X510000Y212500D02*
D03*
X401000Y21000D02*
D03*
X461500Y265500D02*
D03*
X161000Y8000D02*
D03*
X264400Y73800D02*
D03*
D57*
X55508Y150008D02*
D03*
Y210992D02*
D03*
D58*
X27437Y206602D02*
D03*
Y196602D02*
D03*
Y164398D02*
D03*
Y154398D02*
D03*
D59*
X351000Y21000D02*
D03*
X405000Y9500D02*
D03*
X133000Y211000D02*
D03*
X8756Y99156D02*
D03*
X181000Y53500D02*
D03*
X236000Y62500D02*
D03*
X212500Y84500D02*
D03*
X167500Y37500D02*
D03*
X132500Y30000D02*
D03*
X96000Y89500D02*
D03*
X392000Y20500D02*
D03*
X390000Y9000D02*
D03*
X405000Y57500D02*
D03*
X437500Y117500D02*
D03*
X440500Y83500D02*
D03*
X479500Y185000D02*
D03*
X465000D02*
D03*
X466500Y159500D02*
D03*
Y155000D02*
D03*
X414000Y156500D02*
D03*
X445500Y188000D02*
D03*
X454500D02*
D03*
X451500Y180500D02*
D03*
X454500Y132000D02*
D03*
X438500Y130500D02*
D03*
X408250Y172250D02*
D03*
X408000Y147500D02*
D03*
X263000Y61000D02*
D03*
X74400Y71100D02*
D03*
X92100Y77000D02*
D03*
X74000Y81500D02*
D03*
X70000Y66000D02*
D03*
X192000Y250500D02*
D03*
X282974Y30374D02*
D03*
X303474Y39626D02*
D03*
X442000Y129000D02*
D03*
X530000Y84500D02*
D03*
X368000Y247500D02*
D03*
X490000Y164200D02*
D03*
Y166800D02*
D03*
X559000Y151500D02*
D03*
X559500Y137000D02*
D03*
X209500Y167500D02*
D03*
X190500Y172000D02*
D03*
X155500Y193000D02*
D03*
Y205500D02*
D03*
X243000Y206000D02*
D03*
X106500Y26000D02*
D03*
X520500Y185500D02*
D03*
X526000Y67500D02*
D03*
X472000Y137500D02*
D03*
X547500Y131500D02*
D03*
X529500Y113000D02*
D03*
X487500Y117500D02*
D03*
X529500Y205000D02*
D03*
X444000Y117500D02*
D03*
X236500Y67000D02*
D03*
X417000Y63000D02*
D03*
X432500Y62500D02*
D03*
X455500Y65000D02*
D03*
D60*
X329500Y22500D02*
D03*
X315500D02*
D03*
X376000Y10000D02*
D03*
X142500Y272500D02*
D03*
X427000Y14500D02*
D03*
X197900Y143400D02*
D03*
X321500Y141000D02*
D03*
X426000Y235000D02*
D03*
X431000D02*
D03*
X441000D02*
D03*
X298200Y176400D02*
D03*
X313250Y213850D02*
D03*
X305000Y205500D02*
D03*
X319500Y208500D02*
D03*
X320000Y224500D02*
D03*
X315500Y202000D02*
D03*
Y204500D02*
D03*
Y207500D02*
D03*
X315400Y210200D02*
D03*
X275000Y201900D02*
D03*
X256400Y137200D02*
D03*
X245700Y70000D02*
D03*
X301600Y184400D02*
D03*
X301800Y176400D02*
D03*
X305700Y176300D02*
D03*
X293900Y176400D02*
D03*
X290000Y176300D02*
D03*
X301800Y172500D02*
D03*
X305700Y172400D02*
D03*
Y168500D02*
D03*
X391500Y140800D02*
D03*
X349100Y144900D02*
D03*
X437000Y222000D02*
D03*
X234000Y48000D02*
D03*
X214300Y155400D02*
D03*
X215300Y86600D02*
D03*
X216300Y174600D02*
D03*
X226000Y168000D02*
D03*
X220000Y89000D02*
D03*
X13000Y90000D02*
D03*
X20000D02*
D03*
X26000D02*
D03*
X32000D02*
D03*
X38000D02*
D03*
X207500Y162500D02*
D03*
X210000Y160000D02*
D03*
X228000Y184000D02*
D03*
X147000Y266000D02*
D03*
Y262000D02*
D03*
X274400Y180300D02*
D03*
X249900Y253000D02*
D03*
X249950Y170600D02*
D03*
X274700Y190100D02*
D03*
X301700Y180400D02*
D03*
X222800Y91000D02*
D03*
Y56900D02*
D03*
X374300Y65700D02*
D03*
X375000Y100000D02*
D03*
X380500Y116500D02*
D03*
X376400Y106700D02*
D03*
X200000Y120500D02*
D03*
X214600Y97400D02*
D03*
X333400Y89000D02*
D03*
X354900Y94300D02*
D03*
X357500Y92700D02*
D03*
X349100Y105500D02*
D03*
X214800Y55000D02*
D03*
X347700D02*
D03*
X368400Y43800D02*
D03*
X368500Y90400D02*
D03*
X365700Y93700D02*
D03*
X353100Y113300D02*
D03*
X235000Y95000D02*
D03*
X365000Y43500D02*
D03*
X239500Y52000D02*
D03*
X239000Y95000D02*
D03*
X345000Y125000D02*
D03*
X243500Y95000D02*
D03*
Y58000D02*
D03*
X372000Y58500D02*
D03*
X364800Y101500D02*
D03*
X380000Y50000D02*
D03*
X168500Y51000D02*
D03*
X345000Y65000D02*
D03*
X345050Y109500D02*
D03*
X427000Y18000D02*
D03*
X433500Y10500D02*
D03*
X430000D02*
D03*
X433500Y14500D02*
D03*
Y18000D02*
D03*
X446000Y88016D02*
D03*
X441000Y86000D02*
D03*
X407500Y108000D02*
D03*
X405500Y105000D02*
D03*
X441000Y88500D02*
D03*
X248500Y160000D02*
D03*
X282000Y160685D02*
D03*
X403500Y156500D02*
D03*
X453000Y171500D02*
D03*
X349000Y172500D02*
D03*
X450000Y160500D02*
D03*
X447500Y152500D02*
D03*
X300000Y224000D02*
D03*
X302500Y221000D02*
D03*
X375500Y62500D02*
D03*
Y55000D02*
D03*
Y47500D02*
D03*
Y40000D02*
D03*
Y32500D02*
D03*
Y25000D02*
D03*
Y17500D02*
D03*
X188500Y259500D02*
D03*
X286000Y168500D02*
D03*
X274500Y166050D02*
D03*
X202000Y152500D02*
D03*
X187500Y147500D02*
D03*
X175000Y137500D02*
D03*
Y132500D02*
D03*
X201000Y137000D02*
D03*
X220000Y152500D02*
D03*
X248000Y150000D02*
D03*
X220000Y137500D02*
D03*
Y148500D02*
D03*
X273000Y147000D02*
D03*
X259000Y133000D02*
D03*
X187500Y137500D02*
D03*
X175000Y125000D02*
D03*
X205000Y137000D02*
D03*
X262500Y133000D02*
D03*
X140000Y132500D02*
D03*
Y128000D02*
D03*
X220000Y132500D02*
D03*
X225000Y100000D02*
D03*
X259000Y137000D02*
D03*
X242500D02*
D03*
X263000D02*
D03*
X240000Y121500D02*
D03*
X202500Y145000D02*
D03*
X242500Y152500D02*
D03*
X180500Y206000D02*
D03*
X212500Y212500D02*
D03*
Y165000D02*
D03*
Y107500D02*
D03*
X229000Y211500D02*
D03*
X230000Y165000D02*
D03*
X203500Y241000D02*
D03*
X210000Y112500D02*
D03*
X207500Y242500D02*
D03*
Y103500D02*
D03*
X228000Y250500D02*
D03*
X240000Y150000D02*
D03*
X225000Y155000D02*
D03*
X227500Y157500D02*
D03*
X225000Y109500D02*
D03*
X227500Y122500D02*
D03*
X278193Y97693D02*
D03*
X264000Y105600D02*
D03*
X290004Y97693D02*
D03*
X286067Y109504D02*
D03*
X262500Y115500D02*
D03*
X278193Y117378D02*
D03*
Y121315D02*
D03*
X270000Y123500D02*
D03*
X286067Y129189D02*
D03*
X290004D02*
D03*
X277594Y135094D02*
D03*
X277500Y147000D02*
D03*
X278193Y160685D02*
D03*
X290004Y144937D02*
D03*
Y156748D02*
D03*
Y168559D02*
D03*
X293800Y90000D02*
D03*
X293941Y121315D02*
D03*
X297878Y113441D02*
D03*
X301815Y129189D02*
D03*
X305700Y85400D02*
D03*
X317600Y85500D02*
D03*
X305752Y125252D02*
D03*
X309689Y129189D02*
D03*
X305752Y133126D02*
D03*
X313626Y125252D02*
D03*
Y133126D02*
D03*
X317563Y129189D02*
D03*
X293941Y137063D02*
D03*
X301815D02*
D03*
X305752Y144937D02*
D03*
X301815Y148874D02*
D03*
X305752Y152811D02*
D03*
X297878Y160685D02*
D03*
Y168559D02*
D03*
X301815Y156748D02*
D03*
Y164622D02*
D03*
X305752Y160685D02*
D03*
X309689Y137063D02*
D03*
X317563D02*
D03*
X313626Y144937D02*
D03*
X309689Y148874D02*
D03*
Y156748D02*
D03*
X313626Y152811D02*
D03*
X317563Y148874D02*
D03*
X313626Y160685D02*
D03*
X317563Y156748D02*
D03*
X209100Y174600D02*
D03*
X193500Y238000D02*
D03*
X248500Y172500D02*
D03*
X278193Y172496D02*
D03*
Y184307D02*
D03*
X277600Y225100D02*
D03*
X282130Y180370D02*
D03*
X281500Y202100D02*
D03*
X297878Y172496D02*
D03*
X290004Y184307D02*
D03*
X309689Y172496D02*
D03*
X317563Y176433D02*
D03*
X298300Y238200D02*
D03*
X315500Y185000D02*
D03*
X272000Y262400D02*
D03*
X299400Y268500D02*
D03*
X338000Y85600D02*
D03*
X325437Y125252D02*
D03*
X329374Y129189D02*
D03*
X333311Y125252D02*
D03*
X337248Y129189D02*
D03*
X347800Y59500D02*
D03*
Y80900D02*
D03*
X356933Y109504D02*
D03*
X345122Y113441D02*
D03*
X349059Y121315D02*
D03*
X352996Y129189D02*
D03*
X356933Y133126D02*
D03*
X325437D02*
D03*
X329374Y137063D02*
D03*
X333311Y133126D02*
D03*
Y144937D02*
D03*
X325437D02*
D03*
Y152811D02*
D03*
X329374Y148874D02*
D03*
X333311Y152811D02*
D03*
X329374Y156748D02*
D03*
X337248Y137063D02*
D03*
X333500Y141000D02*
D03*
X341185Y133126D02*
D03*
X356933Y137063D02*
D03*
X337248Y148874D02*
D03*
Y156748D02*
D03*
X341185Y144937D02*
D03*
X345122D02*
D03*
X341185Y152811D02*
D03*
X352996Y156748D02*
D03*
X364807Y97693D02*
D03*
Y117378D02*
D03*
X420400Y85800D02*
D03*
X439500Y91100D02*
D03*
X440400Y100700D02*
D03*
X364807Y121315D02*
D03*
Y133126D02*
D03*
X380400Y121000D02*
D03*
X380100Y125400D02*
D03*
X365406Y146906D02*
D03*
X380500Y136600D02*
D03*
X443400Y134700D02*
D03*
X407600Y140200D02*
D03*
X400300Y153000D02*
D03*
X381550Y154950D02*
D03*
X458400Y141284D02*
D03*
X325437Y160685D02*
D03*
X333311D02*
D03*
X341185D02*
D03*
X337248Y164622D02*
D03*
X333311Y172496D02*
D03*
X345122Y168559D02*
D03*
X352996D02*
D03*
X345122Y172496D02*
D03*
X365283Y158716D02*
D03*
X364807Y172496D02*
D03*
X360870Y180370D02*
D03*
X414000Y172500D02*
D03*
X435800Y168500D02*
D03*
X322500Y224500D02*
D03*
X329374Y184307D02*
D03*
X341185D02*
D03*
X327000Y242500D02*
D03*
X337400Y239000D02*
D03*
X352996Y184307D02*
D03*
X357500Y214100D02*
D03*
X364807Y184307D02*
D03*
X435000Y238400D02*
D03*
X458600Y171800D02*
D03*
X392000Y168500D02*
D03*
X387500D02*
D03*
X385000D02*
D03*
X382500D02*
D03*
X321500Y129000D02*
D03*
Y153000D02*
D03*
Y149000D02*
D03*
Y145000D02*
D03*
Y133000D02*
D03*
Y137000D02*
D03*
X309500Y141000D02*
D03*
X313500D02*
D03*
X317500D02*
D03*
X329500D02*
D03*
X378000Y186500D02*
D03*
X375400Y180500D02*
D03*
X379250Y189250D02*
D03*
X419748Y105748D02*
D03*
X420000Y95500D02*
D03*
Y98000D02*
D03*
Y100500D02*
D03*
Y103000D02*
D03*
X551000Y153000D02*
D03*
X290450Y222831D02*
D03*
X277016Y242516D02*
D03*
X552100Y158700D02*
D03*
X504531Y181569D02*
D03*
X231700Y191592D02*
D03*
X368400Y133100D02*
D03*
X360870Y137063D02*
D03*
X337200Y184259D02*
D03*
X360631Y85532D02*
D03*
X344300Y72800D02*
D03*
X325700Y91500D02*
D03*
X372484Y242516D02*
D03*
X517500Y165000D02*
D03*
X517642Y162358D02*
D03*
X435000Y108000D02*
D03*
X382500Y197500D02*
D03*
X437500D02*
D03*
X331500Y91500D02*
D03*
X392500Y192000D02*
D03*
X410000Y176500D02*
D03*
X412098Y178402D02*
D03*
X330000Y203000D02*
D03*
Y208500D02*
D03*
X328000Y213000D02*
D03*
X331500D02*
D03*
X338550Y228500D02*
D03*
X341500Y221000D02*
D03*
X339000Y225000D02*
D03*
X338550Y231123D02*
D03*
X332500Y224500D02*
D03*
X298000Y234500D02*
D03*
X324000Y230071D02*
D03*
Y233024D02*
D03*
X323976Y236000D02*
D03*
X323929Y242000D02*
D03*
X323976Y245000D02*
D03*
X324000Y247976D02*
D03*
Y250929D02*
D03*
X321000Y230118D02*
D03*
Y233071D02*
D03*
X320976Y242000D02*
D03*
X321000Y244976D02*
D03*
Y247929D02*
D03*
X315000Y230000D02*
D03*
Y233000D02*
D03*
Y236000D02*
D03*
Y242000D02*
D03*
Y245000D02*
D03*
Y248000D02*
D03*
Y250882D02*
D03*
X312000Y230000D02*
D03*
Y233000D02*
D03*
Y236000D02*
D03*
Y242000D02*
D03*
Y245000D02*
D03*
Y251000D02*
D03*
X319500Y266000D02*
D03*
X316500Y269500D02*
D03*
X313500D02*
D03*
X322000Y266000D02*
D03*
X311732Y260232D02*
D03*
X321500Y257500D02*
D03*
X299000Y248500D02*
D03*
X297000Y245000D02*
D03*
X294500Y239000D02*
D03*
X331110Y232110D02*
D03*
X318669Y222831D02*
D03*
X346079Y238579D02*
D03*
X307000Y222500D02*
D03*
X302000Y233000D02*
D03*
X300000Y231000D02*
D03*
X304000Y229000D02*
D03*
Y248500D02*
D03*
X330500Y262500D02*
D03*
X329000Y264000D02*
D03*
X303827Y254327D02*
D03*
X304000Y258000D02*
D03*
X325437Y137063D02*
D03*
X317563Y144937D02*
D03*
Y133126D02*
D03*
X313626Y137063D02*
D03*
X329374Y144937D02*
D03*
X325437Y148874D02*
D03*
X329374Y133126D02*
D03*
X313626Y148874D02*
D03*
X325437Y129189D02*
D03*
X333311Y137063D02*
D03*
X309689Y144937D02*
D03*
X317563Y152811D02*
D03*
X313626Y129189D02*
D03*
X309689Y133126D02*
D03*
X333311Y148874D02*
D03*
X329374Y152811D02*
D03*
X317563Y125252D02*
D03*
X333311Y129189D02*
D03*
X305752Y137063D02*
D03*
X337248Y144937D02*
D03*
X309689Y152811D02*
D03*
X325437Y156748D02*
D03*
X329374Y125252D02*
D03*
X337248Y133126D02*
D03*
X305752Y148874D02*
D03*
X313626Y156748D02*
D03*
X305752Y129189D02*
D03*
X309689Y125252D02*
D03*
X333311Y156748D02*
D03*
X337248Y152811D02*
D03*
X317563Y121315D02*
D03*
X301815Y144937D02*
D03*
X341185Y137063D02*
D03*
X317563Y160685D02*
D03*
X313626Y121315D02*
D03*
X301815Y133126D02*
D03*
X341185Y148874D02*
D03*
X329374Y160685D02*
D03*
X337248Y125252D02*
D03*
X305752Y156748D02*
D03*
X309689Y121315D02*
D03*
X333311D02*
D03*
X341185Y129189D02*
D03*
X301815Y152811D02*
D03*
X309689Y160685D02*
D03*
X317563Y117378D02*
D03*
X297878Y137063D02*
D03*
Y144937D02*
D03*
X313626Y117378D02*
D03*
X329374D02*
D03*
X305752Y121315D02*
D03*
X297878Y133126D02*
D03*
X337248Y121315D02*
D03*
X341185Y125252D02*
D03*
X297878Y148874D02*
D03*
X341185Y156748D02*
D03*
X337248Y160685D02*
D03*
X329374Y164622D02*
D03*
X345122Y148874D02*
D03*
X297878Y152811D02*
D03*
X345122Y129189D02*
D03*
Y152811D02*
D03*
X333311Y164622D02*
D03*
X301815Y121315D02*
D03*
X341185D02*
D03*
X337248Y117378D02*
D03*
X293941Y144937D02*
D03*
X297878Y156748D02*
D03*
X317563Y168559D02*
D03*
X325437D02*
D03*
X313626Y113441D02*
D03*
X293941Y133126D02*
D03*
X349059D02*
D03*
X293941Y148874D02*
D03*
X349059D02*
D03*
X313626Y168559D02*
D03*
X329374D02*
D03*
X349059Y129189D02*
D03*
X293941Y152811D02*
D03*
X349059D02*
D03*
X309689Y168559D02*
D03*
X333311D02*
D03*
X301815Y117378D02*
D03*
X297878Y121315D02*
D03*
X341185Y117378D02*
D03*
X345122Y160685D02*
D03*
X341185Y164622D02*
D03*
X337248Y113441D02*
D03*
X293941Y156748D02*
D03*
X317563Y109504D02*
D03*
X290004Y137063D02*
D03*
X352996D02*
D03*
Y144937D02*
D03*
X317563Y172496D02*
D03*
X325437D02*
D03*
X313626Y109504D02*
D03*
X290004Y133126D02*
D03*
X352996D02*
D03*
X290004Y148874D02*
D03*
X352996D02*
D03*
X313626Y172496D02*
D03*
X329374D02*
D03*
X297878Y164622D02*
D03*
X345122D02*
D03*
X290004Y152811D02*
D03*
X352996D02*
D03*
X293941Y160685D02*
D03*
X349059D02*
D03*
X301815Y168559D02*
D03*
X341185D02*
D03*
X337248Y109504D02*
D03*
Y172496D02*
D03*
X293941Y117378D02*
D03*
X349059D02*
D03*
X286067Y137063D02*
D03*
Y144937D02*
D03*
X293941Y164622D02*
D03*
X349059D02*
D03*
X325437Y176433D02*
D03*
X313626Y105567D02*
D03*
X286067Y133126D02*
D03*
Y148874D02*
D03*
X356933D02*
D03*
X313626Y176433D02*
D03*
X329374D02*
D03*
X301815Y109504D02*
D03*
X341185D02*
D03*
X290004Y121315D02*
D03*
Y160685D02*
D03*
X333311Y105567D02*
D03*
X286067Y152811D02*
D03*
X356933Y129189D02*
D03*
X309689Y176433D02*
D03*
X333311D02*
D03*
X305752Y105567D02*
D03*
X337248D02*
D03*
X293941Y113441D02*
D03*
X286067Y156748D02*
D03*
X349059Y168559D02*
D03*
X337248Y176433D02*
D03*
X290004Y117378D02*
D03*
X352996D02*
D03*
X325437Y101630D02*
D03*
X313626D02*
D03*
X286067Y121315D02*
D03*
X341185Y105567D02*
D03*
X286067Y160685D02*
D03*
X329374Y180370D02*
D03*
X309689Y101630D02*
D03*
X360870Y129189D02*
D03*
X293941Y109504D02*
D03*
X349059D02*
D03*
X290004Y113441D02*
D03*
X337248Y101630D02*
D03*
X297878Y105567D02*
D03*
X286067Y117378D02*
D03*
X282130Y125252D02*
D03*
Y156748D02*
D03*
X360870Y125252D02*
D03*
X356933Y164622D02*
D03*
X345122Y176433D02*
D03*
X337248Y180370D02*
D03*
X282130Y121315D02*
D03*
X360870D02*
D03*
X341185Y180370D02*
D03*
X313626Y97693D02*
D03*
X290004Y109504D02*
D03*
X286067Y113441D02*
D03*
X293941Y105567D02*
D03*
X349059Y176433D02*
D03*
X309689Y97693D02*
D03*
X337248D02*
D03*
X290004Y105567D02*
D03*
X352996D02*
D03*
X293941Y101630D02*
D03*
Y180370D02*
D03*
X349059D02*
D03*
X286067Y105567D02*
D03*
X290004Y101630D02*
D03*
X282130Y172496D02*
D03*
X352996Y180370D02*
D03*
X349059Y97693D02*
D03*
X286067Y101630D02*
D03*
X282130Y105567D02*
D03*
X360870D02*
D03*
X356933Y180370D02*
D03*
X352996Y97693D02*
D03*
X364807Y105567D02*
D03*
X345000Y244500D02*
D03*
X332000Y218500D02*
D03*
X323000Y203000D02*
D03*
X345000Y187500D02*
D03*
X332500Y190000D02*
D03*
X329450Y198900D02*
D03*
X323000Y205500D02*
D03*
X326000Y209000D02*
D03*
X353500Y216000D02*
D03*
X353000Y264000D02*
D03*
X351950Y259950D02*
D03*
X350500Y262000D02*
D03*
X345000Y240500D02*
D03*
X348000Y219000D02*
D03*
Y266000D02*
D03*
X271500Y227000D02*
D03*
X268500Y151500D02*
D03*
Y231000D02*
D03*
X267500Y236500D02*
D03*
X266500Y156500D02*
D03*
X264000D02*
D03*
X265500Y240500D02*
D03*
X264000Y246500D02*
D03*
X260000Y167500D02*
D03*
X262000Y248500D02*
D03*
X260000Y152500D02*
D03*
X260500Y250500D02*
D03*
X257000Y163000D02*
D03*
X258500Y252500D02*
D03*
X256500Y254000D02*
D03*
X253500Y159500D02*
D03*
X254500Y256000D02*
D03*
X251500Y150000D02*
D03*
X253000Y258500D02*
D03*
X292000Y260000D02*
D03*
X290450Y263550D02*
D03*
X290000Y214500D02*
D03*
X290500Y266000D02*
D03*
X337000Y218500D02*
D03*
X313000Y222500D02*
D03*
X339000Y268000D02*
D03*
X342500D02*
D03*
X275000Y109500D02*
D03*
X308000Y210000D02*
D03*
X309500Y207000D02*
D03*
X360937Y176500D02*
D03*
X361000Y172500D02*
D03*
X353000Y160689D02*
D03*
X357000Y160752D02*
D03*
X365500Y131000D02*
D03*
X426000Y130000D02*
D03*
X456500Y235000D02*
D03*
X461000Y123500D02*
D03*
Y235000D02*
D03*
X428500Y167500D02*
D03*
X433000Y166000D02*
D03*
Y162000D02*
D03*
X435500Y164000D02*
D03*
X353000Y164500D02*
D03*
X369000Y158500D02*
D03*
X436500Y160000D02*
D03*
X438500Y158000D02*
D03*
X443000Y149000D02*
D03*
X445000Y147000D02*
D03*
X377500Y143000D02*
D03*
X380000Y150500D02*
D03*
X377500Y180000D02*
D03*
X380000Y182000D02*
D03*
X382500Y184000D02*
D03*
X385000Y186000D02*
D03*
X387500Y188000D02*
D03*
X390000Y156500D02*
D03*
Y190000D02*
D03*
X392500Y172500D02*
D03*
X352500Y190000D02*
D03*
X339216Y97284D02*
D03*
X343154Y97154D02*
D03*
X341185Y82815D02*
D03*
X292500Y210500D02*
D03*
X296000Y205000D02*
D03*
X298000Y212500D02*
D03*
Y207500D02*
D03*
X290004Y164622D02*
D03*
X286189Y164500D02*
D03*
X288000Y191500D02*
D03*
Y194500D02*
D03*
Y197500D02*
D03*
X294000Y200000D02*
D03*
X302000Y202000D02*
D03*
X274500Y168500D02*
D03*
X248500Y169000D02*
D03*
X354500Y214000D02*
D03*
X345000Y200000D02*
D03*
X342500Y200500D02*
D03*
X334000Y213000D02*
D03*
X336500Y208500D02*
D03*
X339500Y198500D02*
D03*
X331000Y188500D02*
D03*
X392500Y148500D02*
D03*
X391500Y143000D02*
D03*
Y133500D02*
D03*
X389500Y119000D02*
D03*
X431000Y132000D02*
D03*
X342500Y61500D02*
D03*
X334500Y51000D02*
D03*
X274000Y160500D02*
D03*
X368450Y125050D02*
D03*
X301550Y187450D02*
D03*
X439450Y165500D02*
D03*
X389000Y146000D02*
D03*
X357000Y156815D02*
D03*
X274000Y121500D02*
D03*
X281500Y188000D02*
D03*
X360870Y156748D02*
D03*
Y168559D02*
D03*
X305752Y180370D02*
D03*
X282130Y168559D02*
D03*
X263500Y125500D02*
D03*
X349000Y93500D02*
D03*
X308500D02*
D03*
X313050D02*
D03*
X325500Y95500D02*
D03*
X456500Y126000D02*
D03*
X341000Y79000D02*
D03*
X361500Y75500D02*
D03*
X497000Y134000D02*
D03*
X525500Y126500D02*
D03*
X535090Y126900D02*
D03*
X379500Y192000D02*
D03*
X373500Y141500D02*
D03*
X483600Y144000D02*
D03*
X443950Y80750D02*
D03*
X353000Y176437D02*
D03*
X357000Y152878D02*
D03*
X439000Y134500D02*
D03*
X553500Y136000D02*
D03*
X331500Y73000D02*
D03*
X345000Y247500D02*
D03*
X235000Y117900D02*
D03*
Y165000D02*
D03*
X232500Y162500D02*
D03*
Y101500D02*
D03*
X230000Y120000D02*
D03*
Y160000D02*
D03*
X510000Y149500D02*
D03*
X508000Y151000D02*
D03*
X498000Y150500D02*
D03*
X509500Y137500D02*
D03*
X535500Y162500D02*
D03*
X525500Y161000D02*
D03*
X546610Y152000D02*
D03*
X531500Y185000D02*
D03*
X459000Y128000D02*
D03*
X507500Y135500D02*
D03*
X500500Y130500D02*
D03*
X454500Y129000D02*
D03*
X510000Y158000D02*
D03*
X499000Y158500D02*
D03*
X534000Y67500D02*
D03*
X462500Y70000D02*
D03*
X482000Y69000D02*
D03*
Y141500D02*
D03*
X544500Y135500D02*
D03*
X543500Y153500D02*
D03*
X519500Y161000D02*
D03*
X519000Y127500D02*
D03*
X516000D02*
D03*
X529500Y126500D02*
D03*
X540500Y117000D02*
D03*
X349000Y156500D02*
D03*
X345000D02*
D03*
X392500Y166000D02*
D03*
X405500Y165500D02*
D03*
X349000Y137122D02*
D03*
X392000Y115500D02*
D03*
X439500Y93500D02*
D03*
X478000Y117500D02*
D03*
X403500Y77000D02*
D03*
X274500Y113050D02*
D03*
X267000Y123500D02*
D03*
X256500Y50000D02*
D03*
X274000Y156500D02*
D03*
X248000Y153500D02*
D03*
Y67500D02*
D03*
X422500D02*
D03*
X386450Y148950D02*
D03*
X444000Y243000D02*
D03*
X437000Y241500D02*
D03*
X447000Y243000D02*
D03*
X464000Y153000D02*
D03*
X349059Y101630D02*
D03*
D61*
X377500Y14500D02*
D03*
X51150Y103450D02*
D03*
X480800Y61600D02*
D03*
X491400Y71600D02*
D03*
X77000Y141000D02*
D03*
X401000Y27000D02*
D03*
X462500Y35000D02*
D03*
X428000Y40500D02*
D03*
X470000Y212500D02*
D03*
X435000Y207500D02*
D03*
X264000Y22000D02*
D03*
X129000Y92000D02*
D03*
X37500Y244500D02*
D03*
Y231000D02*
D03*
Y270000D02*
D03*
X55000Y271500D02*
D03*
X157500Y214000D02*
D03*
Y230500D02*
D03*
X62500Y93000D02*
D03*
X86000Y252500D02*
D03*
X79031Y257000D02*
D03*
X446000Y230000D02*
D03*
X453000D02*
D03*
X71000Y223500D02*
D03*
X513500Y59000D02*
D03*
X504000Y49000D02*
D03*
X536000Y50000D02*
D03*
X532229Y38100D02*
D03*
X529000Y28000D02*
D03*
X495500Y38500D02*
D03*
X486500Y28000D02*
D03*
X487000Y230000D02*
D03*
X481000D02*
D03*
X495000Y170000D02*
D03*
Y200000D02*
D03*
X566000Y80000D02*
D03*
Y90000D02*
D03*
Y110000D02*
D03*
Y127500D02*
D03*
Y70000D02*
D03*
Y40000D02*
D03*
Y30000D02*
D03*
X559000Y157500D02*
D03*
Y165500D02*
D03*
X525000Y200000D02*
D03*
X515000D02*
D03*
X505000D02*
D03*
X495000Y190000D02*
D03*
Y180000D02*
D03*
X492300Y95600D02*
D03*
X492200Y82800D02*
D03*
X499600Y117900D02*
D03*
X566000Y100000D02*
D03*
X545000Y106500D02*
D03*
X512000Y102000D02*
D03*
X549000Y124000D02*
D03*
X566000Y120000D02*
D03*
X479200Y216300D02*
D03*
X276000Y265500D02*
D03*
X119500Y62000D02*
D03*
X94000Y65500D02*
D03*
X205000Y262500D02*
D03*
X96000Y230000D02*
D03*
X60000Y272000D02*
D03*
X65500Y240000D02*
D03*
X93500Y255000D02*
D03*
X427500Y47500D02*
D03*
X112000Y53500D02*
D03*
X101500Y43500D02*
D03*
X94500D02*
D03*
X101500Y34500D02*
D03*
X94500D02*
D03*
X78500Y35500D02*
D03*
Y43500D02*
D03*
D62*
X474500Y95000D02*
D03*
Y99000D02*
D03*
X207600Y204900D02*
D03*
X228500Y195900D02*
D03*
X223400Y228900D02*
D03*
X202100Y192000D02*
D03*
X200500Y211000D02*
D03*
X184600Y182500D02*
D03*
X184127Y188873D02*
D03*
X181700Y229400D02*
D03*
X171600Y186700D02*
D03*
X304300Y80300D02*
D03*
X327000Y87500D02*
D03*
X294000Y263500D02*
D03*
X542500Y170500D02*
D03*
X512500Y120000D02*
D03*
D63*
X381900Y212300D02*
D03*
X223000Y171500D02*
D03*
X72500Y228000D02*
D03*
X167500Y263000D02*
D03*
X182500Y242000D02*
D03*
X381400Y28400D02*
D03*
X399000Y57000D02*
D03*
D64*
X555000Y52500D02*
D03*
Y252500D02*
D03*
X55000D02*
D03*
Y52500D02*
D03*
D65*
X180000Y202500D02*
D03*
D66*
X103000Y253500D02*
D03*
X275500Y215000D02*
D03*
X218800Y166500D02*
D03*
X231000Y206000D02*
D03*
X216000Y212500D02*
D03*
X167000Y194000D02*
D03*
X167000Y202000D02*
D03*
D67*
X466600Y48900D02*
D03*
X214500Y193500D02*
D03*
X532500Y144500D02*
D03*
X520500D02*
D03*
X526500Y150500D02*
D03*
Y138500D02*
D03*
Y144500D02*
D03*
X520500Y138500D02*
D03*
X532500D02*
D03*
Y150500D02*
D03*
X520500D02*
D03*
X384000Y48000D02*
D03*
D68*
X96550Y135550D02*
D03*
X119000Y80000D02*
D03*
X216500Y267000D02*
D03*
X235500D02*
D03*
X151000Y258000D02*
D03*
D69*
X142500Y40000D02*
D03*
D70*
X312000Y250929D02*
X313571Y249358D01*
D71*
X75950Y119050D02*
D03*
D72*
X51150D02*
D03*
Y110050D02*
D03*
Y128050D02*
D03*
D73*
X345508Y37500D02*
D03*
X446492D02*
D03*
D74*
X396000D02*
D03*
D75*
X139984Y47850D02*
D03*
X132504Y51591D02*
D03*
Y44110D02*
D03*
X109240Y86000D02*
D03*
X101760Y89740D02*
D03*
Y82260D02*
D03*
D76*
X23500Y134047D02*
D03*
Y139953D02*
D03*
D77*
X55500Y16315D02*
D03*
Y5685D02*
D03*
D78*
X175268Y239500D02*
D03*
Y259500D02*
D03*
X158732D02*
D03*
Y239500D02*
D03*
D79*
X369571Y81500D02*
D03*
X353429D02*
D03*
D80*
X325382Y252311D02*
D03*
X322429D02*
D03*
X319476D02*
D03*
X316524D02*
D03*
X313571D02*
D03*
X310618D02*
D03*
X325382Y249358D02*
D03*
X322429D02*
D03*
X319476D02*
D03*
X316524D02*
D03*
X313571D02*
D03*
X310618D02*
D03*
X325382Y246406D02*
D03*
X322429D02*
D03*
X319476D02*
D03*
X316524D02*
D03*
X313571D02*
D03*
X310618D02*
D03*
X325382Y243453D02*
D03*
X322429D02*
D03*
X319476D02*
D03*
X316524D02*
D03*
X313571D02*
D03*
X310618D02*
D03*
X325382Y240500D02*
D03*
X322429D02*
D03*
X319476D02*
D03*
X316524D02*
D03*
X313571D02*
D03*
X310618D02*
D03*
X325382Y237547D02*
D03*
X322429D02*
D03*
X319476D02*
D03*
X316524D02*
D03*
X313571D02*
D03*
X310618D02*
D03*
X325382Y234594D02*
D03*
X322429D02*
D03*
X319476D02*
D03*
X316524D02*
D03*
X313571D02*
D03*
X310618D02*
D03*
X325382Y231642D02*
D03*
X322429D02*
D03*
X319476D02*
D03*
X316524D02*
D03*
X313571D02*
D03*
X310618D02*
D03*
X325382Y228689D02*
D03*
X322429D02*
D03*
X319476D02*
D03*
X316524D02*
D03*
X313571D02*
D03*
X310618D02*
D03*
D81*
X466500Y55260D02*
D03*
X470240Y62740D02*
D03*
X462760D02*
D03*
X464000Y210240D02*
D03*
X460260Y202760D02*
D03*
X467740D02*
D03*
D82*
X542937Y179760D02*
D03*
Y183500D02*
D03*
Y187240D02*
D03*
X535063D02*
D03*
Y183500D02*
D03*
Y179760D02*
D03*
D83*
X81949Y71500D02*
D03*
Y81500D02*
D03*
Y76500D02*
D03*
Y86500D02*
D03*
X63051Y71500D02*
D03*
Y76500D02*
D03*
Y81500D02*
D03*
Y86500D02*
D03*
D84*
X36342Y43500D02*
D03*
X16657D02*
D03*
D85*
X24100Y76000D02*
X37800D01*
X16657Y43500D02*
Y68558D01*
X24100Y76000D01*
X9764Y85764D02*
X37800D01*
X8000Y84000D02*
X9764Y85764D01*
X44000Y6996D02*
X45311Y5685D01*
X55500D01*
X8000Y65000D02*
Y75000D01*
Y84000D01*
D86*
X120500Y166000D02*
X124469D01*
X127500Y169032D01*
X120500Y176000D02*
X124469D01*
X127500Y172968D01*
X102469Y77000D02*
Y80000D01*
Y81551D01*
X110531Y12968D02*
Y18500D01*
Y12968D02*
X113000Y10500D01*
X126000D01*
X127500Y12000D01*
Y33500D01*
X125000Y36000D02*
X127500Y33500D01*
X120500Y36000D02*
X125000D01*
D87*
X55500Y16315D02*
X55811Y16626D01*
X36342Y43500D02*
X37811D01*
X55811Y25500D01*
Y16626D02*
Y25500D01*
M02*
