%FSLAX25Y25*%
%MOIN*%
G70*
G01*
G75*
G04 Layer_Physical_Order=4*
G04 Layer_Color=6736896*
%ADD10C,0.01000*%
%ADD11R,0.02362X0.01969*%
%ADD12R,0.01969X0.02362*%
%ADD13R,0.04331X0.05512*%
%ADD14R,0.05118X0.02165*%
%ADD15R,0.03150X0.03543*%
%ADD16R,0.02362X0.09843*%
%ADD17R,0.07874X0.21654*%
%ADD18O,0.02362X0.08465*%
%ADD19R,0.03543X0.03150*%
%ADD20R,0.03937X0.04724*%
%ADD21R,0.02165X0.05118*%
%ADD22O,0.06496X0.01181*%
%ADD23O,0.01181X0.06496*%
%ADD24R,0.08858X0.01969*%
%ADD25R,0.15748X0.08071*%
%ADD26R,0.05512X0.04331*%
%ADD27R,0.01575X0.03347*%
%ADD28C,0.01969*%
%ADD29O,0.06693X0.01181*%
%ADD30R,0.01772X0.08268*%
%ADD31O,0.01772X0.08268*%
%ADD32O,0.07087X0.01378*%
%ADD33R,0.01181X0.02953*%
%ADD34R,0.01181X0.03347*%
%ADD35R,0.02953X0.01181*%
%ADD36R,0.03347X0.01181*%
%ADD37R,0.21260X0.21260*%
%ADD38R,0.11024X0.03937*%
%ADD39R,0.03150X0.01181*%
%ADD40R,0.04921X0.15748*%
%ADD41C,0.00500*%
%ADD42C,0.00800*%
%ADD43C,0.01200*%
%ADD44C,0.01190*%
%ADD45C,0.01600*%
%ADD46C,0.02500*%
%ADD47C,0.03000*%
%ADD48C,0.02000*%
%ADD49C,0.01500*%
%ADD50C,0.05906*%
%ADD51R,0.05906X0.05906*%
%ADD52R,0.08661X0.08661*%
%ADD53C,0.04921*%
%ADD54C,0.06299*%
%ADD55C,0.06614*%
%ADD56R,0.05906X0.05906*%
%ADD57C,0.08661*%
%ADD58C,0.05709*%
%ADD59C,0.02000*%
%ADD60C,0.01600*%
%ADD61C,0.03200*%
%ADD62C,0.02600*%
%ADD63C,0.02400*%
%ADD64C,0.15000*%
%ADD65C,0.01800*%
%ADD66C,0.02200*%
%ADD67C,0.03600*%
%ADD68C,0.03000*%
%ADD69C,0.02900*%
%ADD70C,0.00600*%
D10*
X276000Y243531D02*
Y265500D01*
Y243531D02*
X277016Y242516D01*
X290450Y229082D01*
Y222831D02*
Y229082D01*
X269200Y234700D02*
X277016Y242516D01*
X242800Y234700D02*
X269200D01*
X242500Y235000D02*
X242800Y234700D01*
X372484Y242516D02*
X372500Y242531D01*
X463500Y84000D02*
X474500Y95000D01*
X463500Y79000D02*
Y84000D01*
Y110000D02*
X474500Y99000D01*
X463500Y110000D02*
Y114500D01*
D41*
X298096Y207404D02*
X313000Y222308D01*
X298000Y207308D02*
X298096Y207404D01*
X264600Y83600D02*
X265000Y84000D01*
X260000Y79000D02*
X264600Y83600D01*
X375500Y142500D02*
Y180500D01*
X329500Y22500D02*
Y106000D01*
X315500Y22500D02*
Y165500D01*
X511700Y3000D02*
X522800Y14100D01*
X253200Y3000D02*
X511700D01*
X249950Y6250D02*
X253200Y3000D01*
X254000Y11100D02*
X258200Y6900D01*
X506100D01*
X255900Y5000D02*
X508800D01*
X520700Y16900D01*
X251950Y8950D02*
X255900Y5000D01*
X376000Y10000D02*
X378000Y12000D01*
X393500D01*
X195500Y141000D02*
X197900Y143400D01*
X195500Y12500D02*
Y141000D01*
X541800Y158700D02*
X543500Y157000D01*
X518600Y158700D02*
X541800D01*
X507700Y169600D02*
X518600Y158700D01*
X539500Y140500D02*
Y155400D01*
X537700Y157200D02*
X539500Y155400D01*
X518000Y157200D02*
X537700D01*
X380900Y224100D02*
Y239700D01*
X374600Y217800D02*
X380900Y224100D01*
X353108Y217800D02*
X374600D01*
X382700Y223000D02*
Y237100D01*
X370250Y210550D02*
X382700Y223000D01*
X319358Y210550D02*
X370250D01*
X384000Y221900D02*
Y233700D01*
X369050Y206950D02*
X384000Y221900D01*
X328242Y206950D02*
X369050D01*
X385750Y244550D02*
X448850D01*
X380900Y239700D02*
X385750Y244550D01*
X517350Y168392D02*
Y203350D01*
X515900Y204800D02*
X517350Y203350D01*
X515900Y204800D02*
Y244700D01*
X517350Y168392D02*
X519500Y166242D01*
X513800Y246800D02*
X515900Y244700D01*
X384200Y246800D02*
X513800D01*
X379200Y241800D02*
X384200Y246800D01*
X379200Y225100D02*
Y241800D01*
X373500Y219400D02*
X379200Y225100D01*
X507700Y169600D02*
Y205100D01*
X504500Y208300D02*
X507700Y205100D01*
X504500Y208300D02*
Y240600D01*
X500600Y244500D02*
X504500Y240600D01*
X448900Y244500D02*
X500600D01*
X448850Y244550D02*
X448900Y244500D01*
X384000Y233700D02*
X387100Y236800D01*
X489300D01*
X489150Y239950D02*
X493800Y235300D01*
X385550Y239950D02*
X489150D01*
X493800Y208100D02*
Y235300D01*
X498500Y172600D02*
Y200400D01*
X492000Y206900D02*
X498500Y200400D01*
X492000Y206900D02*
Y234100D01*
X502650Y172550D02*
Y199250D01*
X493800Y208100D02*
X502650Y199250D01*
X382700Y237100D02*
X385550Y239950D01*
X498500Y172600D02*
X513000Y158100D01*
X489300Y236800D02*
X492000Y234100D01*
X431000Y132000D02*
Y235000D01*
X426000Y130000D02*
Y235000D01*
X519500Y161000D02*
Y166242D01*
X543500Y153500D02*
Y157000D01*
X502650Y172550D02*
X518000Y157200D01*
X513000Y133000D02*
Y158100D01*
X539500Y140500D02*
X544500Y135500D01*
X513000Y133000D02*
X514900Y131100D01*
X534000D01*
X535090Y130010D01*
Y126900D02*
Y130010D01*
X255400Y147700D02*
Y165092D01*
X254000Y146300D02*
X255400Y147700D01*
X254000Y11100D02*
Y146300D01*
X251950Y8950D02*
Y147450D01*
X522800Y14100D02*
Y123800D01*
X520700Y16900D02*
Y125600D01*
X506100Y6900D02*
X519000Y19800D01*
Y127500D01*
X257400Y88900D02*
X259000Y90500D01*
X257400Y50900D02*
Y88900D01*
X256500Y50000D02*
X257400Y50900D01*
X253800Y149300D02*
Y156100D01*
X251950Y147450D02*
X253800Y149300D01*
X251950Y157950D02*
X253800Y156100D01*
X293900Y176400D02*
X298200D01*
X299900Y174500D02*
X301800Y176400D01*
X299900Y172000D02*
Y174500D01*
X298400Y170500D02*
X299900Y172000D01*
X260808Y170500D02*
X298400D01*
X527700Y128300D02*
X529500Y126500D01*
X523400Y128300D02*
X527700D01*
X520700Y125600D02*
X523400Y128300D01*
X353200Y219400D02*
X373500D01*
X349500Y215700D02*
X353200Y219400D01*
X320900Y215700D02*
X349500D01*
X315400Y210200D02*
X320900Y215700D01*
X350008Y214700D02*
X353108Y217800D01*
X322094Y214700D02*
X350008D01*
X315500Y208106D02*
X322094Y214700D01*
X315500Y207500D02*
Y208106D01*
X323700Y218700D02*
X342500Y237500D01*
X318100Y218700D02*
X323700D01*
X313250Y213850D02*
X318100Y218700D01*
X322200Y219700D02*
X339000Y236500D01*
X315700Y219700D02*
X322200D01*
X309550Y207050D02*
Y213550D01*
X315700Y219700D01*
X309500Y207000D02*
X309550Y207050D01*
X308000Y214100D02*
X315181Y221281D01*
X321681D02*
X328550Y228150D01*
X315181Y221281D02*
X321681D01*
X308000Y210000D02*
Y214100D01*
X315500Y202000D02*
X320550Y207050D01*
X328142D01*
X317950Y206950D02*
Y209142D01*
X315500Y204500D02*
X317950Y206950D01*
Y209142D02*
X319358Y210550D01*
X328550Y228150D02*
Y248950D01*
X328142Y207050D02*
X328242Y206950D01*
X249950Y6250D02*
Y150642D01*
X250600Y151292D01*
Y163400D01*
X273150Y185950D01*
Y200050D01*
X275000Y201900D01*
X251950Y157950D02*
Y163056D01*
X263394Y174500D01*
X255400Y165092D02*
X260808Y170500D01*
X256400Y137200D02*
Y138900D01*
X258000Y140500D01*
X245000Y156500D02*
X248500Y160000D01*
X245000Y149122D02*
Y156500D01*
Y149122D02*
X245700Y148422D01*
Y70000D02*
Y148422D01*
X243500Y58000D02*
Y95000D01*
X248000Y67500D02*
Y147536D01*
X522800Y123800D02*
X525500Y126500D01*
X263394Y174500D02*
X288200D01*
X290000Y176300D01*
X311700Y159700D02*
Y182500D01*
X310800Y158800D02*
X311700Y159700D01*
X307804Y158800D02*
X310800D01*
X305752Y156748D02*
X307804Y158800D01*
X306750Y187450D02*
X311700Y182500D01*
X301550Y187450D02*
X306750D01*
X397500Y107000D02*
Y139500D01*
X396200Y140800D02*
X397500Y139500D01*
X391500Y140800D02*
X396200D01*
X335300Y107556D02*
X337248Y109504D01*
X335300Y84700D02*
Y107556D01*
Y84700D02*
X341000Y79000D01*
X234000Y48000D02*
Y94000D01*
X216600Y87900D02*
Y174300D01*
X216300Y174600D02*
X216600Y174300D01*
X215300Y86600D02*
X216600Y87900D01*
X218000Y132692D02*
X222000Y136692D01*
X218000Y69500D02*
Y132692D01*
Y69500D02*
X220000Y67500D01*
X209500Y97000D02*
X214300Y101800D01*
Y155400D01*
X218000Y160500D02*
X220650Y163150D01*
Y167750D01*
X147000Y266000D02*
X151500Y270500D01*
X153000Y268000D02*
X211500D01*
X147000Y262000D02*
X153000Y268000D01*
X225600Y208100D02*
X229000Y211500D01*
X225600Y191900D02*
Y208100D01*
Y191900D02*
X230000Y187500D01*
Y165000D02*
Y187500D01*
X274400Y180300D02*
X276300Y178400D01*
X237600Y226000D02*
X241200Y222400D01*
Y202400D02*
Y222400D01*
Y202400D02*
X242500Y201100D01*
X151500Y270500D02*
X225200D01*
X237600Y258100D01*
Y226000D02*
Y258100D01*
X242500Y152500D02*
Y201100D01*
X240000Y150000D02*
Y219200D01*
X228000Y231200D02*
X240000Y219200D01*
X276300Y178400D02*
X299700D01*
X301700Y180400D01*
X286900Y190100D02*
X288000Y189000D01*
X274700Y190100D02*
X286900D01*
X222800Y56900D02*
Y91000D01*
X374300Y99300D02*
X375000Y100000D01*
X374300Y65700D02*
Y99300D01*
X370500Y101500D02*
X372000Y100000D01*
X364800Y101500D02*
X370500D01*
X358900Y103500D02*
X377500D01*
X347000Y115400D02*
X358900Y103500D01*
X347000Y115400D02*
Y150000D01*
X347700Y55000D02*
X351100Y58400D01*
Y99589D01*
X349059Y101630D02*
X351100Y99589D01*
X368400Y43800D02*
X368500Y43900D01*
Y90400D01*
X365400Y86400D02*
Y93400D01*
X365700Y93700D01*
X358500Y79500D02*
X365400Y86400D01*
X360500Y113500D02*
X379500D01*
X351000Y123000D02*
X360500Y113500D01*
X351000Y123000D02*
Y146933D01*
X234000Y94000D02*
X235000Y95000D01*
X358500Y45000D02*
Y79500D01*
X360000Y43500D02*
X365000D01*
X358500Y45000D02*
X360000Y43500D01*
X239000Y52500D02*
X239500Y52000D01*
X239000Y52500D02*
Y95000D01*
X372000Y58500D02*
Y100000D01*
X380000Y50000D02*
X380500D01*
X383000Y52500D01*
Y137500D01*
X163443Y56057D02*
Y83443D01*
X166000Y86000D01*
X163443Y56057D02*
X168500Y51000D01*
X345000Y65000D02*
X347000D01*
Y74500D01*
X345000Y76500D02*
X347000Y74500D01*
X345000Y76500D02*
X345050Y76550D01*
Y109500D01*
X393500Y12000D02*
X396000Y14500D01*
Y96000D01*
X410000Y132000D02*
Y176500D01*
X403500Y125500D02*
X410000Y132000D01*
X403500Y107000D02*
Y125500D01*
X377500Y103500D02*
X379000Y102000D01*
X414000Y111496D02*
X419748Y105748D01*
X420500Y126000D02*
X428000Y118500D01*
Y108000D02*
Y118500D01*
X420500Y100500D02*
X428000Y108000D01*
X422500Y127000D02*
X430000Y119500D01*
Y106000D02*
Y119500D01*
X422000Y98000D02*
X430000Y106000D01*
X424000Y128000D02*
X432000Y120000D01*
Y105000D02*
Y120000D01*
X422500Y95500D02*
X432000Y105000D01*
X407500Y108000D02*
X412098Y112598D01*
X403500Y107000D02*
X405500Y105000D01*
X416000Y125000D02*
Y198000D01*
X414000Y123000D02*
X416000Y125000D01*
X414000Y111496D02*
Y123000D01*
X418500Y125000D02*
Y199500D01*
Y125000D02*
X425500Y118000D01*
Y108500D02*
Y118000D01*
X420000Y103000D02*
X425500Y108500D01*
X420500Y126000D02*
Y201500D01*
X422500Y127000D02*
Y203500D01*
X424000Y130192D02*
X424500Y130692D01*
X424000Y128000D02*
Y130192D01*
X375500Y62500D02*
X377500D01*
X379000Y64000D01*
Y102000D01*
X375500Y55000D02*
X376500D01*
X381000Y59500D01*
Y112000D01*
X379500Y113500D02*
X381000Y112000D01*
X375500Y47500D02*
X378000Y45000D01*
X387000D01*
X388500Y46500D01*
X375500Y40000D02*
X388500D01*
X390000Y41500D01*
X393000Y119000D02*
X394500Y117500D01*
X389500Y119000D02*
X393000D01*
X375500Y32500D02*
X390000D01*
X391500Y34000D01*
X395000Y133500D02*
X396000Y132500D01*
X391500Y133500D02*
X395000D01*
X375500Y25000D02*
X391500D01*
X393000Y26500D01*
X375500Y17500D02*
X392500D01*
X394500Y19500D01*
X398000Y143000D02*
X399000Y142000D01*
X391500Y143000D02*
X398000D01*
X396000Y96000D02*
X400500Y100500D01*
Y147000D01*
X399000Y148500D02*
X400500Y147000D01*
X392500Y148500D02*
X399000D01*
X220000Y19000D02*
Y67500D01*
Y19000D02*
X221000Y18000D01*
X220000Y97500D02*
Y132500D01*
Y97500D02*
X226000Y91500D01*
Y13000D02*
Y91500D01*
X221000Y8000D02*
X226000Y13000D01*
X211000Y8000D02*
X216000Y13000D01*
X209500Y31000D02*
X216000Y24500D01*
X209500Y31000D02*
Y97000D01*
X216000Y13000D02*
Y24500D01*
X202000Y152500D02*
X207500Y147000D01*
Y107500D02*
Y147000D01*
Y107500D02*
X209050Y105950D01*
Y102050D02*
Y105950D01*
X207500Y100500D02*
X209050Y102050D01*
X207500Y21500D02*
Y100500D01*
Y21500D02*
X211000Y18000D01*
X205000Y12000D02*
Y137000D01*
X201000Y8000D02*
X205000Y12000D01*
X226000Y3000D02*
X231000Y8000D01*
X197297Y5203D02*
X199500Y3000D01*
X202550Y19550D02*
Y144950D01*
X202500Y145000D02*
X202550Y144950D01*
X201000Y18000D02*
X202550Y19550D01*
X191000Y8000D02*
X195500Y12500D01*
X191000Y18000D02*
X193500Y20500D01*
Y141500D01*
X187500Y147500D02*
X193500Y141500D01*
X186000Y70500D02*
Y136000D01*
X183500Y68000D02*
X186000Y70500D01*
X183500Y44000D02*
Y68000D01*
Y44000D02*
X186000Y41500D01*
Y13000D02*
Y41500D01*
Y136000D02*
X187500Y137500D01*
X181000Y8000D02*
X186000Y13000D01*
X177000Y23500D02*
Y130500D01*
X176000Y22500D02*
X177000Y23500D01*
X176000Y13000D02*
Y22500D01*
X175000Y132500D02*
X177000Y130500D01*
X181000Y18000D02*
Y19000D01*
X178500Y21500D02*
X181000Y19000D01*
X178500Y21500D02*
Y134000D01*
X175000Y137500D02*
X178500Y134000D01*
X171000Y8000D02*
X176000Y13000D01*
X175000Y58000D02*
Y125000D01*
X171000Y54000D02*
X175000Y58000D01*
X171000Y18000D02*
Y54000D01*
X197297Y5203D02*
Y133297D01*
X201000Y137000D01*
X229000Y20000D02*
X231000Y18000D01*
X229000Y20000D02*
Y113000D01*
X225000Y117000D02*
X229000Y113000D01*
X225000Y117000D02*
Y147500D01*
X220000Y152500D02*
X225000Y147500D01*
X222000Y136692D02*
Y146500D01*
X220000Y148500D02*
X222000Y146500D01*
X218000Y139500D02*
Y160500D01*
Y139500D02*
X220000Y137500D01*
X280500Y145000D02*
X282500Y147000D01*
X273000D02*
X275000Y145000D01*
X280500D01*
X258000Y140500D02*
X286567D01*
X262500Y133000D02*
X263045Y133545D01*
X273500Y123500D02*
X283882D01*
X270500Y120500D02*
X273500Y123500D01*
X270500Y79500D02*
Y120500D01*
X387500Y168500D02*
Y188000D01*
X385000Y168500D02*
Y186000D01*
X382500Y168500D02*
Y184000D01*
X373500Y182000D02*
X378000Y186500D01*
X401850Y99150D02*
Y193150D01*
Y99150D02*
X407500Y93500D01*
X379500Y192000D02*
X382500Y195000D01*
X400000D01*
X401850Y193150D01*
X417000Y205000D02*
X420500Y201500D01*
X375000Y205000D02*
X417000D01*
X415500Y202500D02*
X418500Y199500D01*
X414000Y200000D02*
X416000Y198000D01*
X375000Y200000D02*
X414000D01*
X418500Y207500D02*
X422500Y203500D01*
X375000Y207500D02*
X418500D01*
X424500Y130692D02*
Y205500D01*
X420000Y210000D02*
X424500Y205500D01*
X420000Y98000D02*
X422000D01*
X420000Y95500D02*
X422500D01*
X375000Y210000D02*
X420000D01*
X260000Y70700D02*
X261800Y68900D01*
X287600D01*
X290000Y71300D01*
Y90500D01*
X288100Y115474D02*
X294926D01*
X295826Y114574D01*
Y96326D02*
Y114574D01*
X290000Y90500D02*
X295826Y96326D01*
X286067Y113441D02*
X288100Y115474D01*
X435000Y108000D02*
Y156758D01*
X329000Y189000D02*
X332500Y192500D01*
X288000Y189000D02*
X329000D01*
X434950Y160642D02*
X437500Y163192D01*
X434950Y156808D02*
Y160642D01*
Y156808D02*
X435000Y156758D01*
X332500Y192500D02*
X370000D01*
X375000Y197500D01*
X382500D01*
X437500Y163192D02*
Y197500D01*
X392500Y172500D02*
Y192000D01*
X390000Y156500D02*
Y190000D01*
X412098Y112598D02*
Y178402D01*
X368550Y193550D02*
X375000Y200000D01*
Y202500D02*
X415500D01*
X367050Y194550D02*
X375000Y202500D01*
X288050Y194550D02*
X367050D01*
X365550Y195550D02*
X375000Y205000D01*
X297036Y195550D02*
X365550D01*
X295086Y197500D02*
X297036Y195550D01*
X288000Y197500D02*
X295086D01*
X364050Y196550D02*
X375000Y207500D01*
X297450Y196550D02*
X364050D01*
X363000Y198000D02*
X375000Y210000D01*
X342192Y198000D02*
X363000D01*
X339742Y200450D02*
X342192Y198000D01*
X332050Y193550D02*
X368550D01*
X350000Y262000D02*
X350500D01*
X313000Y222308D02*
Y222500D01*
X324000Y250929D02*
X326571D01*
X328550Y248950D01*
X342500Y237500D02*
Y268000D01*
X461000Y123500D02*
Y235000D01*
X441000Y136500D02*
Y235000D01*
X377500Y143000D02*
Y180000D01*
X380000Y150500D02*
Y182000D01*
X297878Y164622D02*
X297878D01*
X296000Y166500D02*
X297878Y164622D01*
X276500Y166500D02*
X296000D01*
X274500Y168500D02*
X276500Y166500D01*
X354500Y214000D02*
X355000D01*
X288000Y194500D02*
X288050Y194550D01*
X294000Y200000D02*
X297450Y196550D01*
X288000Y191500D02*
X330000D01*
X332050Y193550D01*
X302000Y202000D02*
X303550Y200450D01*
X339742D01*
X339000Y236500D02*
Y268000D01*
X284000Y115311D02*
X286067Y117378D01*
X284000Y91500D02*
Y115311D01*
X280000Y87500D02*
X284000Y91500D01*
X280000Y79000D02*
Y87500D01*
X275000Y74000D02*
X280000Y79000D01*
X289815Y121315D02*
X290004D01*
X288000Y119500D02*
X289815Y121315D01*
X281000Y119500D02*
X288000D01*
X280000Y118500D02*
X281000Y119500D01*
X280000Y92500D02*
Y118500D01*
X275000Y87500D02*
X280000Y92500D01*
X265000Y74000D02*
X270500Y79500D01*
X283882Y123500D02*
X286067Y121315D01*
X349059Y148874D02*
X351000Y146933D01*
X350870Y151000D02*
X352996Y148874D01*
X348000Y151000D02*
X350870D01*
X347000Y150000D02*
X348000Y151000D01*
X288130Y147000D02*
X290004Y148874D01*
X282500Y147000D02*
X288130D01*
X286567Y140500D02*
X290004Y137063D01*
X296004Y135000D02*
X297878Y133126D01*
X279692Y135000D02*
X296004D01*
X278237Y133545D02*
X279692Y135000D01*
X263045Y133545D02*
X278237D01*
X331252Y166500D02*
X333311Y168559D01*
X316500Y166500D02*
X331252D01*
X315500Y165500D02*
X316500Y166500D01*
X351000Y178374D02*
X352996Y180370D01*
X351000Y176000D02*
Y178374D01*
X349500Y174500D02*
X351000Y176000D01*
X344000Y174500D02*
X349500D01*
X343000Y173500D02*
X344000Y174500D01*
X343000Y99192D02*
Y173500D01*
X341603Y97796D02*
X343000Y99192D01*
X341603Y95604D02*
Y97796D01*
Y95604D02*
X342735Y94472D01*
Y61735D02*
Y94472D01*
X342500Y61500D02*
X342735Y61735D01*
X335252Y170500D02*
X337248Y172496D01*
X335252Y111752D02*
Y170500D01*
X329500Y106000D02*
X335252Y111752D01*
X286130Y180370D02*
X293941D01*
X281500Y185000D02*
X286130Y180370D01*
X281500Y185000D02*
Y188000D01*
X456500Y126000D02*
Y235000D01*
X358550Y158365D02*
Y186550D01*
X361250Y189250D01*
X379250D01*
X357000Y156815D02*
X358550Y158365D01*
X373500Y141500D02*
Y182000D01*
X383500Y140500D02*
X389000Y146000D01*
X377500Y140500D02*
X383500D01*
X375500Y142500D02*
X377500Y140500D01*
X439000Y134500D02*
X441000Y136500D01*
X459000Y73500D02*
X462500Y70000D01*
X459000Y73500D02*
Y128000D01*
X482000Y69000D02*
Y141500D01*
X407500Y93500D02*
X439500D01*
X267000Y92000D02*
Y123500D01*
X265500Y90500D02*
X267000Y92000D01*
X259000Y90500D02*
X265500D01*
X246000Y151500D02*
X248000Y153500D01*
X246000Y149536D02*
Y151500D01*
Y149536D02*
X248000Y147536D01*
X388500Y46500D02*
Y112000D01*
X392000Y115500D01*
X390000Y41500D02*
Y109500D01*
X394500Y114000D01*
Y117500D01*
X391500Y34000D02*
Y106000D01*
X396000Y110500D01*
Y132500D01*
X393000Y26500D02*
Y102500D01*
X397500Y107000D01*
X394500Y19500D02*
Y99000D01*
X399000Y103500D01*
Y142000D01*
X386450Y148950D02*
X389050D01*
X383000Y137500D02*
X391000Y145500D01*
Y147000D01*
X389050Y148950D02*
X391000Y147000D01*
X228000Y231200D02*
Y250500D01*
X211500Y268000D02*
X218500Y261000D01*
Y169900D02*
X220650Y167750D01*
X218500Y252500D02*
Y261000D01*
X215500Y249500D02*
X218500Y252500D01*
X215500Y241000D02*
Y249500D01*
Y241000D02*
X218500Y238000D01*
Y169900D02*
Y238000D01*
X275000Y84000D02*
Y87500D01*
X199500Y3000D02*
X226000D01*
X260000Y70700D02*
Y79000D01*
D42*
X355000Y25000D02*
Y94300D01*
X351000Y21000D02*
X355000Y25000D01*
X142500Y272500D02*
X368000D01*
X372500Y268000D01*
Y242531D02*
Y268000D01*
X263000Y61000D02*
X264000Y60000D01*
Y22000D02*
Y60000D01*
D50*
X242500Y235000D02*
D03*
X231000Y18000D02*
D03*
X221000D02*
D03*
X211000D02*
D03*
X201000D02*
D03*
X191000D02*
D03*
X181000D02*
D03*
X171000D02*
D03*
X231000Y8000D02*
D03*
X221000D02*
D03*
X211000D02*
D03*
X201000D02*
D03*
X191000D02*
D03*
X181000D02*
D03*
X171000D02*
D03*
X274400Y83800D02*
D03*
X264400D02*
D03*
X274400Y73800D02*
D03*
D55*
X463500Y79000D02*
D03*
Y114500D02*
D03*
D56*
X166000Y86000D02*
D03*
X264400Y73800D02*
D03*
D59*
X351000Y21000D02*
D03*
X263000Y61000D02*
D03*
D60*
X329500Y22500D02*
D03*
X315500D02*
D03*
X376000Y10000D02*
D03*
X142500Y272500D02*
D03*
X197900Y143400D02*
D03*
X426000Y235000D02*
D03*
X431000D02*
D03*
X441000D02*
D03*
X298200Y176400D02*
D03*
X313250Y213850D02*
D03*
X315500Y202000D02*
D03*
Y204500D02*
D03*
Y207500D02*
D03*
X315400Y210200D02*
D03*
X275000Y201900D02*
D03*
X256400Y137200D02*
D03*
X245700Y70000D02*
D03*
X301800Y176400D02*
D03*
X293900D02*
D03*
X290000Y176300D02*
D03*
X391500Y140800D02*
D03*
X234000Y48000D02*
D03*
X214300Y155400D02*
D03*
X215300Y86600D02*
D03*
X216300Y174600D02*
D03*
X147000Y266000D02*
D03*
Y262000D02*
D03*
X274400Y180300D02*
D03*
X274700Y190100D02*
D03*
X301700Y180400D02*
D03*
X222800Y91000D02*
D03*
Y56900D02*
D03*
X374300Y65700D02*
D03*
X375000Y100000D02*
D03*
X354900Y94300D02*
D03*
X347700Y55000D02*
D03*
X368400Y43800D02*
D03*
X368500Y90400D02*
D03*
X365700Y93700D02*
D03*
X235000Y95000D02*
D03*
X365000Y43500D02*
D03*
X239500Y52000D02*
D03*
X239000Y95000D02*
D03*
X243500D02*
D03*
Y58000D02*
D03*
X372000Y58500D02*
D03*
X364800Y101500D02*
D03*
X380000Y50000D02*
D03*
X168500Y51000D02*
D03*
X345000Y65000D02*
D03*
X345050Y109500D02*
D03*
X407500Y108000D02*
D03*
X405500Y105000D02*
D03*
X248500Y160000D02*
D03*
X300000Y224000D02*
D03*
X375500Y62500D02*
D03*
Y55000D02*
D03*
Y47500D02*
D03*
Y40000D02*
D03*
Y32500D02*
D03*
Y25000D02*
D03*
Y17500D02*
D03*
X202000Y152500D02*
D03*
X187500Y147500D02*
D03*
X175000Y137500D02*
D03*
Y132500D02*
D03*
X201000Y137000D02*
D03*
X220000Y152500D02*
D03*
Y137500D02*
D03*
Y148500D02*
D03*
X273000Y147000D02*
D03*
X187500Y137500D02*
D03*
X175000Y125000D02*
D03*
X205000Y137000D02*
D03*
X262500Y133000D02*
D03*
X220000Y132500D02*
D03*
X202500Y145000D02*
D03*
X242500Y152500D02*
D03*
X229000Y211500D02*
D03*
X230000Y165000D02*
D03*
X228000Y250500D02*
D03*
X240000Y150000D02*
D03*
X387500Y168500D02*
D03*
X385000D02*
D03*
X382500D02*
D03*
X378000Y186500D02*
D03*
X375400Y180500D02*
D03*
X379250Y189250D02*
D03*
X419748Y105748D02*
D03*
X420000Y95500D02*
D03*
Y98000D02*
D03*
Y100500D02*
D03*
Y103000D02*
D03*
X290450Y222831D02*
D03*
X277016Y242516D02*
D03*
X372484Y242516D02*
D03*
X435000Y108000D02*
D03*
X382500Y197500D02*
D03*
X437500D02*
D03*
X392500Y192000D02*
D03*
X410000Y176500D02*
D03*
X412098Y178402D02*
D03*
X324000Y250929D02*
D03*
X305752Y156748D02*
D03*
X297878Y133126D02*
D03*
X349059Y148874D02*
D03*
X333311Y168559D02*
D03*
X290004Y137063D02*
D03*
Y148874D02*
D03*
X352996D02*
D03*
X297878Y164622D02*
D03*
X337248Y109504D02*
D03*
Y172496D02*
D03*
X290004Y121315D02*
D03*
X286067D02*
D03*
Y117378D02*
D03*
Y113441D02*
D03*
X293941Y180370D02*
D03*
X352996D02*
D03*
X350500Y262000D02*
D03*
X313000Y222500D02*
D03*
X339000Y268000D02*
D03*
X342500D02*
D03*
X308000Y210000D02*
D03*
X309500Y207000D02*
D03*
X426000Y130000D02*
D03*
X456500Y235000D02*
D03*
X461000Y123500D02*
D03*
Y235000D02*
D03*
X377500Y143000D02*
D03*
X380000Y150500D02*
D03*
X377500Y180000D02*
D03*
X380000Y182000D02*
D03*
X382500Y184000D02*
D03*
X385000Y186000D02*
D03*
X387500Y188000D02*
D03*
X390000Y156500D02*
D03*
Y190000D02*
D03*
X392500Y172500D02*
D03*
X296000Y205000D02*
D03*
X298000Y207500D02*
D03*
X288000Y191500D02*
D03*
Y194500D02*
D03*
Y197500D02*
D03*
X294000Y200000D02*
D03*
X302000Y202000D02*
D03*
X274500Y168500D02*
D03*
X354500Y214000D02*
D03*
X392500Y148500D02*
D03*
X391500Y143000D02*
D03*
Y133500D02*
D03*
X389500Y119000D02*
D03*
X431000Y132000D02*
D03*
X342500Y61500D02*
D03*
X301550Y187450D02*
D03*
X389000Y146000D02*
D03*
X357000Y156815D02*
D03*
X281500Y188000D02*
D03*
X456500Y126000D02*
D03*
X341000Y79000D02*
D03*
X525500Y126500D02*
D03*
X535090Y126900D02*
D03*
X379500Y192000D02*
D03*
X373500Y141500D02*
D03*
X439000Y134500D02*
D03*
X459000Y128000D02*
D03*
X462500Y70000D02*
D03*
X482000Y69000D02*
D03*
Y141500D02*
D03*
X544500Y135500D02*
D03*
X543500Y153500D02*
D03*
X519500Y161000D02*
D03*
X519000Y127500D02*
D03*
X529500Y126500D02*
D03*
X392000Y115500D02*
D03*
X439500Y93500D02*
D03*
X267000Y123500D02*
D03*
X256500Y50000D02*
D03*
X248000Y153500D02*
D03*
Y67500D02*
D03*
X386450Y148950D02*
D03*
X349059Y101630D02*
D03*
D61*
X264000Y22000D02*
D03*
X276000Y265500D02*
D03*
D62*
X474500Y95000D02*
D03*
Y99000D02*
D03*
D70*
X297500Y224000D02*
X300000D01*
X296000Y205000D02*
Y222500D01*
X297500Y224000D01*
M02*
