%FSLAX25Y25*%
%MOIN*%
G70*
G01*
G75*
G04 Layer_Color=128*
%ADD10C,0.01000*%
%ADD11R,0.02362X0.01969*%
%ADD12R,0.01969X0.02362*%
%ADD13R,0.04331X0.05512*%
%ADD14R,0.05118X0.02165*%
%ADD15R,0.03150X0.03543*%
%ADD16R,0.02362X0.09843*%
%ADD17R,0.07874X0.21654*%
%ADD18O,0.02362X0.08465*%
%ADD19R,0.03543X0.03150*%
%ADD20R,0.03937X0.04724*%
%ADD21R,0.02165X0.05118*%
%ADD22O,0.06496X0.01181*%
%ADD23O,0.01181X0.06496*%
%ADD24R,0.08858X0.01969*%
%ADD25R,0.15748X0.08071*%
%ADD26R,0.05512X0.04331*%
%ADD27R,0.01575X0.03347*%
%ADD28C,0.01969*%
%ADD29O,0.06693X0.01181*%
%ADD30R,0.01772X0.08268*%
%ADD31O,0.01772X0.08268*%
%ADD32O,0.07087X0.01378*%
%ADD33R,0.01181X0.02953*%
%ADD34R,0.01181X0.03347*%
%ADD35R,0.02953X0.01181*%
%ADD36R,0.03347X0.01181*%
%ADD37R,0.21260X0.21260*%
%ADD38R,0.11024X0.03937*%
%ADD39R,0.03150X0.01181*%
%ADD40R,0.04921X0.15748*%
%ADD41C,0.00500*%
%ADD42C,0.00800*%
%ADD43C,0.01200*%
%ADD44C,0.01190*%
%ADD45C,0.01600*%
%ADD46C,0.02500*%
%ADD47C,0.03000*%
%ADD48C,0.02000*%
%ADD49C,0.01500*%
%ADD50C,0.05906*%
%ADD51R,0.05906X0.05906*%
%ADD52R,0.08661X0.08661*%
%ADD53C,0.04921*%
%ADD54C,0.06299*%
%ADD55C,0.06614*%
%ADD56R,0.05906X0.05906*%
%ADD57C,0.08661*%
%ADD58C,0.05709*%
%ADD59C,0.02000*%
%ADD60C,0.01600*%
%ADD61C,0.03200*%
%ADD62C,0.02600*%
%ADD63C,0.02400*%
%ADD64C,0.15000*%
%ADD65C,0.01800*%
%ADD66C,0.02200*%
%ADD67C,0.03600*%
%ADD68C,0.03000*%
%ADD69C,0.02900*%
%ADD70C,0.00600*%
%ADD71R,0.05900X0.12900*%
%ADD72R,0.05900X0.03900*%
%ADD73R,0.20000X0.20000*%
%ADD74R,0.15590X0.15590*%
%ADD75R,0.05906X0.02362*%
%ADD76R,0.03543X0.02756*%
%ADD77R,0.10236X0.04331*%
%ADD78R,0.07874X0.07087*%
%ADD79R,0.07480X0.09449*%
%ADD80C,0.01181*%
%ADD81R,0.02362X0.05906*%
%ADD82R,0.04331X0.02165*%
%ADD83O,0.08661X0.02362*%
%ADD84R,0.09843X0.17716*%
%ADD85C,0.04000*%
%ADD86C,0.01800*%
%ADD87C,0.05000*%
%ADD88C,0.00984*%
%ADD89C,0.02362*%
%ADD90C,0.00197*%
%ADD91C,0.00787*%
%ADD92C,0.00400*%
%ADD93R,0.01575X0.01181*%
%ADD94R,0.02962X0.02569*%
%ADD95R,0.02569X0.02962*%
%ADD96R,0.04931X0.06112*%
%ADD97R,0.05718X0.02765*%
%ADD98R,0.03750X0.04143*%
%ADD99R,0.02962X0.10443*%
%ADD100R,0.08474X0.22253*%
%ADD101O,0.02962X0.09065*%
%ADD102R,0.04143X0.03750*%
%ADD103R,0.04537X0.05324*%
%ADD104R,0.02765X0.05718*%
%ADD105O,0.07096X0.01781*%
%ADD106O,0.01781X0.07096*%
%ADD107R,0.09458X0.02569*%
%ADD108R,0.16348X0.08671*%
%ADD109R,0.06112X0.04931*%
%ADD110R,0.02175X0.03947*%
%ADD111C,0.02569*%
%ADD112O,0.07293X0.01781*%
%ADD113R,0.02372X0.08868*%
%ADD114O,0.02372X0.08868*%
%ADD115O,0.07687X0.01978*%
%ADD116R,0.01781X0.03553*%
%ADD117R,0.01781X0.03947*%
%ADD118R,0.03553X0.01781*%
%ADD119R,0.03947X0.01781*%
%ADD120R,0.21860X0.21860*%
%ADD121R,0.11624X0.04537*%
%ADD122R,0.03750X0.01781*%
%ADD123R,0.05521X0.16348*%
%ADD124C,0.06506*%
%ADD125R,0.06506X0.06506*%
%ADD126R,0.09261X0.09261*%
%ADD127C,0.05521*%
%ADD128C,0.06899*%
%ADD129C,0.07214*%
%ADD130R,0.06506X0.06506*%
%ADD131C,0.00600*%
%ADD132C,0.09261*%
%ADD133C,0.06309*%
%ADD134C,0.11000*%
%ADD135C,0.01400*%
%ADD136R,0.06500X0.13500*%
%ADD137R,0.06500X0.04500*%
%ADD138R,0.20600X0.20600*%
%ADD139R,0.16190X0.16190*%
%ADD140R,0.06506X0.02962*%
%ADD141R,0.04143X0.03356*%
%ADD142R,0.10836X0.04931*%
%ADD143R,0.08474X0.07687*%
%ADD144R,0.08080X0.10049*%
%ADD145C,0.01781*%
%ADD146R,0.02962X0.06506*%
%ADD147R,0.04931X0.02765*%
%ADD148O,0.09261X0.02962*%
%ADD149R,0.10443X0.18316*%
D11*
X6568Y94600D02*
D03*
X2631D02*
D03*
X531032Y208500D02*
D03*
X534969D02*
D03*
X531032Y215000D02*
D03*
X534969D02*
D03*
X372431Y103500D02*
D03*
X376368D02*
D03*
X111531Y75000D02*
D03*
X115469D02*
D03*
X442531Y91000D02*
D03*
X446468D02*
D03*
X443032Y218500D02*
D03*
X446969D02*
D03*
X443032Y213500D02*
D03*
X446969D02*
D03*
X63032Y66000D02*
D03*
X66969D02*
D03*
X184968Y209500D02*
D03*
X181032D02*
D03*
X173031Y230500D02*
D03*
X176969D02*
D03*
X102532Y249500D02*
D03*
X106468D02*
D03*
X151532Y202000D02*
D03*
X155468D02*
D03*
X211531Y209000D02*
D03*
X215469D02*
D03*
X219531Y184000D02*
D03*
X223468D02*
D03*
X151532Y196000D02*
D03*
X155468D02*
D03*
X193032Y205500D02*
D03*
X196968D02*
D03*
X193063Y196500D02*
D03*
X197000D02*
D03*
X193032Y190500D02*
D03*
X196968D02*
D03*
X211531Y205000D02*
D03*
X215469D02*
D03*
X219531Y196000D02*
D03*
X223468D02*
D03*
X219531Y190500D02*
D03*
X223468D02*
D03*
X82968Y261000D02*
D03*
X79031D02*
D03*
X88532D02*
D03*
X92469D02*
D03*
X98532Y77000D02*
D03*
X102469D02*
D03*
X451968Y206500D02*
D03*
X448032D02*
D03*
X457469Y213000D02*
D03*
X453532D02*
D03*
X448032Y200500D02*
D03*
X451968D02*
D03*
X376532Y85000D02*
D03*
X380469D02*
D03*
X370532Y138500D02*
D03*
X374468D02*
D03*
X184531Y255500D02*
D03*
X188469D02*
D03*
X184531Y250500D02*
D03*
X188469D02*
D03*
X357531Y190000D02*
D03*
X361469D02*
D03*
X308968Y268500D02*
D03*
X305031D02*
D03*
X298969Y242000D02*
D03*
X295031D02*
D03*
X270969Y137000D02*
D03*
X267032D02*
D03*
X269969Y115500D02*
D03*
X266032D02*
D03*
X272969Y105500D02*
D03*
X269032D02*
D03*
X444031Y84000D02*
D03*
X447968D02*
D03*
X480532Y106500D02*
D03*
X484469D02*
D03*
X480532Y100500D02*
D03*
X484469D02*
D03*
X480532Y93500D02*
D03*
X484469D02*
D03*
X480532Y87500D02*
D03*
X484469D02*
D03*
X91581Y114550D02*
D03*
X95518D02*
D03*
X91581Y120550D02*
D03*
X95518D02*
D03*
X115469Y80000D02*
D03*
X111531D02*
D03*
X226532Y267000D02*
D03*
X230469D02*
D03*
X110531Y26000D02*
D03*
X114469D02*
D03*
Y18500D02*
D03*
X110531D02*
D03*
X477032Y133000D02*
D03*
X480969D02*
D03*
X477032Y138000D02*
D03*
X480969D02*
D03*
X427969Y86000D02*
D03*
X424031D02*
D03*
D12*
X13000Y96969D02*
D03*
Y93032D02*
D03*
X20000Y96969D02*
D03*
Y93032D02*
D03*
X26000Y96969D02*
D03*
Y93032D02*
D03*
X32000Y96969D02*
D03*
Y93032D02*
D03*
X38000Y96969D02*
D03*
Y93032D02*
D03*
X351000Y73469D02*
D03*
Y69532D02*
D03*
X361000Y94468D02*
D03*
Y90531D02*
D03*
X446000Y158531D02*
D03*
Y162469D02*
D03*
X469000Y222468D02*
D03*
Y218531D02*
D03*
X441500Y155032D02*
D03*
Y158968D02*
D03*
X127500Y169032D02*
D03*
Y172968D02*
D03*
X140000Y254063D02*
D03*
Y258000D02*
D03*
X147000Y254063D02*
D03*
Y258000D02*
D03*
X231500Y172968D02*
D03*
Y169032D02*
D03*
X54500Y266968D02*
D03*
Y263032D02*
D03*
X61000Y266968D02*
D03*
Y263032D02*
D03*
X116500Y89969D02*
D03*
Y86032D02*
D03*
X76000Y223532D02*
D03*
Y227468D02*
D03*
X81500Y223532D02*
D03*
Y227468D02*
D03*
X30500Y136031D02*
D03*
Y139969D02*
D03*
X338000Y93468D02*
D03*
Y89531D02*
D03*
X345000Y89031D02*
D03*
Y92968D02*
D03*
X151000Y233032D02*
D03*
Y236968D02*
D03*
X320500Y93468D02*
D03*
Y89531D02*
D03*
X306000Y93468D02*
D03*
Y89531D02*
D03*
X297500Y93968D02*
D03*
Y90031D02*
D03*
X328500Y91531D02*
D03*
Y95468D02*
D03*
X302000Y90031D02*
D03*
Y93968D02*
D03*
X462000Y188031D02*
D03*
Y191969D02*
D03*
X469000Y188031D02*
D03*
Y191969D02*
D03*
X476000Y188031D02*
D03*
Y191969D02*
D03*
X483000Y188031D02*
D03*
Y191969D02*
D03*
X350000Y200031D02*
D03*
Y203969D02*
D03*
X364000Y204468D02*
D03*
Y200532D02*
D03*
X341500Y188531D02*
D03*
Y192469D02*
D03*
X324500Y191032D02*
D03*
Y194968D02*
D03*
X337000Y246969D02*
D03*
Y243032D02*
D03*
X274500Y172031D02*
D03*
Y175969D02*
D03*
X271000Y130468D02*
D03*
Y126532D02*
D03*
X266500Y130468D02*
D03*
Y126532D02*
D03*
X245500Y169032D02*
D03*
Y172968D02*
D03*
X455500Y58531D02*
D03*
Y62468D02*
D03*
X471500Y72531D02*
D03*
Y76468D02*
D03*
X478500Y76468D02*
D03*
Y72531D02*
D03*
X485500Y72531D02*
D03*
Y76468D02*
D03*
X315500Y93468D02*
D03*
Y89531D02*
D03*
X137500Y67032D02*
D03*
Y70969D02*
D03*
X119500D02*
D03*
Y67032D02*
D03*
X161744Y41319D02*
D03*
Y37382D02*
D03*
X156744Y41319D02*
D03*
Y37382D02*
D03*
X242500Y259968D02*
D03*
Y256031D02*
D03*
X247500D02*
D03*
Y259968D02*
D03*
X460500Y149031D02*
D03*
Y152969D02*
D03*
X54500Y82032D02*
D03*
Y85969D02*
D03*
D13*
X531453Y229500D02*
D03*
X525547D02*
D03*
X12047Y107000D02*
D03*
X17953D02*
D03*
X69953Y141000D02*
D03*
X64047D02*
D03*
X190079Y182500D02*
D03*
X195984D02*
D03*
X220547Y178000D02*
D03*
X226453D02*
D03*
X104953Y53500D02*
D03*
X99047D02*
D03*
X96503Y128050D02*
D03*
X90597D02*
D03*
D14*
X99079Y61760D02*
D03*
Y65500D02*
D03*
Y69240D02*
D03*
X108921D02*
D03*
Y61760D02*
D03*
X213079Y255260D02*
D03*
Y259000D02*
D03*
Y262740D02*
D03*
X222921D02*
D03*
Y255260D02*
D03*
D15*
X525256Y221500D02*
D03*
X519744D02*
D03*
X208744Y200000D02*
D03*
X214256D02*
D03*
X206744Y178000D02*
D03*
X212256D02*
D03*
D17*
X564732Y11476D02*
D03*
X531268D02*
D03*
X521732D02*
D03*
X488268D02*
D03*
X478732D02*
D03*
X445268D02*
D03*
D26*
X197000Y266953D02*
D03*
Y261047D02*
D03*
X132500Y258984D02*
D03*
Y253079D02*
D03*
X69500Y269953D02*
D03*
Y264047D02*
D03*
X89000Y230453D02*
D03*
Y224547D02*
D03*
X146000Y65047D02*
D03*
Y70953D02*
D03*
X310000Y76047D02*
D03*
Y81953D02*
D03*
X325000Y76047D02*
D03*
Y81953D02*
D03*
X336000Y76047D02*
D03*
Y81953D02*
D03*
X357500Y206453D02*
D03*
Y200547D02*
D03*
X238500Y175953D02*
D03*
Y170047D02*
D03*
X150244Y35398D02*
D03*
Y41303D02*
D03*
X235500Y261953D02*
D03*
Y256047D02*
D03*
D27*
X471059Y133240D02*
D03*
X465941D02*
D03*
Y125760D02*
D03*
X468500D02*
D03*
X471059D02*
D03*
D71*
X75950Y119050D02*
D03*
D72*
X51150D02*
D03*
Y110050D02*
D03*
Y128050D02*
D03*
D73*
X345508Y37500D02*
D03*
X446492D02*
D03*
D74*
X396000D02*
D03*
D75*
X139984Y47850D02*
D03*
X132504Y51591D02*
D03*
Y44110D02*
D03*
X109240Y86000D02*
D03*
X101760Y89740D02*
D03*
Y82260D02*
D03*
D76*
X23500Y134047D02*
D03*
Y139953D02*
D03*
D77*
X55500Y16315D02*
D03*
Y5685D02*
D03*
D78*
X175268Y239500D02*
D03*
Y259500D02*
D03*
X158732D02*
D03*
Y239500D02*
D03*
D79*
X369571Y81500D02*
D03*
X353429D02*
D03*
D80*
X325382Y252311D02*
D03*
X322429D02*
D03*
X319476D02*
D03*
X316524D02*
D03*
X313571D02*
D03*
X310618D02*
D03*
X325382Y249358D02*
D03*
X322429D02*
D03*
X319476D02*
D03*
X316524D02*
D03*
X313571D02*
D03*
X310618D02*
D03*
X325382Y246406D02*
D03*
X322429D02*
D03*
X319476D02*
D03*
X316524D02*
D03*
X313571D02*
D03*
X310618D02*
D03*
X325382Y243453D02*
D03*
X322429D02*
D03*
X319476D02*
D03*
X316524D02*
D03*
X313571D02*
D03*
X310618D02*
D03*
X325382Y240500D02*
D03*
X322429D02*
D03*
X319476D02*
D03*
X316524D02*
D03*
X313571D02*
D03*
X310618D02*
D03*
X325382Y237547D02*
D03*
X322429D02*
D03*
X319476D02*
D03*
X316524D02*
D03*
X313571D02*
D03*
X310618D02*
D03*
X325382Y234594D02*
D03*
X322429D02*
D03*
X319476D02*
D03*
X316524D02*
D03*
X313571D02*
D03*
X310618D02*
D03*
X325382Y231642D02*
D03*
X322429D02*
D03*
X319476D02*
D03*
X316524D02*
D03*
X313571D02*
D03*
X310618D02*
D03*
X325382Y228689D02*
D03*
X322429D02*
D03*
X319476D02*
D03*
X316524D02*
D03*
X313571D02*
D03*
X310618D02*
D03*
D81*
X466500Y55260D02*
D03*
X470240Y62740D02*
D03*
X462760D02*
D03*
X464000Y210240D02*
D03*
X460260Y202760D02*
D03*
X467740D02*
D03*
D82*
X542937Y179760D02*
D03*
Y183500D02*
D03*
Y187240D02*
D03*
X535063D02*
D03*
Y183500D02*
D03*
Y179760D02*
D03*
D83*
X81949Y71500D02*
D03*
Y81500D02*
D03*
Y76500D02*
D03*
Y86500D02*
D03*
X63051Y71500D02*
D03*
Y76500D02*
D03*
Y81500D02*
D03*
Y86500D02*
D03*
D84*
X36342Y43500D02*
D03*
X16657D02*
D03*
M02*
